<svg width="26" height="24" viewBox="0 0 26 24" fill="none" xmlns="http://www.w3.org/2000/svg">
<path d="M20.5864 17.4604C18.7988 17.4604 17.3445 18.9273 17.3445 20.7302C17.3445 22.5331 18.7988 24 20.5864 24C22.3739 24 23.8283 22.5331 23.8283 20.7302C23.8283 18.9273 22.3739 17.4604 20.5864 17.4604ZM20.5864 22.0381C19.8712 22.0381 19.2896 21.4515 19.2896 20.7302C19.2896 20.0089 19.8712 19.4223 20.5864 19.4223C21.3015 19.4223 21.8831 20.0089 21.8831 20.7302C21.8831 21.4515 21.3015 22.0381 20.5864 22.0381Z" fill="#333333"/>
<path d="M25.7933 4.8232C25.6092 4.58549 25.3268 4.44685 25.0276 4.44685H6.0034L5.12807 0.753007C5.02336 0.31161 4.63204 4.47977e-09 4.18206 4.47977e-09H0.972569C0.435401 -5.12135e-05 0 0.439092 0 0.980876C0 1.52266 0.435401 1.9618 0.972569 1.9618H3.4144L6.57525 15.3012C6.67996 15.7429 7.07128 16.0542 7.52126 16.0542H22.661C23.1081 16.0542 23.4977 15.7468 23.605 15.3093L25.9717 5.66348C26.0433 5.37056 25.9775 5.0609 25.7933 4.8232ZM21.9001 14.0924H8.28892L6.46825 6.4087H23.7849L21.9001 14.0924Z" fill="#333333"/>
<path d="M8.81807 17.4604C7.03045 17.4604 5.57617 18.9273 5.57617 20.7302C5.57617 22.5331 7.0305 24 8.81807 24C10.6056 24 12.06 22.5331 12.06 20.7302C12.06 18.9273 10.6056 17.4604 8.81807 17.4604ZM8.81807 22.0381C8.10291 22.0381 7.52131 21.4515 7.52131 20.7302C7.52131 20.0089 8.10291 19.4223 8.81807 19.4223C9.53322 19.4223 10.1148 20.0089 10.1148 20.7302C10.1148 21.4515 9.53322 22.0381 8.81807 22.0381Z" fill="#333333"/>
</svg>
