<svg width="35" height="32" viewBox="0 0 35 32" fill="none" xmlns="http://www.w3.org/2000/svg">
<path d="M27.7124 23.2806C25.306 23.2806 23.3483 25.2364 23.3483 27.6403C23.3483 30.0442 25.306 32 27.7124 32C30.1187 32 32.0764 30.0442 32.0764 27.6403C32.0764 25.2364 30.1187 23.2806 27.7124 23.2806ZM27.7124 29.3842C26.7496 29.3842 25.9667 28.6021 25.9667 27.6403C25.9667 26.6786 26.7496 25.8964 27.7124 25.8964C28.6751 25.8964 29.458 26.6786 29.458 27.6403C29.458 28.6021 28.6751 29.3842 27.7124 29.3842Z" fill="white"/>
<path d="M34.7218 6.43093C34.4739 6.11399 34.0938 5.92913 33.691 5.92913H8.08149L6.90318 1.00401C6.76222 0.41548 6.23544 5.97303e-09 5.6297 5.97303e-09H1.30923C0.586117 -6.82847e-05 0 0.585456 0 1.30783C0 2.03021 0.586117 2.61574 1.30923 2.61574H4.59631L8.85129 20.4016C8.99225 20.9906 9.51903 21.4056 10.1248 21.4056H30.5052C31.1071 21.4056 31.6316 20.9958 31.776 20.4124L34.9619 7.55131C35.0583 7.16075 34.9697 6.74787 34.7218 6.43093ZM29.4809 18.7898H11.1582L8.70726 8.54493H32.0182L29.4809 18.7898Z" fill="white"/>
<path d="M11.8706 23.2806C9.46416 23.2806 7.50647 25.2364 7.50647 27.6403C7.50647 30.0442 9.46423 32 11.8706 32C14.2769 32 16.2346 30.0442 16.2346 27.6403C16.2346 25.2364 14.2769 23.2806 11.8706 23.2806ZM11.8706 29.3842C10.9078 29.3842 10.1249 28.6021 10.1249 27.6403C10.1249 26.6786 10.9078 25.8964 11.8706 25.8964C12.8333 25.8964 13.6162 26.6786 13.6162 27.6403C13.6162 28.6021 12.8333 29.3842 11.8706 29.3842Z" fill="white"/>
</svg>
