<svg width="36" height="35" viewBox="0 0 36 35" fill="none" xmlns="http://www.w3.org/2000/svg">
<path d="M18 34.7054C17.4875 34.7054 16.9934 34.5096 16.6083 34.1541C15.154 32.8136 13.7519 31.5538 12.5148 30.4426L12.5085 30.4368C8.88162 27.1787 5.74969 24.365 3.57056 21.5933C1.13461 18.4947 0 15.5568 0 12.3473C0 9.22905 1.01431 6.35225 2.8559 4.24647C4.71945 2.1158 7.27652 0.942322 10.0569 0.942322C12.1349 0.942322 14.0381 1.63489 15.7132 3.00061C16.5586 3.68999 17.3249 4.53369 18 5.51782C18.6754 4.53369 19.4414 3.68999 20.2871 3.00061C21.9622 1.63489 23.8653 0.942322 25.9434 0.942322C28.7235 0.942322 31.2808 2.1158 33.1444 4.24647C34.986 6.35225 36 9.22905 36 12.3473C36 15.5568 34.8657 18.4947 32.4297 21.593C30.2506 24.365 27.1189 27.1784 23.4926 30.4362C22.2534 31.5492 20.849 32.811 19.3914 34.1547C19.0066 34.5096 18.5122 34.7054 18 34.7054ZM10.0569 3.16536C7.87253 3.16536 5.86588 4.08434 4.40607 5.75321C2.92456 7.44726 2.10855 9.78901 2.10855 12.3473C2.10855 15.0466 3.06024 17.4608 5.19406 20.1749C7.25647 22.7983 10.3241 25.5541 13.876 28.745L13.8826 28.7508C15.1243 29.8664 16.532 31.1311 17.997 32.4815C19.4708 31.1285 20.8806 29.8618 22.1248 28.7445C25.6764 25.5535 28.7438 22.7983 30.8062 20.1749C32.9398 17.4608 33.8914 15.0466 33.8914 12.3473C33.8914 9.78901 33.0754 7.44726 31.5939 5.75321C30.1344 4.08434 28.1275 3.16536 25.9434 3.16536C24.3432 3.16536 22.8741 3.70157 21.5769 4.75895C20.4208 5.70167 19.6155 6.89339 19.1434 7.72724C18.9006 8.15604 18.4732 8.41199 18 8.41199C17.5268 8.41199 17.0994 8.15604 16.8566 7.72724C16.3847 6.89339 15.5794 5.70167 14.4231 4.75895C13.1259 3.70157 11.6568 3.16536 10.0569 3.16536Z" fill="#333333"/>
</svg>
