<svg xmlns="http://www.w3.org/2000/svg" width="36" height="33" viewBox="0 0 36 33" fill="none">
    <path
        d="M18 33C17.4875 33 16.9934 32.8087 16.6083 32.4612C15.154 31.1509 13.7519 29.9197 12.5148 28.8335L12.5085 28.8279C8.88162 25.6434 5.74969 22.8933 3.57056 20.1842C1.13461 17.1557 0 14.2842 0 11.1472C0 8.09945 1.01431 5.28766 2.8559 3.22948C4.71945 1.14696 7.27652 0 10.0569 0C12.1349 0 14.0381 0.676911 15.7132 2.01177C16.5586 2.68557 17.3249 3.5102 18 4.47209C18.6754 3.5102 19.4414 2.68557 20.2871 2.01177C21.9622 0.676911 23.8653 0 25.9434 0C28.7235 0 31.2808 1.14696 33.1444 3.22948C34.986 5.28766 36 8.09945 36 11.1472C36 14.2842 34.8657 17.1557 32.4297 20.184C30.2507 22.8932 27.1192 25.6429 23.4931 28.8269L23.4926 28.8273C22.2534 29.9151 20.849 31.1484 19.3914 32.4618C19.0066 32.8087 18.5122 33 18 33Z"
        fill="#DC0000" />
</svg>