<svg width="36" height="33" viewBox="0 0 36 33" fill="none" xmlns="http://www.w3.org/2000/svg">
    <path
        d="M18 33C17.4875 33 16.9934 32.8087 16.6083 32.4612C15.154 31.1509 13.7519 29.9197 12.5148 28.8335L12.5085 28.8279C8.88162 25.6434 5.74969 22.8933 3.57056 20.1842C1.13461 17.1557 0 14.2842 0 11.1472C0 8.09945 1.01431 5.28766 2.8559 3.22948C4.71945 1.14696 7.27652 0 10.0569 0C12.1349 0 14.0381 0.676911 15.7132 2.01177C16.5586 2.68557 17.3249 3.5102 18 4.47209C18.6754 3.5102 19.4414 2.68557 20.2871 2.01177C21.9622 0.676911 23.8653 0 25.9434 0C28.7235 0 31.2808 1.14696 33.1444 3.22948C34.986 5.28766 36 8.09945 36 11.1472C36 14.2842 34.8657 17.1557 32.4297 20.184C30.2507 22.8932 27.1192 25.6429 23.4931 28.8269L23.4926 28.8273C22.2534 29.9151 20.849 31.1484 19.3914 32.4618C19.0066 32.8087 18.5122 33 18 33ZM10.0569 2.1728C7.87253 2.1728 5.86588 3.071 4.40607 4.70216C2.92456 6.35793 2.10855 8.64675 2.10855 11.1472C2.10855 13.7856 3.06024 16.1451 5.19406 18.7979C7.25606 21.3615 10.3229 24.0545 13.8739 27.1725L13.876 27.1744L13.8826 27.18C15.1243 28.2704 16.532 29.5065 17.997 30.8264C19.4708 29.5039 20.8806 28.2659 22.1248 27.1738L22.1344 27.1654C25.682 24.0501 28.7457 21.3597 30.8062 18.7979C32.9398 16.1451 33.8914 13.7856 33.8914 11.1472C33.8914 8.64675 33.0754 6.35793 31.5939 4.70216C30.1344 3.071 28.1275 2.1728 25.9434 2.1728C24.3432 2.1728 22.8741 2.69689 21.5769 3.73037C20.4208 4.65179 19.6155 5.81657 19.1434 6.63158C18.9006 7.05069 18.4732 7.30085 18 7.30085C17.5268 7.30085 17.0994 7.05069 16.8566 6.63158C16.3847 5.81657 15.5794 4.65179 14.4231 3.73037C13.1259 2.69689 11.6568 2.1728 10.0569 2.1728Z"
        fill="#DC0000" />
</svg>