<svg width="24" height="24" viewBox="0 0 24 24" fill="none" xmlns="http://www.w3.org/2000/svg">
<g clip-path="url(#clip0_2912_515)">
<path d="M17.5034 0H6.49657C2.9143 0 0 2.9143 0 6.49657V17.5036C0 21.0857 2.9143 24 6.49657 24H17.5036C21.0857 24 24 21.0857 24 17.5036V6.49657C24 2.9143 21.0857 0 17.5034 0V0ZM22.593 17.5036C22.593 20.3098 20.3098 22.593 17.5034 22.593H6.49657C3.69012 22.593 1.40698 20.3098 1.40698 17.5036V6.49657C1.40698 3.69012 3.69012 1.40698 6.49657 1.40698H17.5036C20.3098 1.40698 22.593 3.69012 22.593 6.49657V17.5036Z" fill="white"/>
<path d="M12 5.43774C8.38146 5.43774 5.43768 8.38152 5.43768 12C5.43768 15.6186 8.38146 18.5624 12 18.5624C15.6185 18.5624 18.5623 15.6186 18.5623 12C18.5623 8.38152 15.6185 5.43774 12 5.43774ZM12 17.1554C9.15746 17.1554 6.84466 14.8428 6.84466 12C6.84466 9.15752 9.15746 6.84472 12 6.84472C14.8427 6.84472 17.1553 9.15752 17.1553 12C17.1553 14.8428 14.8427 17.1554 12 17.1554Z" fill="white"/>
<path d="M18.7192 3.10718C17.6499 3.10718 16.7802 3.97711 16.7802 5.04626C16.7802 6.1156 17.6499 6.98553 18.7192 6.98553C19.7886 6.98553 20.6585 6.1156 20.6585 5.04626C20.6585 3.97693 19.7886 3.10718 18.7192 3.10718ZM18.7192 5.57836C18.4259 5.57836 18.1871 5.3396 18.1871 5.04626C18.1871 4.75274 18.4259 4.51416 18.7192 4.51416C19.0128 4.51416 19.2515 4.75274 19.2515 5.04626C19.2515 5.3396 19.0128 5.57836 18.7192 5.57836Z" fill="white"/>
</g>
<defs>
<clipPath id="clip0_2912_515">
<rect width="24" height="24" fill="white"/>
</clipPath>
</defs>
</svg>
