<svg width="24" height="24" viewBox="0 0 24 24" fill="none" xmlns="http://www.w3.org/2000/svg">
<g clip-path="url(#clip0_2888_405)">
<path d="M12 0C7.06508 0 3.05029 4.01641 3.05029 8.9533C3.05029 16.3089 11.1092 23.4911 11.4524 23.7933C11.6088 23.9311 11.8044 24.0001 12 24.0001C12.1957 24.0001 12.3912 23.9312 12.5477 23.7933C12.8908 23.4912 20.9498 16.309 20.9498 8.9533C20.9498 4.01641 16.935 0 12 0ZM12 22.0355C10.2183 20.309 4.70767 14.518 4.70767 8.9533C4.70767 4.93035 7.97902 1.65738 12 1.65738C16.021 1.65738 19.2924 4.93035 19.2924 8.9533C19.2924 14.5179 13.7818 20.3089 12 22.0355Z" fill="#333333"/>
<path d="M12 4.78247C9.71536 4.78247 7.85669 6.6535 7.85669 8.95329C7.85669 11.2532 9.71536 13.1241 12 13.1241C14.2847 13.1241 16.1434 11.2532 16.1434 8.95329C16.1434 6.6535 14.2847 4.78247 12 4.78247ZM12 11.4667C10.6292 11.4667 9.51398 10.3392 9.51398 8.95329C9.51398 7.56744 10.6292 6.43984 12 6.43984C13.3709 6.43984 14.4861 7.56735 14.4861 8.95329C14.4861 10.3392 13.3709 11.4667 12 11.4667Z" fill="#333333"/>
</g>
<defs>
<clipPath id="clip0_2888_405">
<rect width="24" height="24" fill="white"/>
</clipPath>
</defs>
</svg>
