<?xml version="1.0" encoding="UTF-8" standalone="no"?>
<!DOCTYPE svg PUBLIC "-//W3C//DTD SVG 1.1//EN" "http://www.w3.org/Graphics/SVG/1.1/DTD/svg11.dtd">
<svg xmlns="http://www.w3.org/2000/svg" version="1.1" viewBox="0.00 0.00 1672.00 1254.00">
<g stroke-width="2.00" fill="none" stroke-linecap="butt">
<path stroke="#acc59e" vector-effect="non-scaling-stroke" d="
  M 1164.38 748.21
  Q 1162.29 751.02 1160.46 754.78
  C 1159.43 756.90 1157.66 758.51 1156.69 760.75
  Q 1155.78 762.85 1154.58 764.59
  Q 1152.32 767.85 1150.44 771.36
  Q 1149.61 772.92 1148.68 774.31
  C 1147.12 776.63 1144.97 779.26 1145.45 782.10
  C 1145.87 784.54 1147.91 786.32 1150.42 786.32
  Q 1217.72 786.20 1284.23 786.28
  Q 1284.75 786.28 1284.75 786.80
  L 1284.75 860.78
  A 0.29 0.29 0.0 0 0 1285.04 861.07
  L 1321.97 861.06
  A 0.28 0.28 0.0 0 0 1322.25 860.78
  L 1322.23 786.80
  A 0.57 0.57 0.0 0 1 1322.80 786.23
  Q 1388.92 786.26 1456.31 786.28
  C 1459.30 786.28 1461.79 783.99 1461.46 780.97
  Q 1461.23 778.87 1459.72 776.35
  Q 1426.61 720.96 1394.62 666.98
  C 1393.08 664.37 1389.55 659.19 1395.50 658.54
  Q 1402.99 657.72 1411.68 656.86
  C 1415.92 656.44 1417.35 651.74 1415.37 648.38
  Q 1407.96 635.74 1401.08 623.91
  C 1400.35 622.65 1399.37 621.55 1398.73 620.26
  Q 1398.07 618.92 1397.29 617.58
  Q 1385.46 597.16 1374.21 577.69
  Q 1368.54 567.87 1363.40 559.50
  Q 1362.27 557.67 1361.04 555.21
  C 1360.16 553.46 1360.07 550.84 1362.52 550.46
  Q 1367.01 549.75 1371.68 548.77
  C 1374.17 548.24 1375.87 546.85 1376.11 544.33
  Q 1376.26 542.67 1374.80 540.07
  Q 1369.46 530.54 1364.20 521.49
  Q 1350.05 497.15 1336.08 472.75
  A 2.46 2.46 0.0 0 1 1337.57 469.16
  Q 1340.31 468.42 1343.05 467.24
  C 1346.24 465.86 1346.06 461.81 1344.48 459.28
  Q 1344.09 458.65 1343.70 457.98
  Q 1336.94 446.33 1330.12 434.43
  Q 1329.46 433.29 1328.62 432.26
  Q 1327.76 431.20 1327.24 429.98
  Q 1326.53 428.30 1325.56 426.63
  Q 1317.68 413.02 1309.95 399.55
  Q 1309.42 398.65 1308.79 397.80
  Q 1307.98 396.72 1307.34 395.45
  Q 1306.52 393.83 1305.13 393.24
  C 1302.65 392.19 1300.52 393.26 1299.44 395.71
  Q 1298.27 398.40 1296.49 400.95
  Q 1294.76 403.42 1293.78 405.60
  Q 1292.63 408.14 1291.04 410.29
  C 1289.76 412.01 1289.03 413.67 1288.08 415.51
  Q 1287.68 416.26 1285.74 419.37
  Q 1283.99 422.19 1282.75 424.88
  C 1281.88 426.75 1280.17 428.73 1279.12 430.92
  Q 1277.60 434.10 1275.61 436.94
  Q 1274.31 438.80 1273.34 440.90
  Q 1272.41 442.94 1271.04 444.96
  Q 1269.26 447.59 1267.56 450.83
  Q 1265.76 454.25 1263.55 457.44
  A 0.88 0.86 62.7 0 0 1263.40 457.93
  Q 1263.41 458.07 1263.39 458.21
  Q 1263.35 458.46 1263.19 458.67
  Q 1260.86 461.71 1262.07 465.03
  Q 1262.71 466.79 1264.58 467.45
  Q 1267.13 468.37 1269.69 469.28
  Q 1271.45 469.92 1271.51 471.60
  C 1271.56 473.02 1269.98 474.14 1269.40 475.41
  Q 1267.97 478.56 1266.18 481.42
  Q 1264.31 484.43 1262.77 487.32
  C 1261.27 490.15 1259.31 492.63 1258.00 495.56
  Q 1257.18 497.37 1256.04 499.06
  Q 1254.51 501.31 1253.04 504.25
  Q 1251.31 507.70 1248.85 510.93
  C 1248.12 511.88 1248.11 513.26 1247.43 514.30
  Q 1245.36 517.47 1243.27 520.69
  C 1242.58 521.76 1242.66 522.81 1241.86 523.91
  Q 1239.47 527.18 1237.71 530.79
  Q 1236.53 533.21 1234.90 535.62
  Q 1233.27 538.02 1231.78 541.28
  C 1230.26 544.60 1231.76 548.06 1235.49 548.75
  Q 1240.04 549.59 1244.36 550.46
  C 1246.61 550.91 1247.43 552.66 1246.54 554.71
  C 1245.89 556.22 1244.80 557.18 1244.07 558.64
  Q 1242.32 562.11 1240.21 565.30
  Q 1238.77 567.48 1237.52 570.04
  Q 1236.32 572.48 1234.71 574.75
  Q 1233.61 576.29 1232.63 578.44
  Q 1231.75 580.37 1230.56 582.15
  Q 1228.97 584.51 1227.37 587.58
  Q 1226.22 589.77 1224.87 591.83
  Q 1223.61 593.75 1222.57 595.74
  Q 1221.50 597.76 1220.22 599.66
  Q 1218.32 602.47 1216.90 605.49
  Q 1215.60 608.27 1213.40 611.02
  C 1212.24 612.47 1212.15 614.33 1210.98 615.84
  Q 1208.67 618.82 1207.20 622.21
  Q 1206.25 624.39 1204.10 627.15
  C 1202.46 629.25 1202.05 631.74 1200.41 633.92
  Q 1198.31 636.71 1196.78 639.88
  Q 1195.30 642.94 1193.08 645.92
  Q 1190.42 649.48 1191.25 653.24
  Q 1191.58 654.77 1192.84 655.88
  Q 1193.65 656.60 1194.89 656.74
  Q 1203.32 657.66 1212.10 658.61
  Q 1214.54 658.87 1214.86 660.94
  Q 1215.07 662.32 1214.04 664.26
  Q 1211.09 669.83 1207.67 674.73
  C 1207.30 675.27 1207.23 676.25 1206.81 676.87
  Q 1204.61 680.14 1202.68 683.14
  Q 1201.95 684.28 1201.51 685.52
  C 1200.68 687.82 1198.62 689.64 1197.58 691.97
  C 1196.14 695.23 1193.94 697.87 1192.33 700.99
  Q 1190.12 705.28 1187.03 709.51
  A 0.67 0.61 -27.2 0 0 1186.90 709.86
  Q 1186.87 710.06 1186.91 710.26
  A 1.08 1.06 59.1 0 1 1186.70 711.12
  Q 1183.55 715.12 1181.54 719.39
  Q 1180.67 721.24 1179.41 722.80
  Q 1178.13 724.38 1177.28 726.18
  Q 1175.17 730.61 1172.12 734.51
  Q 1171.72 735.02 1171.65 735.67
  Q 1171.59 736.16 1171.33 736.58
  Q 1169.28 739.77 1167.23 742.95
  Q 1166.77 743.65 1165.79 745.84
  Q 1165.26 747.03 1164.38 748.21"
/>
<path stroke="#acc59e" vector-effect="non-scaling-stroke" d="
  M 1072.83 793.24
  C 1080.09 802.71 1090.80 794.50 1090.80 785.01
  Q 1090.83 627.37 1090.80 469.02
  Q 1090.80 463.65 1087.02 459.60
  C 1084.03 456.40 1079.41 455.50 1075.70 458.05
  C 1071.95 460.61 1070.00 464.74 1070.00 469.21
  Q 1070.04 625.88 1069.95 780.35
  C 1069.95 785.10 1069.72 789.17 1072.83 793.24"
/>
<path stroke="#acc59e" vector-effect="non-scaling-stroke" d="
  M 249.11 482.78
  C 251.34 480.65 254.27 478.98 256.93 477.19
  Q 259.03 475.76 261.27 474.96
  Q 263.57 474.12 265.77 473.17
  Q 266.35 472.92 266.59 473.51
  Q 268.06 477.09 268.58 480.11
  Q 269.53 485.60 269.87 486.80
  Q 271.71 493.25 273.68 499.95
  C 273.98 500.96 273.78 501.90 274.02 502.89
  Q 275.47 508.90 277.42 515.24
  C 277.92 516.85 278.10 518.63 278.50 520.22
  Q 280.51 528.14 282.67 536.66
  Q 283.11 538.39 283.46 539.71
  Q 285.67 548.16 288.25 558.39
  A 5.58 5.57 -46.0 0 1 288.29 560.90
  L 273.48 630.04
  A 0.59 0.58 -84.0 0 0 274.05 630.75
  L 309.76 630.74
  Q 310.29 630.74 310.40 630.22
  Q 313.74 614.73 317.11 598.94
  Q 317.43 597.46 317.62 595.94
  Q 317.76 594.81 318.11 593.37
  Q 321.75 578.40 325.19 560.77
  Q 325.55 558.95 327.58 555.18
  Q 327.62 555.10 327.62 555.02
  L 327.62 554.48
  Q 327.62 554.05 327.83 553.67
  Q 330.78 548.14 332.66 543.01
  Q 334.18 538.87 336.57 534.75
  C 337.36 533.39 337.36 531.79 338.09 530.36
  Q 340.35 525.92 342.23 522.01
  C 342.60 521.23 342.47 520.43 342.82 519.72
  Q 345.02 515.20 347.21 510.84
  C 347.66 509.95 347.59 509.11 347.99 508.22
  Q 349.34 505.26 350.73 502.53
  Q 352.08 499.90 353.44 496.15
  Q 354.69 492.69 356.98 488.99
  C 357.77 487.72 357.71 485.85 358.46 484.45
  Q 360.73 480.22 362.58 476.13
  C 362.94 475.33 362.97 474.33 363.37 473.55
  Q 366.94 466.61 370.12 459.35
  Q 370.40 458.72 369.71 458.72
  L 355.74 458.71
  Q 355.09 458.71 354.90 459.32
  C 354.47 460.71 354.04 462.14 353.32 463.40
  Q 351.83 466.04 351.04 468.90
  Q 350.32 471.54 349.14 473.81
  Q 347.12 477.67 345.83 481.47
  Q 344.80 484.45 343.75 486.53
  Q 342.32 489.38 341.46 491.92
  Q 340.12 495.93 338.50 499.21
  Q 336.72 502.81 335.69 505.84
  Q 334.55 509.17 332.94 512.52
  Q 331.56 515.38 330.08 519.43
  Q 328.71 523.20 326.07 528.43
  C 325.75 529.06 325.98 529.61 325.69 530.28
  Q 323.69 534.87 321.42 539.52
  Q 320.94 540.51 320.57 539.46
  Q 319.37 536.00 318.73 532.21
  Q 318.09 528.49 317.26 525.19
  Q 315.54 518.36 313.67 512.28
  Q 313.17 510.65 312.70 507.04
  C 312.18 503.08 310.72 499.09 309.83 495.21
  Q 309.78 494.99 309.60 494.84
  A 0.45 0.42 -77.8 0 1 309.44 494.57
  L 301.09 458.68
  A 1.00 0.99 -3.3 0 0 300.23 457.92
  Q 286.72 456.51 273.42 459.58
  C 270.57 460.24 267.90 461.39 265.04 462.10
  Q 264.49 462.23 264.05 462.57
  Q 263.61 462.92 263.05 462.89
  Q 262.28 462.85 261.52 463.09
  C 258.08 464.18 255.76 465.59 252.79 466.80
  Q 249.98 467.95 247.35 469.39
  Q 243.04 471.74 239.14 474.26
  Q 227.78 481.58 219.63 492.50
  C 212.03 502.68 207.87 516.00 212.14 527.99
  C 215.54 537.55 225.27 539.95 234.65 539.98
  A 0.52 0.52 0.0 0 0 235.10 539.20
  Q 233.01 535.66 232.59 532.17
  Q 230.33 513.37 237.13 498.62
  Q 240.76 490.72 249.11 482.78"
/>
<path stroke="#acc59e" vector-effect="non-scaling-stroke" d="
  M 618.95 620.86
  Q 619.05 620.85 619.12 620.92
  A 0.04 0.04 0.0 0 0 619.19 620.89
  Q 619.49 618.22 619.94 616.27
  Q 621.95 607.42 623.96 597.77
  Q 626.45 585.84 629.09 573.46
  Q 629.43 571.88 629.78 570.26
  Q 635.73 543.04 641.43 515.81
  Q 641.55 515.25 640.97 515.25
  L 608.96 515.26
  A 0.85 0.84 5.9 0 0 608.13 515.93
  Q 606.52 524.08 604.83 531.80
  Q 604.32 534.14 603.81 536.49
  Q 598.58 560.52 593.51 584.53
  Q 591.96 591.87 590.52 595.26
  Q 588.27 600.53 584.74 604.64
  Q 581.53 608.37 576.70 609.72
  Q 573.88 610.50 571.52 609.30
  C 566.43 606.70 566.78 599.07 567.83 594.08
  Q 576.64 552.29 584.35 516.05
  A 0.66 0.66 0.0 0 0 583.70 515.25
  L 551.55 515.26
  A 0.39 0.38 -83.3 0 0 551.18 515.56
  Q 543.91 549.65 536.77 583.90
  C 534.79 593.40 531.68 600.54 524.62 606.22
  Q 519.48 610.34 512.11 609.59
  C 505.50 608.91 504.45 603.10 505.50 597.75
  Q 508.55 582.24 511.88 567.23
  Q 512.45 564.64 513.09 561.80
  Q 514.80 554.19 516.70 544.52
  Q 518.60 534.86 521.73 521.20
  C 521.90 520.45 521.72 519.41 521.95 518.79
  Q 522.35 517.73 522.37 517.65
  Q 527.62 493.57 532.67 469.67
  A 0.42 0.42 0.0 0 0 532.20 469.17
  L 499.13 473.60
  A 0.79 0.78 -87.3 0 0 498.47 474.21
  Q 488.29 521.91 478.07 569.82
  Q 478.06 569.88 476.41 578.20
  Q 475.03 585.15 473.10 591.77
  C 472.79 592.86 473.04 593.73 472.57 594.75
  Q 471.06 598.07 469.17 600.91
  C 468.41 602.04 468.18 603.38 467.23 604.42
  Q 464.75 607.13 462.23 609.34
  A 6.17 6.13 22.2 0 1 458.56 610.87
  Q 455.55 611.07 451.90 611.00
  Q 450.06 610.97 448.80 609.77
  Q 446.55 607.63 445.94 605.36
  C 445.14 602.39 445.17 599.12 445.87 596.12
  Q 448.00 587.05 450.07 577.99
  Q 450.49 576.15 450.86 574.32
  Q 457.01 543.88 463.14 516.11
  Q 463.33 515.24 462.45 515.24
  L 430.66 515.26
  Q 430.04 515.26 429.91 515.87
  L 427.83 525.58
  Q 427.51 527.04 427.39 525.56
  C 427.11 522.29 426.03 519.54 423.18 517.75
  Q 419.01 515.11 414.84 514.56
  C 408.02 513.66 399.80 514.05 393.43 516.97
  Q 391.73 517.75 390.08 518.40
  Q 386.86 519.66 384.98 520.99
  Q 382.76 522.55 380.32 524.21
  Q 378.88 525.18 377.81 526.39
  Q 376.51 527.87 375.00 529.06
  Q 372.99 530.65 371.38 532.90
  Q 370.22 534.53 368.90 535.91
  Q 367.69 537.19 366.69 538.85
  Q 365.28 541.19 363.79 543.48
  Q 362.22 545.91 361.08 548.34
  Q 358.60 553.65 356.25 558.74
  Q 355.48 560.42 355.11 562.28
  Q 354.79 563.91 354.18 565.66
  Q 349.45 579.27 349.36 595.17
  C 349.30 606.20 351.80 617.11 359.64 624.71
  Q 364.77 629.69 372.90 631.44
  Q 380.43 633.07 387.60 631.27
  Q 399.26 628.36 407.60 619.34
  Q 410.98 615.70 413.92 611.67
  Q 414.35 611.09 414.54 611.79
  Q 415.40 614.98 416.31 618.39
  Q 416.99 620.97 418.24 622.87
  Q 420.15 625.77 422.19 627.28
  Q 431.89 634.45 445.12 631.27
  Q 450.34 630.01 456.31 627.22
  C 458.41 626.24 459.86 624.63 461.78 623.36
  Q 464.00 621.90 465.58 620.05
  Q 467.15 618.22 468.91 616.68
  Q 469.31 616.34 469.49 615.85
  Q 470.25 613.82 472.09 612.56
  A 0.65 0.65 0.0 0 1 473.11 613.07
  Q 473.22 616.09 474.78 618.83
  Q 476.25 621.42 478.11 624.00
  Q 479.75 626.28 482.11 627.84
  Q 489.60 632.79 498.52 632.17
  Q 518.88 630.76 531.59 614.78
  Q 532.56 613.56 533.48 612.31
  Q 534.22 611.28 534.46 612.53
  Q 536.62 624.20 545.69 628.98
  Q 555.55 634.17 566.60 631.10
  Q 569.90 630.18 573.25 628.82
  Q 576.18 627.62 578.40 626.01
  Q 582.35 623.14 585.14 620.14
  Q 585.89 619.34 585.70 620.42
  L 584.03 630.20
  A 2.33 2.32 -4.7 0 1 582.49 632.01
  Q 579.42 633.05 576.21 634.54
  Q 574.46 635.36 571.35 636.35
  C 568.23 637.34 565.69 639.51 562.76 640.89
  Q 560.97 641.73 559.36 642.96
  Q 553.18 647.65 550.15 652.26
  Q 543.59 662.21 546.75 672.96
  Q 547.89 676.85 550.25 679.86
  Q 552.80 683.11 556.43 685.00
  Q 566.55 690.24 579.85 687.81
  Q 584.20 687.01 587.51 685.40
  C 588.41 684.96 589.22 685.14 590.16 684.62
  Q 601.36 678.47 606.88 667.12
  Q 611.51 657.63 613.40 648.02
  C 613.67 646.70 613.49 645.50 613.92 644.26
  Q 614.35 643.03 614.60 641.66
  Q 615.39 637.53 616.55 633.20
  Q 616.68 632.70 617.17 632.52
  Q 621.97 630.80 626.74 628.77
  Q 631.15 626.90 634.69 623.95
  Q 635.49 623.29 636.51 622.84
  C 638.14 622.13 639.47 620.47 640.73 619.21
  Q 641.29 618.64 641.25 619.44
  Q 640.94 624.85 639.34 629.81
  A 0.71 0.71 0.0 0 0 640.01 630.73
  L 672.01 630.75
  A 0.39 0.38 -83.3 0 0 672.38 630.45
  Q 673.37 625.76 674.50 620.82
  C 674.75 619.72 674.47 618.75 674.82 617.65
  Q 675.10 616.75 675.31 615.84
  Q 680.09 594.77 684.41 573.58
  Q 684.57 572.76 684.60 571.91
  Q 684.62 571.27 684.78 570.62
  Q 686.36 564.22 687.81 557.96
  C 689.60 550.20 694.95 537.86 703.46 535.76
  C 710.51 534.02 714.04 538.92 714.27 545.30
  C 714.49 551.46 713.18 557.01 712.30 563.07
  Q 711.90 565.75 711.12 568.61
  Q 707.13 583.15 704.50 600.25
  Q 703.08 609.46 706.30 617.49
  Q 708.39 622.71 712.10 625.93
  Q 715.43 628.81 720.67 630.55
  C 733.65 634.85 747.84 630.72 757.18 620.59
  Q 758.12 619.57 757.83 620.93
  L 755.88 630.19
  A 0.46 0.46 0.0 0 0 756.33 630.75
  L 788.50 630.74
  Q 789.02 630.74 789.13 630.23
  L 800.81 574.51
  A 2.30 2.26 76.9 0 1 801.59 573.23
  Q 804.91 570.52 808.11 568.43
  C 814.29 564.40 824.76 562.49 826.14 572.93
  Q 826.74 577.49 825.93 582.05
  C 823.57 595.17 817.93 612.40 828.34 623.91
  Q 832.32 628.32 839.17 630.43
  Q 852.36 634.50 864.83 629.27
  Q 868.26 627.83 871.14 625.61
  Q 874.73 622.84 876.68 620.67
  Q 879.84 617.13 883.19 612.60
  A 0.51 0.51 0.0 0 1 884.10 612.81
  Q 884.29 613.84 884.68 614.77
  Q 888.32 623.33 896.69 628.61
  Q 897.42 629.07 898.28 629.11
  Q 898.78 629.14 899.21 629.37
  C 905.92 632.97 914.96 632.95 921.83 630.56
  Q 924.39 629.67 927.06 628.53
  Q 929.63 627.45 931.77 625.92
  Q 940.11 619.96 945.42 612.08
  Q 946.25 610.85 946.44 612.32
  C 946.89 615.69 947.94 620.12 950.18 622.79
  C 951.68 624.56 952.45 626.48 954.55 627.69
  Q 956.51 628.82 958.39 629.85
  C 965.28 633.62 975.24 632.49 982.22 629.63
  Q 983.78 628.99 985.36 628.47
  Q 987.14 627.89 988.72 626.89
  Q 994.91 623.01 998.85 618.70
  Q 1004.99 611.99 1009.97 602.42
  C 1010.46 601.47 1010.38 600.49 1010.88 599.59
  Q 1013.53 594.80 1015.34 589.72
  A 0.18 0.18 0.0 0 0 1015.18 589.48
  L 1006.04 589.42
  Q 1005.81 589.42 1005.74 589.63
  Q 1004.24 593.69 1002.87 597.91
  C 1002.06 600.41 1000.06 602.59 998.57 604.79
  Q 997.33 606.61 995.47 608.17
  Q 993.33 609.97 991.37 610.48
  Q 987.83 611.42 982.90 610.77
  C 977.91 610.11 976.99 602.17 977.67 598.47
  Q 978.65 593.13 979.65 587.67
  Q 980.64 582.23 981.90 576.89
  Q 983.35 570.73 984.86 563.98
  Q 985.24 562.29 985.75 558.98
  C 986.33 555.28 987.67 550.28 988.16 547.99
  Q 991.55 531.99 994.98 515.80
  A 0.45 0.45 0.0 0 0 994.54 515.25
  L 962.27 515.26
  Q 961.71 515.26 961.64 515.82
  Q 961.14 519.62 960.15 524.04
  Q 959.48 527.03 959.11 523.98
  C 958.41 518.25 951.46 515.09 946.36 514.52
  C 938.59 513.65 931.70 514.31 924.98 517.06
  Q 922.60 518.03 920.23 519.03
  C 917.77 520.06 916.05 521.62 913.86 522.99
  Q 911.56 524.42 909.56 526.31
  Q 903.45 532.08 898.82 538.29
  Q 897.01 540.73 895.55 543.51
  Q 894.12 546.23 892.48 548.83
  Q 891.68 550.10 891.25 551.67
  Q 890.86 553.09 890.19 554.39
  Q 887.93 558.78 886.57 563.17
  Q 885.17 567.68 883.99 572.53
  Q 881.15 584.25 881.17 596.38
  Q 881.17 596.88 880.92 597.32
  Q 877.63 602.90 875.36 605.47
  Q 871.74 609.58 865.98 610.01
  Q 855.05 610.83 855.98 600.07
  Q 856.51 593.96 859.17 582.61
  Q 861.72 571.74 858.62 562.32
  Q 856.67 556.39 851.42 551.88
  Q 847.13 548.20 841.32 547.19
  Q 834.98 546.08 828.69 547.27
  Q 827.30 547.53 828.43 546.68
  Q 829.98 545.52 831.63 544.41
  Q 831.80 544.29 831.84 544.10
  Q 831.88 543.95 831.88 543.80
  Q 831.89 543.56 832.10 543.45
  Q 836.48 541.11 840.51 537.97
  Q 841.93 536.86 844.06 535.60
  C 846.15 534.37 847.76 532.60 849.90 531.43
  Q 851.08 530.78 852.15 530.02
  Q 862.74 522.55 872.73 515.87
  Q 873.68 515.24 872.54 515.24
  L 851.00 515.27
  Q 850.40 515.27 849.96 515.69
  C 849.31 516.31 849.28 516.80 848.43 517.42
  Q 841.79 522.22 834.81 528.00
  Q 833.99 528.68 833.15 529.21
  Q 832.24 529.77 831.47 530.50
  Q 828.12 533.65 824.31 536.44
  Q 820.66 539.12 816.87 542.14
  Q 812.10 545.94 807.50 549.30
  Q 805.60 550.68 806.42 548.47
  C 807.45 545.69 807.53 542.49 808.07 540.19
  Q 809.80 532.87 811.55 525.00
  C 811.82 523.80 811.52 522.50 811.85 521.20
  Q 815.23 508.10 818.22 493.41
  Q 820.66 481.38 823.34 469.87
  Q 823.52 469.07 822.71 469.18
  L 789.85 473.58
  A 0.88 0.88 0.0 0 0 789.10 474.27
  Q 777.42 528.74 765.92 583.33
  Q 764.67 589.28 762.59 593.73
  Q 760.09 599.10 756.84 603.71
  Q 752.23 610.22 743.63 609.66
  C 738.71 609.33 735.90 605.82 735.89 600.99
  Q 735.87 594.86 737.72 587.50
  Q 741.31 573.20 744.49 559.12
  Q 745.47 554.79 745.96 550.67
  Q 746.48 546.34 746.76 541.82
  C 747.49 530.02 742.60 518.31 730.05 515.43
  Q 709.91 510.82 695.23 526.31
  Q 694.24 527.35 694.54 525.95
  L 696.70 515.77
  A 0.43 0.43 0.0 0 0 696.28 515.25
  L 664.06 515.25
  Q 663.57 515.25 663.47 515.72
  Q 661.88 522.60 660.14 531.03
  Q 655.78 552.20 651.64 571.37
  Q 650.64 575.99 649.76 580.95
  Q 648.82 586.31 647.40 590.53
  Q 646.80 592.34 646.43 593.99
  Q 646.00 595.88 645.32 597.21
  Q 642.78 602.25 640.47 606.46
  Q 639.27 608.65 633.76 614.24
  C 631.78 616.25 629.29 617.36 627.07 619.03
  Q 625.30 620.37 623.23 620.92
  Q 621.22 621.46 619.35 622.19
  A 0.43 0.43 0.0 0 1 618.79 621.65
  Q 618.92 621.30 618.88 620.94
  Q 618.87 620.86 618.95 620.86"
/>
<path stroke="#acc59e" vector-effect="non-scaling-stroke" d="
  M 598.87 764.32
  L 598.88 743.76
  Q 598.88 743.13 598.26 743.13
  L 588.00 743.10
  A 0.94 0.92 7.8 0 0 587.10 743.77
  Q 586.81 744.79 587.37 745.63
  A 1.39 1.38 -11.2 0 0 588.26 746.22
  L 591.63 746.86
  A 0.92 0.92 0.0 0 1 592.37 747.76
  L 592.42 791.10
  Q 592.42 791.86 591.67 792.02
  L 588.07 792.81
  Q 587.35 792.96 587.26 793.70
  L 587.09 795.02
  Q 587.00 795.79 587.77 795.79
  L 603.00 795.80
  Q 603.56 795.80 603.53 795.24
  L 603.41 793.32
  Q 603.37 792.76 602.81 792.72
  Q 601.01 792.59 599.49 791.94
  Q 598.84 791.66 598.84 790.96
  Q 598.85 784.68 598.90 778.83
  C 598.95 771.99 598.48 766.90 604.86 764.25
  C 609.87 762.16 615.14 763.99 615.45 770.12
  Q 615.94 779.88 615.66 791.30
  Q 615.64 791.97 614.98 792.10
  L 611.68 792.77
  A 0.46 0.45 -3.5 0 0 611.32 793.17
  L 611.18 795.21
  Q 611.14 795.79 611.72 795.79
  L 627.00 795.80
  Q 627.57 795.80 627.53 795.24
  L 627.42 793.37
  A 0.63 0.62 3.6 0 0 626.91 792.80
  L 622.82 792.05
  A 0.69 0.69 0.0 0 1 622.26 791.36
  Q 622.41 781.25 622.11 771.21
  C 621.96 766.18 620.46 760.52 615.07 759.18
  Q 606.21 756.97 599.54 764.57
  Q 598.87 765.34 598.87 764.32"
/>
<path stroke="#acc59e" vector-effect="non-scaling-stroke" d="
  M 673.3799 744.9847
  A 4.31 4.07 -50.7 0 0 667.5005 745.7421
  A 4.31 4.07 -50.7 0 0 667.9201 751.6553
  A 4.31 4.07 -50.7 0 0 673.7995 750.8979
  A 4.31 4.07 -50.7 0 0 673.3799 744.9847"
/>
<path stroke="#acc59e" vector-effect="non-scaling-stroke" d="
  M 546.93 786.99
  Q 549.33 791.68 554.55 794.29
  Q 561.10 797.56 569.03 796.06
  Q 580.34 793.93 583.04 781.01
  A 0.07 0.07 0.0 0 0 582.98 780.93
  Q 581.24 780.57 579.40 780.89
  Q 579.18 780.92 579.15 781.14
  Q 577.87 788.51 571.69 791.13
  C 568.83 792.34 564.35 792.50 561.37 791.88
  Q 557.12 791.00 553.54 785.89
  Q 552.30 784.14 552.03 782.27
  Q 551.90 781.33 551.67 780.37
  Q 549.03 769.27 551.92 759.75
  Q 555.24 748.85 566.86 750.35
  C 573.48 751.20 576.55 755.56 577.86 761.61
  Q 578.00 762.23 578.63 762.22
  L 581.19 762.14
  Q 582.01 762.12 582.01 761.31
  L 582.01 747.95
  Q 582.02 747.14 581.20 747.16
  L 578.88 747.22
  Q 578.24 747.24 578.06 747.86
  L 577.26 750.75
  Q 577.06 751.49 576.53 750.93
  Q 572.08 746.24 564.21 746.49
  Q 553.24 746.84 547.88 754.53
  Q 545.65 757.73 544.64 761.16
  Q 542.44 768.62 543.66 777.48
  Q 543.94 779.49 544.16 781.23
  Q 544.40 783.10 546.29 786.48
  Q 546.43 786.74 546.67 786.79
  A 0.36 0.35 81.6 0 1 546.93 786.99"
/>
<path stroke="#acc59e" vector-effect="non-scaling-stroke" d="
  M 729.30 762.61
  L 736.83 762.62
  Q 737.27 762.62 737.27 762.18
  L 737.32 759.69
  Q 737.32 759.30 736.94 759.30
  L 729.25 759.28
  Q 728.72 759.28 728.72 758.75
  L 728.70 750.39
  Q 728.70 750.01 728.32 750.07
  L 723.27 750.82
  Q 722.93 750.88 722.90 751.23
  L 722.20 758.78
  Q 722.15 759.33 721.60 759.41
  L 716.45 760.13
  A 0.96 0.96 0.0 0 0 715.62 761.18
  L 715.67 761.69
  Q 715.77 762.60 716.68 762.60
  L 721.89 762.61
  A 0.42 0.42 0.0 0 1 722.31 763.04
  Q 722.14 778.45 722.32 792.01
  C 722.42 799.68 731.32 795.37 735.35 794.45
  Q 736.25 794.25 736.34 793.41
  A 1.04 1.04 0.0 0 0 735.34 792.25
  L 730.29 792.12
  A 1.60 1.60 0.0 0 1 728.73 790.52
  L 728.70 763.20
  Q 728.70 762.60 729.30 762.61"
/>
<path stroke="#acc59e" vector-effect="non-scaling-stroke" d="
  M 898.50 763.42
  Q 898.39 777.58 898.56 791.47
  C 898.66 799.36 907.41 796.04 911.86 794.39
  A 1.12 1.12 0.0 0 0 912.43 793.91
  Q 912.85 793.19 912.39 792.50
  Q 912.15 792.13 911.70 792.15
  Q 909.55 792.26 907.22 792.21
  Q 905.07 792.18 905.06 789.97
  Q 904.95 776.85 905.00 763.37
  Q 905.00 762.67 905.70 762.67
  L 913.03 762.69
  Q 913.63 762.69 913.64 762.10
  L 913.67 759.99
  Q 913.68 759.30 912.99 759.30
  L 905.46 759.25
  Q 904.93 759.25 904.94 758.72
  L 905.02 750.55
  Q 905.02 750.06 904.54 750.12
  L 899.77 750.75
  Q 899.35 750.81 899.30 751.23
  L 898.52 758.55
  A 1.03 1.02 89.3 0 1 897.65 759.45
  L 892.46 760.21
  Q 891.86 760.30 891.86 760.91
  L 891.87 761.94
  Q 891.87 762.71 892.64 762.71
  L 897.77 762.69
  Q 898.50 762.69 898.50 763.42"
/>
<path stroke="#acc59e" vector-effect="non-scaling-stroke" d="
  M 643.18 767.51
  Q 642.75 768.78 642.53 767.46
  L 641.24 759.95
  Q 641.12 759.28 640.44 759.28
  L 631.81 759.28
  A 0.40 0.39 89.3 0 0 631.42 759.69
  L 631.49 761.72
  Q 631.51 762.19 631.97 762.29
  L 636.21 763.22
  A 0.49 0.48 -84.2 0 1 636.59 763.70
  L 636.59 791.26
  Q 636.59 791.88 635.99 792.00
  L 631.95 792.82
  Q 631.54 792.90 631.51 793.32
  L 631.36 795.31
  Q 631.32 795.80 631.81 795.80
  L 649.75 795.80
  Q 650.56 795.80 650.50 794.99
  L 650.40 793.54
  Q 650.36 792.95 649.78 792.87
  L 643.86 791.97
  A 0.73 0.73 0.0 0 1 643.24 791.27
  Q 642.97 781.11 643.45 775.88
  Q 643.77 772.35 645.21 768.54
  Q 646.75 764.47 650.09 762.82
  A 1.05 1.04 -6.3 0 1 651.57 764.00
  C 650.78 767.25 652.90 769.57 656.15 768.99
  C 659.50 768.39 659.52 763.82 658.20 761.53
  C 655.95 757.62 650.59 758.04 647.55 760.76
  Q 644.56 763.43 643.18 767.51"
/>
<path stroke="#acc59e" vector-effect="non-scaling-stroke" d="
  M 704.19 791.65
  Q 702.80 792.80 701.24 793.09
  C 697.85 793.72 692.64 793.51 689.69 791.16
  A 0.58 0.57 -58.5 0 1 689.53 790.46
  L 691.15 787.08
  A 2.40 2.40 0.0 0 0 690.60 784.27
  Q 688.98 782.80 686.72 783.29
  C 683.59 783.98 683.62 788.21 684.78 790.28
  Q 687.84 795.76 694.37 796.41
  Q 699.56 796.92 703.49 795.63
  Q 713.44 792.37 711.11 781.77
  C 710.80 780.39 709.68 779.12 708.46 778.45
  Q 704.03 776.05 699.36 774.31
  Q 697.83 773.74 696.21 773.51
  Q 694.19 773.23 692.39 771.57
  Q 690.34 769.69 690.63 766.95
  Q 690.99 763.68 694.40 762.12
  Q 695.83 761.48 697.61 761.55
  Q 699.24 761.61 700.79 761.67
  Q 703.01 761.77 705.25 763.99
  Q 705.65 764.39 705.20 764.73
  Q 702.24 766.99 703.72 770.08
  C 704.79 772.30 708.13 772.03 709.31 770.05
  Q 710.32 768.34 710.23 766.19
  C 709.88 757.51 694.28 756.92 689.65 761.23
  C 688.26 762.52 686.88 763.09 686.23 765.07
  Q 684.96 768.96 686.09 772.69
  Q 686.92 775.42 689.47 776.94
  Q 694.32 779.82 698.93 781.05
  Q 699.26 781.13 699.54 780.95
  Q 699.74 780.82 699.97 780.89
  C 703.22 781.95 707.83 785.41 705.98 789.36
  Q 705.36 790.69 704.19 791.65"
/>
<path stroke="#acc59e" vector-effect="non-scaling-stroke" d="
  M 773.63 765.85
  Q 772.71 761.50 769.30 759.82
  C 763.01 756.71 756.07 759.93 752.27 765.46
  A 0.49 0.49 0.0 0 1 751.38 765.28
  L 750.36 759.89
  Q 750.25 759.29 749.63 759.29
  L 741.07 759.28
  Q 740.41 759.28 740.44 759.93
  L 740.51 761.60
  Q 740.53 762.16 741.08 762.28
  L 745.00 763.16
  Q 745.66 763.31 745.66 763.99
  L 745.66 791.09
  Q 745.66 791.85 744.91 792.01
  L 740.94 792.84
  Q 740.64 792.90 740.61 793.20
  L 740.40 795.18
  Q 740.33 795.79 740.94 795.79
  L 756.02 795.81
  Q 756.77 795.81 756.77 795.05
  Q 756.78 793.99 756.44 793.06
  Q 756.32 792.74 755.99 792.71
  Q 754.21 792.56 752.81 791.94
  Q 752.15 791.65 752.17 790.92
  Q 752.37 784.26 752.17 777.31
  Q 752.00 771.42 753.28 768.72
  C 755.47 764.09 762.95 761.00 766.65 766.03
  C 767.78 767.58 768.04 770.25 768.09 772.16
  Q 768.33 781.44 768.22 791.25
  Q 768.21 791.86 767.62 792.00
  L 764.45 792.76
  Q 763.81 792.91 763.74 793.56
  L 763.57 795.01
  Q 763.49 795.78 764.26 795.78
  L 778.75 795.81
  Q 779.31 795.81 779.29 795.25
  L 779.22 793.30
  Q 779.21 792.89 778.80 792.80
  L 775.49 792.11
  Q 774.81 791.97 774.79 791.28
  Q 774.59 781.57 774.85 773.66
  Q 775.15 764.54 783.71 763.54
  Q 786.81 763.18 788.83 765.59
  C 790.74 767.88 790.75 771.99 790.75 774.94
  Q 790.75 783.41 790.75 791.30
  Q 790.75 791.89 790.18 792.03
  L 787.12 792.73
  Q 786.45 792.89 786.36 793.58
  L 786.20 794.95
  Q 786.10 795.79 786.95 795.79
  L 802.01 795.80
  Q 802.58 795.80 802.55 795.24
  L 802.43 793.11
  Q 802.42 792.92 802.24 792.89
  L 798.09 792.08
  Q 797.32 791.93 797.34 791.16
  Q 797.54 780.83 797.12 770.87
  C 796.89 765.39 795.58 759.96 789.19 758.88
  C 783.34 757.89 777.86 760.79 774.38 765.99
  Q 773.83 766.81 773.63 765.85"
/>
<path stroke="#acc59e" vector-effect="non-scaling-stroke" d="
  M 809.62 794.74
  C 814.22 798.52 821.95 795.95 825.84 792.36
  Q 827.15 791.16 828.25 789.68
  A 0.37 0.37 0.0 0 1 828.91 789.86
  C 829.15 792.53 828.45 797.16 832.94 796.49
  Q 836.36 795.97 839.15 794.81
  Q 840.22 794.36 839.95 793.16
  A 0.78 0.77 -5.3 0 0 839.22 792.56
  L 836.62 792.49
  A 2.08 2.07 0.1 0 1 834.59 790.46
  Q 834.42 782.47 834.41 775.25
  C 834.40 768.65 832.47 760.98 825.25 759.20
  C 819.36 757.76 808.23 759.66 808.25 767.81
  C 808.26 769.99 809.76 771.64 811.99 771.57
  C 815.98 771.44 816.85 767.49 814.57 764.74
  A 1.22 1.21 57.0 0 1 814.96 762.87
  Q 819.03 760.82 822.82 762.37
  C 826.86 764.02 827.54 770.50 827.64 774.25
  Q 827.66 774.82 827.10 774.92
  Q 820.54 776.11 814.03 778.32
  C 808.44 780.22 804.96 785.80 807.29 791.52
  Q 808.08 793.48 809.62 794.74"
/>
<path stroke="#acc59e" vector-effect="non-scaling-stroke" d="
  M 863.33 791.53
  C 859.99 794.71 852.38 793.20 848.86 791.23
  A 0.67 0.66 -50.9 0 1 848.75 790.15
  Q 849.93 789.12 850.49 787.63
  C 852.45 782.46 843.55 780.66 843.30 786.37
  C 843.23 788.05 843.06 790.19 844.10 791.62
  C 848.36 797.45 859.46 797.66 865.63 794.40
  C 870.96 791.59 872.88 784.59 869.12 779.95
  C 866.10 776.22 858.65 774.38 854.03 772.77
  C 850.84 771.65 849.13 768.83 850.39 765.44
  Q 851.13 763.43 853.01 762.66
  Q 858.08 760.58 863.18 762.83
  Q 865.45 763.84 863.65 765.55
  C 861.81 767.28 861.93 770.38 864.46 771.42
  C 866.88 772.40 869.34 770.71 869.49 768.17
  C 870.19 756.93 853.44 756.64 847.49 762.07
  C 843.19 766.00 843.19 774.28 848.93 777.41
  Q 853.67 780.00 859.75 781.53
  Q 862.09 782.12 863.93 783.91
  C 866.06 785.99 865.28 789.67 863.33 791.53"
/>
<path stroke="#acc59e" vector-effect="non-scaling-stroke" d="
  M 927.87 767.58
  L 926.59 760.04
  A 0.94 0.93 84.8 0 0 925.67 759.27
  L 917.32 759.29
  A 0.63 0.62 -0.9 0 0 916.69 759.93
  L 916.75 761.56
  Q 916.77 762.13 917.32 762.25
  L 921.25 763.15
  A 0.87 0.86 6.8 0 1 921.92 763.99
  L 921.93 791.22
  A 0.80 0.80 0.0 0 1 921.29 792.00
  L 917.46 792.79
  A 0.84 0.83 -3.2 0 0 916.78 793.54
  L 916.66 795.07
  A 0.67 0.67 0.0 0 0 917.33 795.79
  L 934.94 795.80
  Q 935.92 795.80 935.83 794.81
  L 935.73 793.82
  Q 935.65 792.98 934.82 792.85
  L 929.15 791.93
  Q 928.56 791.83 928.54 791.23
  Q 928.35 783.91 928.64 777.06
  C 928.81 772.93 931.02 763.30 936.07 762.83
  A 0.75 0.75 0.0 0 1 936.87 763.73
  C 935.40 770.57 944.67 771.10 944.36 764.50
  C 944.03 757.63 936.30 757.28 932.28 761.31
  Q 929.80 763.80 928.51 767.63
  Q 928.09 768.88 927.87 767.58"
/>
<path stroke="#acc59e" vector-effect="non-scaling-stroke" d="
  M 967.40 796.09
  C 971.53 795.51 974.80 792.69 977.59 789.48
  Q 978.29 788.67 977.45 788.02
  L 977.00 787.68
  A 1.36 1.35 41.1 0 0 975.21 787.80
  C 970.40 792.66 961.96 793.96 957.37 788.20
  Q 954.14 784.14 954.98 778.56
  Q 955.08 777.94 955.70 777.94
  L 977.83 777.93
  A 0.74 0.73 -87.4 0 0 978.56 777.26
  C 979.27 769.59 976.80 760.91 968.24 759.09
  C 961.59 757.68 953.93 760.02 950.87 766.11
  Q 945.95 775.93 949.54 787.30
  Q 950.64 790.79 953.25 792.90
  Q 956.37 795.42 959.71 795.94
  Q 963.88 796.59 967.40 796.09"
/>
<path stroke="#acc59e" vector-effect="non-scaling-stroke" d="
  M 1001.18 791.88
  C 994.25 791.34 991.11 784.83 991.63 778.25
  A 0.39 0.39 0.0 0 1 992.02 777.89
  L 1014.82 777.97
  A 0.46 0.45 2.7 0 0 1015.28 777.56
  C 1016.08 770.04 1013.76 761.47 1005.91 759.33
  Q 998.55 757.33 992.57 760.99
  Q 987.26 764.25 985.68 771.78
  Q 984.18 778.97 985.89 785.55
  Q 987.03 789.93 989.43 792.35
  Q 992.47 795.43 997.46 796.22
  Q 1007.83 797.88 1014.35 789.36
  Q 1015.16 788.31 1013.95 787.77
  L 1013.46 787.55
  A 1.36 1.36 0.0 0 0 1011.95 787.82
  Q 1007.32 792.35 1001.18 791.88"
/>
<path stroke="#acc59e" vector-effect="non-scaling-stroke" d="
  M 679.25 793.39
  A 0.51 0.51 0.0 0 0 678.85 792.94
  L 674.43 792.00
  A 0.51 0.51 0.0 0 1 674.02 791.50
  L 674.18 759.81
  A 0.51 0.51 0.0 0 0 673.67 759.30
  L 662.81 759.28
  A 0.51 0.51 0.0 0 0 662.30 759.82
  L 662.42 761.79
  A 0.51 0.51 0.0 0 0 662.82 762.26
  L 667.12 763.20
  A 0.51 0.51 0.0 0 1 667.52 763.70
  L 667.52 791.45
  A 0.51 0.51 0.0 0 1 667.11 791.95
  L 662.84 792.81
  A 0.51 0.51 0.0 0 0 662.44 793.27
  L 662.26 795.23
  A 0.51 0.51 0.0 0 0 662.77 795.79
  L 678.92 795.80
  A 0.51 0.51 0.0 0 0 679.43 795.24
  L 679.25 793.39"
/>
<path stroke="#acc59e" vector-effect="non-scaling-stroke" d="
  M 383.30 587.83
  Q 383.29 592.84 383.47 597.17
  Q 383.58 599.81 384.50 603.03
  Q 384.88 604.34 385.64 605.11
  Q 386.64 606.13 387.63 607.30
  Q 388.83 608.73 390.51 609.32
  Q 396.02 611.27 400.90 608.56
  Q 405.87 605.79 409.86 600.44
  Q 411.40 598.37 412.44 595.59
  Q 413.64 592.41 414.14 590.00
  Q 419.23 565.75 424.50 541.43
  C 424.97 539.27 426.27 537.10 425.30 534.90
  Q 422.00 527.47 414.14 528.43
  C 411.10 528.81 407.25 530.56 404.99 532.59
  Q 402.56 534.76 399.87 537.92
  Q 399.60 538.23 399.60 538.65
  Q 399.60 539.00 399.38 539.26
  Q 397.03 542.06 393.94 548.67
  Q 390.09 556.91 388.89 560.45
  Q 386.21 568.36 384.21 578.66
  Q 383.31 583.28 383.30 587.83"
/>
<path stroke="#acc59e" vector-effect="non-scaling-stroke" d="
  M 922.50 555.94
  Q 921.06 559.26 919.84 562.81
  C 919.51 563.78 919.67 564.61 919.36 565.61
  C 916.56 574.48 910.74 603.86 921.67 608.90
  C 926.38 611.07 931.06 610.06 935.28 607.05
  C 936.30 606.32 936.84 605.38 937.90 604.68
  Q 938.92 604.02 939.64 603.05
  C 940.56 601.81 941.70 600.98 942.34 599.51
  Q 943.36 597.18 944.53 594.98
  C 945.13 593.83 945.15 592.79 945.50 591.60
  Q 945.86 590.34 946.13 589.07
  Q 951.14 565.67 956.24 542.29
  C 956.90 539.27 958.69 536.41 956.71 533.42
  C 953.15 528.02 947.42 527.21 941.78 529.62
  Q 938.49 531.03 936.86 532.56
  Q 929.82 539.17 925.43 549.21
  Q 923.93 552.63 922.50 555.94"
/>
<path stroke="#acc59e" vector-effect="non-scaling-stroke" d="
  M 570.43 647.87
  Q 568.44 648.59 567.71 649.20
  Q 565.97 650.68 564.23 651.97
  Q 559.99 655.15 558.57 660.18
  C 557.30 664.68 559.21 667.89 562.93 670.13
  C 565.32 671.57 568.56 671.02 570.50 669.07
  Q 572.04 667.51 573.64 665.90
  C 575.04 664.48 575.37 662.44 576.11 660.98
  Q 580.19 652.93 580.93 644.38
  Q 581.01 643.40 580.06 643.61
  Q 576.27 644.47 573.14 646.52
  Q 571.88 647.35 570.43 647.87"
/>
<path stroke="#acc59e" vector-effect="non-scaling-stroke" d="
  M 823.00 777.87
  C 817.39 779.54 811.86 781.60 813.73 789.01
  C 815.04 794.22 821.31 792.88 824.35 790.26
  C 828.33 786.84 828.02 782.48 827.78 777.77
  Q 827.74 777.11 827.08 777.19
  Q 823.96 777.59 823.00 777.87"
/>
<path stroke="#acc59e" vector-effect="non-scaling-stroke" d="
  M 955.78 774.72
  L 971.46 774.72
  A 0.46 0.46 0.0 0 0 971.92 774.26
  L 971.92 772.06
  A 9.72 7.55 -90.0 0 0 964.37 762.34
  L 962.87 762.34
  A 9.72 7.55 90.0 0 0 955.32 772.06
  L 955.32 774.26
  A 0.46 0.46 0.0 0 0 955.78 774.72"
/>
<path stroke="#acc59e" vector-effect="non-scaling-stroke" d="
  M 992.53 774.71
  L 1008.17 774.73
  A 0.57 0.57 0.0 0 0 1008.74 774.16
  L 1008.74 772.62
  A 10.27 7.61 -89.9 0 0 1001.15 762.34
  L 999.59 762.34
  A 10.27 7.61 -89.9 0 0 991.96 772.60
  L 991.96 774.14
  A 0.57 0.57 0.0 0 0 992.53 774.71"
/>
</g>
<path fill="#ffffff" d="
  M 0.00 0.00
  L 1672.00 0.00
  L 1672.00 1254.00
  L 0.00 1254.00
  L 0.00 0.00
  Z
  M 1164.38 748.21
  Q 1162.29 751.02 1160.46 754.78
  C 1159.43 756.90 1157.66 758.51 1156.69 760.75
  Q 1155.78 762.85 1154.58 764.59
  Q 1152.32 767.85 1150.44 771.36
  Q 1149.61 772.92 1148.68 774.31
  C 1147.12 776.63 1144.97 779.26 1145.45 782.10
  C 1145.87 784.54 1147.91 786.32 1150.42 786.32
  Q 1217.72 786.20 1284.23 786.28
  Q 1284.75 786.28 1284.75 786.80
  L 1284.75 860.78
  A 0.29 0.29 0.0 0 0 1285.04 861.07
  L 1321.97 861.06
  A 0.28 0.28 0.0 0 0 1322.25 860.78
  L 1322.23 786.80
  A 0.57 0.57 0.0 0 1 1322.80 786.23
  Q 1388.92 786.26 1456.31 786.28
  C 1459.30 786.28 1461.79 783.99 1461.46 780.97
  Q 1461.23 778.87 1459.72 776.35
  Q 1426.61 720.96 1394.62 666.98
  C 1393.08 664.37 1389.55 659.19 1395.50 658.54
  Q 1402.99 657.72 1411.68 656.86
  C 1415.92 656.44 1417.35 651.74 1415.37 648.38
  Q 1407.96 635.74 1401.08 623.91
  C 1400.35 622.65 1399.37 621.55 1398.73 620.26
  Q 1398.07 618.92 1397.29 617.58
  Q 1385.46 597.16 1374.21 577.69
  Q 1368.54 567.87 1363.40 559.50
  Q 1362.27 557.67 1361.04 555.21
  C 1360.16 553.46 1360.07 550.84 1362.52 550.46
  Q 1367.01 549.75 1371.68 548.77
  C 1374.17 548.24 1375.87 546.85 1376.11 544.33
  Q 1376.26 542.67 1374.80 540.07
  Q 1369.46 530.54 1364.20 521.49
  Q 1350.05 497.15 1336.08 472.75
  A 2.46 2.46 0.0 0 1 1337.57 469.16
  Q 1340.31 468.42 1343.05 467.24
  C 1346.24 465.86 1346.06 461.81 1344.48 459.28
  Q 1344.09 458.65 1343.70 457.98
  Q 1336.94 446.33 1330.12 434.43
  Q 1329.46 433.29 1328.62 432.26
  Q 1327.76 431.20 1327.24 429.98
  Q 1326.53 428.30 1325.56 426.63
  Q 1317.68 413.02 1309.95 399.55
  Q 1309.42 398.65 1308.79 397.80
  Q 1307.98 396.72 1307.34 395.45
  Q 1306.52 393.83 1305.13 393.24
  C 1302.65 392.19 1300.52 393.26 1299.44 395.71
  Q 1298.27 398.40 1296.49 400.95
  Q 1294.76 403.42 1293.78 405.60
  Q 1292.63 408.14 1291.04 410.29
  C 1289.76 412.01 1289.03 413.67 1288.08 415.51
  Q 1287.68 416.26 1285.74 419.37
  Q 1283.99 422.19 1282.75 424.88
  C 1281.88 426.75 1280.17 428.73 1279.12 430.92
  Q 1277.60 434.10 1275.61 436.94
  Q 1274.31 438.80 1273.34 440.90
  Q 1272.41 442.94 1271.04 444.96
  Q 1269.26 447.59 1267.56 450.83
  Q 1265.76 454.25 1263.55 457.44
  A 0.88 0.86 62.7 0 0 1263.40 457.93
  Q 1263.41 458.07 1263.39 458.21
  Q 1263.35 458.46 1263.19 458.67
  Q 1260.86 461.71 1262.07 465.03
  Q 1262.71 466.79 1264.58 467.45
  Q 1267.13 468.37 1269.69 469.28
  Q 1271.45 469.92 1271.51 471.60
  C 1271.56 473.02 1269.98 474.14 1269.40 475.41
  Q 1267.97 478.56 1266.18 481.42
  Q 1264.31 484.43 1262.77 487.32
  C 1261.27 490.15 1259.31 492.63 1258.00 495.56
  Q 1257.18 497.37 1256.04 499.06
  Q 1254.51 501.31 1253.04 504.25
  Q 1251.31 507.70 1248.85 510.93
  C 1248.12 511.88 1248.11 513.26 1247.43 514.30
  Q 1245.36 517.47 1243.27 520.69
  C 1242.58 521.76 1242.66 522.81 1241.86 523.91
  Q 1239.47 527.18 1237.71 530.79
  Q 1236.53 533.21 1234.90 535.62
  Q 1233.27 538.02 1231.78 541.28
  C 1230.26 544.60 1231.76 548.06 1235.49 548.75
  Q 1240.04 549.59 1244.36 550.46
  C 1246.61 550.91 1247.43 552.66 1246.54 554.71
  C 1245.89 556.22 1244.80 557.18 1244.07 558.64
  Q 1242.32 562.11 1240.21 565.30
  Q 1238.77 567.48 1237.52 570.04
  Q 1236.32 572.48 1234.71 574.75
  Q 1233.61 576.29 1232.63 578.44
  Q 1231.75 580.37 1230.56 582.15
  Q 1228.97 584.51 1227.37 587.58
  Q 1226.22 589.77 1224.87 591.83
  Q 1223.61 593.75 1222.57 595.74
  Q 1221.50 597.76 1220.22 599.66
  Q 1218.32 602.47 1216.90 605.49
  Q 1215.60 608.27 1213.40 611.02
  C 1212.24 612.47 1212.15 614.33 1210.98 615.84
  Q 1208.67 618.82 1207.20 622.21
  Q 1206.25 624.39 1204.10 627.15
  C 1202.46 629.25 1202.05 631.74 1200.41 633.92
  Q 1198.31 636.71 1196.78 639.88
  Q 1195.30 642.94 1193.08 645.92
  Q 1190.42 649.48 1191.25 653.24
  Q 1191.58 654.77 1192.84 655.88
  Q 1193.65 656.60 1194.89 656.74
  Q 1203.32 657.66 1212.10 658.61
  Q 1214.54 658.87 1214.86 660.94
  Q 1215.07 662.32 1214.04 664.26
  Q 1211.09 669.83 1207.67 674.73
  C 1207.30 675.27 1207.23 676.25 1206.81 676.87
  Q 1204.61 680.14 1202.68 683.14
  Q 1201.95 684.28 1201.51 685.52
  C 1200.68 687.82 1198.62 689.64 1197.58 691.97
  C 1196.14 695.23 1193.94 697.87 1192.33 700.99
  Q 1190.12 705.28 1187.03 709.51
  A 0.67 0.61 -27.2 0 0 1186.90 709.86
  Q 1186.87 710.06 1186.91 710.26
  A 1.08 1.06 59.1 0 1 1186.70 711.12
  Q 1183.55 715.12 1181.54 719.39
  Q 1180.67 721.24 1179.41 722.80
  Q 1178.13 724.38 1177.28 726.18
  Q 1175.17 730.61 1172.12 734.51
  Q 1171.72 735.02 1171.65 735.67
  Q 1171.59 736.16 1171.33 736.58
  Q 1169.28 739.77 1167.23 742.95
  Q 1166.77 743.65 1165.79 745.84
  Q 1165.26 747.03 1164.38 748.21
  Z
  M 1072.83 793.24
  C 1080.09 802.71 1090.80 794.50 1090.80 785.01
  Q 1090.83 627.37 1090.80 469.02
  Q 1090.80 463.65 1087.02 459.60
  C 1084.03 456.40 1079.41 455.50 1075.70 458.05
  C 1071.95 460.61 1070.00 464.74 1070.00 469.21
  Q 1070.04 625.88 1069.95 780.35
  C 1069.95 785.10 1069.72 789.17 1072.83 793.24
  Z
  M 249.11 482.78
  C 251.34 480.65 254.27 478.98 256.93 477.19
  Q 259.03 475.76 261.27 474.96
  Q 263.57 474.12 265.77 473.17
  Q 266.35 472.92 266.59 473.51
  Q 268.06 477.09 268.58 480.11
  Q 269.53 485.60 269.87 486.80
  Q 271.71 493.25 273.68 499.95
  C 273.98 500.96 273.78 501.90 274.02 502.89
  Q 275.47 508.90 277.42 515.24
  C 277.92 516.85 278.10 518.63 278.50 520.22
  Q 280.51 528.14 282.67 536.66
  Q 283.11 538.39 283.46 539.71
  Q 285.67 548.16 288.25 558.39
  A 5.58 5.57 -46.0 0 1 288.29 560.90
  L 273.48 630.04
  A 0.59 0.58 -84.0 0 0 274.05 630.75
  L 309.76 630.74
  Q 310.29 630.74 310.40 630.22
  Q 313.74 614.73 317.11 598.94
  Q 317.43 597.46 317.62 595.94
  Q 317.76 594.81 318.11 593.37
  Q 321.75 578.40 325.19 560.77
  Q 325.55 558.95 327.58 555.18
  Q 327.62 555.10 327.62 555.02
  L 327.62 554.48
  Q 327.62 554.05 327.83 553.67
  Q 330.78 548.14 332.66 543.01
  Q 334.18 538.87 336.57 534.75
  C 337.36 533.39 337.36 531.79 338.09 530.36
  Q 340.35 525.92 342.23 522.01
  C 342.60 521.23 342.47 520.43 342.82 519.72
  Q 345.02 515.20 347.21 510.84
  C 347.66 509.95 347.59 509.11 347.99 508.22
  Q 349.34 505.26 350.73 502.53
  Q 352.08 499.90 353.44 496.15
  Q 354.69 492.69 356.98 488.99
  C 357.77 487.72 357.71 485.85 358.46 484.45
  Q 360.73 480.22 362.58 476.13
  C 362.94 475.33 362.97 474.33 363.37 473.55
  Q 366.94 466.61 370.12 459.35
  Q 370.40 458.72 369.71 458.72
  L 355.74 458.71
  Q 355.09 458.71 354.90 459.32
  C 354.47 460.71 354.04 462.14 353.32 463.40
  Q 351.83 466.04 351.04 468.90
  Q 350.32 471.54 349.14 473.81
  Q 347.12 477.67 345.83 481.47
  Q 344.80 484.45 343.75 486.53
  Q 342.32 489.38 341.46 491.92
  Q 340.12 495.93 338.50 499.21
  Q 336.72 502.81 335.69 505.84
  Q 334.55 509.17 332.94 512.52
  Q 331.56 515.38 330.08 519.43
  Q 328.71 523.20 326.07 528.43
  C 325.75 529.06 325.98 529.61 325.69 530.28
  Q 323.69 534.87 321.42 539.52
  Q 320.94 540.51 320.57 539.46
  Q 319.37 536.00 318.73 532.21
  Q 318.09 528.49 317.26 525.19
  Q 315.54 518.36 313.67 512.28
  Q 313.17 510.65 312.70 507.04
  C 312.18 503.08 310.72 499.09 309.83 495.21
  Q 309.78 494.99 309.60 494.84
  A 0.45 0.42 -77.8 0 1 309.44 494.57
  L 301.09 458.68
  A 1.00 0.99 -3.3 0 0 300.23 457.92
  Q 286.72 456.51 273.42 459.58
  C 270.57 460.24 267.90 461.39 265.04 462.10
  Q 264.49 462.23 264.05 462.57
  Q 263.61 462.92 263.05 462.89
  Q 262.28 462.85 261.52 463.09
  C 258.08 464.18 255.76 465.59 252.79 466.80
  Q 249.98 467.95 247.35 469.39
  Q 243.04 471.74 239.14 474.26
  Q 227.78 481.58 219.63 492.50
  C 212.03 502.68 207.87 516.00 212.14 527.99
  C 215.54 537.55 225.27 539.95 234.65 539.98
  A 0.52 0.52 0.0 0 0 235.10 539.20
  Q 233.01 535.66 232.59 532.17
  Q 230.33 513.37 237.13 498.62
  Q 240.76 490.72 249.11 482.78
  Z
  M 618.95 620.86
  Q 619.05 620.85 619.12 620.92
  A 0.04 0.04 0.0 0 0 619.19 620.89
  Q 619.49 618.22 619.94 616.27
  Q 621.95 607.42 623.96 597.77
  Q 626.45 585.84 629.09 573.46
  Q 629.43 571.88 629.78 570.26
  Q 635.73 543.04 641.43 515.81
  Q 641.55 515.25 640.97 515.25
  L 608.96 515.26
  A 0.85 0.84 5.9 0 0 608.13 515.93
  Q 606.52 524.08 604.83 531.80
  Q 604.32 534.14 603.81 536.49
  Q 598.58 560.52 593.51 584.53
  Q 591.96 591.87 590.52 595.26
  Q 588.27 600.53 584.74 604.64
  Q 581.53 608.37 576.70 609.72
  Q 573.88 610.50 571.52 609.30
  C 566.43 606.70 566.78 599.07 567.83 594.08
  Q 576.64 552.29 584.35 516.05
  A 0.66 0.66 0.0 0 0 583.70 515.25
  L 551.55 515.26
  A 0.39 0.38 -83.3 0 0 551.18 515.56
  Q 543.91 549.65 536.77 583.90
  C 534.79 593.40 531.68 600.54 524.62 606.22
  Q 519.48 610.34 512.11 609.59
  C 505.50 608.91 504.45 603.10 505.50 597.75
  Q 508.55 582.24 511.88 567.23
  Q 512.45 564.64 513.09 561.80
  Q 514.80 554.19 516.70 544.52
  Q 518.60 534.86 521.73 521.20
  C 521.90 520.45 521.72 519.41 521.95 518.79
  Q 522.35 517.73 522.37 517.65
  Q 527.62 493.57 532.67 469.67
  A 0.42 0.42 0.0 0 0 532.20 469.17
  L 499.13 473.60
  A 0.79 0.78 -87.3 0 0 498.47 474.21
  Q 488.29 521.91 478.07 569.82
  Q 478.06 569.88 476.41 578.20
  Q 475.03 585.15 473.10 591.77
  C 472.79 592.86 473.04 593.73 472.57 594.75
  Q 471.06 598.07 469.17 600.91
  C 468.41 602.04 468.18 603.38 467.23 604.42
  Q 464.75 607.13 462.23 609.34
  A 6.17 6.13 22.2 0 1 458.56 610.87
  Q 455.55 611.07 451.90 611.00
  Q 450.06 610.97 448.80 609.77
  Q 446.55 607.63 445.94 605.36
  C 445.14 602.39 445.17 599.12 445.87 596.12
  Q 448.00 587.05 450.07 577.99
  Q 450.49 576.15 450.86 574.32
  Q 457.01 543.88 463.14 516.11
  Q 463.33 515.24 462.45 515.24
  L 430.66 515.26
  Q 430.04 515.26 429.91 515.87
  L 427.83 525.58
  Q 427.51 527.04 427.39 525.56
  C 427.11 522.29 426.03 519.54 423.18 517.75
  Q 419.01 515.11 414.84 514.56
  C 408.02 513.66 399.80 514.05 393.43 516.97
  Q 391.73 517.75 390.08 518.40
  Q 386.86 519.66 384.98 520.99
  Q 382.76 522.55 380.32 524.21
  Q 378.88 525.18 377.81 526.39
  Q 376.51 527.87 375.00 529.06
  Q 372.99 530.65 371.38 532.90
  Q 370.22 534.53 368.90 535.91
  Q 367.69 537.19 366.69 538.85
  Q 365.28 541.19 363.79 543.48
  Q 362.22 545.91 361.08 548.34
  Q 358.60 553.65 356.25 558.74
  Q 355.48 560.42 355.11 562.28
  Q 354.79 563.91 354.18 565.66
  Q 349.45 579.27 349.36 595.17
  C 349.30 606.20 351.80 617.11 359.64 624.71
  Q 364.77 629.69 372.90 631.44
  Q 380.43 633.07 387.60 631.27
  Q 399.26 628.36 407.60 619.34
  Q 410.98 615.70 413.92 611.67
  Q 414.35 611.09 414.54 611.79
  Q 415.40 614.98 416.31 618.39
  Q 416.99 620.97 418.24 622.87
  Q 420.15 625.77 422.19 627.28
  Q 431.89 634.45 445.12 631.27
  Q 450.34 630.01 456.31 627.22
  C 458.41 626.24 459.86 624.63 461.78 623.36
  Q 464.00 621.90 465.58 620.05
  Q 467.15 618.22 468.91 616.68
  Q 469.31 616.34 469.49 615.85
  Q 470.25 613.82 472.09 612.56
  A 0.65 0.65 0.0 0 1 473.11 613.07
  Q 473.22 616.09 474.78 618.83
  Q 476.25 621.42 478.11 624.00
  Q 479.75 626.28 482.11 627.84
  Q 489.60 632.79 498.52 632.17
  Q 518.88 630.76 531.59 614.78
  Q 532.56 613.56 533.48 612.31
  Q 534.22 611.28 534.46 612.53
  Q 536.62 624.20 545.69 628.98
  Q 555.55 634.17 566.60 631.10
  Q 569.90 630.18 573.25 628.82
  Q 576.18 627.62 578.40 626.01
  Q 582.35 623.14 585.14 620.14
  Q 585.89 619.34 585.70 620.42
  L 584.03 630.20
  A 2.33 2.32 -4.7 0 1 582.49 632.01
  Q 579.42 633.05 576.21 634.54
  Q 574.46 635.36 571.35 636.35
  C 568.23 637.34 565.69 639.51 562.76 640.89
  Q 560.97 641.73 559.36 642.96
  Q 553.18 647.65 550.15 652.26
  Q 543.59 662.21 546.75 672.96
  Q 547.89 676.85 550.25 679.86
  Q 552.80 683.11 556.43 685.00
  Q 566.55 690.24 579.85 687.81
  Q 584.20 687.01 587.51 685.40
  C 588.41 684.96 589.22 685.14 590.16 684.62
  Q 601.36 678.47 606.88 667.12
  Q 611.51 657.63 613.40 648.02
  C 613.67 646.70 613.49 645.50 613.92 644.26
  Q 614.35 643.03 614.60 641.66
  Q 615.39 637.53 616.55 633.20
  Q 616.68 632.70 617.17 632.52
  Q 621.97 630.80 626.74 628.77
  Q 631.15 626.90 634.69 623.95
  Q 635.49 623.29 636.51 622.84
  C 638.14 622.13 639.47 620.47 640.73 619.21
  Q 641.29 618.64 641.25 619.44
  Q 640.94 624.85 639.34 629.81
  A 0.71 0.71 0.0 0 0 640.01 630.73
  L 672.01 630.75
  A 0.39 0.38 -83.3 0 0 672.38 630.45
  Q 673.37 625.76 674.50 620.82
  C 674.75 619.72 674.47 618.75 674.82 617.65
  Q 675.10 616.75 675.31 615.84
  Q 680.09 594.77 684.41 573.58
  Q 684.57 572.76 684.60 571.91
  Q 684.62 571.27 684.78 570.62
  Q 686.36 564.22 687.81 557.96
  C 689.60 550.20 694.95 537.86 703.46 535.76
  C 710.51 534.02 714.04 538.92 714.27 545.30
  C 714.49 551.46 713.18 557.01 712.30 563.07
  Q 711.90 565.75 711.12 568.61
  Q 707.13 583.15 704.50 600.25
  Q 703.08 609.46 706.30 617.49
  Q 708.39 622.71 712.10 625.93
  Q 715.43 628.81 720.67 630.55
  C 733.65 634.85 747.84 630.72 757.18 620.59
  Q 758.12 619.57 757.83 620.93
  L 755.88 630.19
  A 0.46 0.46 0.0 0 0 756.33 630.75
  L 788.50 630.74
  Q 789.02 630.74 789.13 630.23
  L 800.81 574.51
  A 2.30 2.26 76.9 0 1 801.59 573.23
  Q 804.91 570.52 808.11 568.43
  C 814.29 564.40 824.76 562.49 826.14 572.93
  Q 826.74 577.49 825.93 582.05
  C 823.57 595.17 817.93 612.40 828.34 623.91
  Q 832.32 628.32 839.17 630.43
  Q 852.36 634.50 864.83 629.27
  Q 868.26 627.83 871.14 625.61
  Q 874.73 622.84 876.68 620.67
  Q 879.84 617.13 883.19 612.60
  A 0.51 0.51 0.0 0 1 884.10 612.81
  Q 884.29 613.84 884.68 614.77
  Q 888.32 623.33 896.69 628.61
  Q 897.42 629.07 898.28 629.11
  Q 898.78 629.14 899.21 629.37
  C 905.92 632.97 914.96 632.95 921.83 630.56
  Q 924.39 629.67 927.06 628.53
  Q 929.63 627.45 931.77 625.92
  Q 940.11 619.96 945.42 612.08
  Q 946.25 610.85 946.44 612.32
  C 946.89 615.69 947.94 620.12 950.18 622.79
  C 951.68 624.56 952.45 626.48 954.55 627.69
  Q 956.51 628.82 958.39 629.85
  C 965.28 633.62 975.24 632.49 982.22 629.63
  Q 983.78 628.99 985.36 628.47
  Q 987.14 627.89 988.72 626.89
  Q 994.91 623.01 998.85 618.70
  Q 1004.99 611.99 1009.97 602.42
  C 1010.46 601.47 1010.38 600.49 1010.88 599.59
  Q 1013.53 594.80 1015.34 589.72
  A 0.18 0.18 0.0 0 0 1015.18 589.48
  L 1006.04 589.42
  Q 1005.81 589.42 1005.74 589.63
  Q 1004.24 593.69 1002.87 597.91
  C 1002.06 600.41 1000.06 602.59 998.57 604.79
  Q 997.33 606.61 995.47 608.17
  Q 993.33 609.97 991.37 610.48
  Q 987.83 611.42 982.90 610.77
  C 977.91 610.11 976.99 602.17 977.67 598.47
  Q 978.65 593.13 979.65 587.67
  Q 980.64 582.23 981.90 576.89
  Q 983.35 570.73 984.86 563.98
  Q 985.24 562.29 985.75 558.98
  C 986.33 555.28 987.67 550.28 988.16 547.99
  Q 991.55 531.99 994.98 515.80
  A 0.45 0.45 0.0 0 0 994.54 515.25
  L 962.27 515.26
  Q 961.71 515.26 961.64 515.82
  Q 961.14 519.62 960.15 524.04
  Q 959.48 527.03 959.11 523.98
  C 958.41 518.25 951.46 515.09 946.36 514.52
  C 938.59 513.65 931.70 514.31 924.98 517.06
  Q 922.60 518.03 920.23 519.03
  C 917.77 520.06 916.05 521.62 913.86 522.99
  Q 911.56 524.42 909.56 526.31
  Q 903.45 532.08 898.82 538.29
  Q 897.01 540.73 895.55 543.51
  Q 894.12 546.23 892.48 548.83
  Q 891.68 550.10 891.25 551.67
  Q 890.86 553.09 890.19 554.39
  Q 887.93 558.78 886.57 563.17
  Q 885.17 567.68 883.99 572.53
  Q 881.15 584.25 881.17 596.38
  Q 881.17 596.88 880.92 597.32
  Q 877.63 602.90 875.36 605.47
  Q 871.74 609.58 865.98 610.01
  Q 855.05 610.83 855.98 600.07
  Q 856.51 593.96 859.17 582.61
  Q 861.72 571.74 858.62 562.32
  Q 856.67 556.39 851.42 551.88
  Q 847.13 548.20 841.32 547.19
  Q 834.98 546.08 828.69 547.27
  Q 827.30 547.53 828.43 546.68
  Q 829.98 545.52 831.63 544.41
  Q 831.80 544.29 831.84 544.10
  Q 831.88 543.95 831.88 543.80
  Q 831.89 543.56 832.10 543.45
  Q 836.48 541.11 840.51 537.97
  Q 841.93 536.86 844.06 535.60
  C 846.15 534.37 847.76 532.60 849.90 531.43
  Q 851.08 530.78 852.15 530.02
  Q 862.74 522.55 872.73 515.87
  Q 873.68 515.24 872.54 515.24
  L 851.00 515.27
  Q 850.40 515.27 849.96 515.69
  C 849.31 516.31 849.28 516.80 848.43 517.42
  Q 841.79 522.22 834.81 528.00
  Q 833.99 528.68 833.15 529.21
  Q 832.24 529.77 831.47 530.50
  Q 828.12 533.65 824.31 536.44
  Q 820.66 539.12 816.87 542.14
  Q 812.10 545.94 807.50 549.30
  Q 805.60 550.68 806.42 548.47
  C 807.45 545.69 807.53 542.49 808.07 540.19
  Q 809.80 532.87 811.55 525.00
  C 811.82 523.80 811.52 522.50 811.85 521.20
  Q 815.23 508.10 818.22 493.41
  Q 820.66 481.38 823.34 469.87
  Q 823.52 469.07 822.71 469.18
  L 789.85 473.58
  A 0.88 0.88 0.0 0 0 789.10 474.27
  Q 777.42 528.74 765.92 583.33
  Q 764.67 589.28 762.59 593.73
  Q 760.09 599.10 756.84 603.71
  Q 752.23 610.22 743.63 609.66
  C 738.71 609.33 735.90 605.82 735.89 600.99
  Q 735.87 594.86 737.72 587.50
  Q 741.31 573.20 744.49 559.12
  Q 745.47 554.79 745.96 550.67
  Q 746.48 546.34 746.76 541.82
  C 747.49 530.02 742.60 518.31 730.05 515.43
  Q 709.91 510.82 695.23 526.31
  Q 694.24 527.35 694.54 525.95
  L 696.70 515.77
  A 0.43 0.43 0.0 0 0 696.28 515.25
  L 664.06 515.25
  Q 663.57 515.25 663.47 515.72
  Q 661.88 522.60 660.14 531.03
  Q 655.78 552.20 651.64 571.37
  Q 650.64 575.99 649.76 580.95
  Q 648.82 586.31 647.40 590.53
  Q 646.80 592.34 646.43 593.99
  Q 646.00 595.88 645.32 597.21
  Q 642.78 602.25 640.47 606.46
  Q 639.27 608.65 633.76 614.24
  C 631.78 616.25 629.29 617.36 627.07 619.03
  Q 625.30 620.37 623.23 620.92
  Q 621.22 621.46 619.35 622.19
  A 0.43 0.43 0.0 0 1 618.79 621.65
  Q 618.92 621.30 618.88 620.94
  Q 618.87 620.86 618.95 620.86
  Z
  M 598.87 764.32
  L 598.88 743.76
  Q 598.88 743.13 598.26 743.13
  L 588.00 743.10
  A 0.94 0.92 7.8 0 0 587.10 743.77
  Q 586.81 744.79 587.37 745.63
  A 1.39 1.38 -11.2 0 0 588.26 746.22
  L 591.63 746.86
  A 0.92 0.92 0.0 0 1 592.37 747.76
  L 592.42 791.10
  Q 592.42 791.86 591.67 792.02
  L 588.07 792.81
  Q 587.35 792.96 587.26 793.70
  L 587.09 795.02
  Q 587.00 795.79 587.77 795.79
  L 603.00 795.80
  Q 603.56 795.80 603.53 795.24
  L 603.41 793.32
  Q 603.37 792.76 602.81 792.72
  Q 601.01 792.59 599.49 791.94
  Q 598.84 791.66 598.84 790.96
  Q 598.85 784.68 598.90 778.83
  C 598.95 771.99 598.48 766.90 604.86 764.25
  C 609.87 762.16 615.14 763.99 615.45 770.12
  Q 615.94 779.88 615.66 791.30
  Q 615.64 791.97 614.98 792.10
  L 611.68 792.77
  A 0.46 0.45 -3.5 0 0 611.32 793.17
  L 611.18 795.21
  Q 611.14 795.79 611.72 795.79
  L 627.00 795.80
  Q 627.57 795.80 627.53 795.24
  L 627.42 793.37
  A 0.63 0.62 3.6 0 0 626.91 792.80
  L 622.82 792.05
  A 0.69 0.69 0.0 0 1 622.26 791.36
  Q 622.41 781.25 622.11 771.21
  C 621.96 766.18 620.46 760.52 615.07 759.18
  Q 606.21 756.97 599.54 764.57
  Q 598.87 765.34 598.87 764.32
  Z
  M 673.3799 744.9847
  A 4.31 4.07 -50.7 0 0 667.5005 745.7421
  A 4.31 4.07 -50.7 0 0 667.9201 751.6553
  A 4.31 4.07 -50.7 0 0 673.7995 750.8979
  A 4.31 4.07 -50.7 0 0 673.3799 744.9847
  Z
  M 546.93 786.99
  Q 549.33 791.68 554.55 794.29
  Q 561.10 797.56 569.03 796.06
  Q 580.34 793.93 583.04 781.01
  A 0.07 0.07 0.0 0 0 582.98 780.93
  Q 581.24 780.57 579.40 780.89
  Q 579.18 780.92 579.15 781.14
  Q 577.87 788.51 571.69 791.13
  C 568.83 792.34 564.35 792.50 561.37 791.88
  Q 557.12 791.00 553.54 785.89
  Q 552.30 784.14 552.03 782.27
  Q 551.90 781.33 551.67 780.37
  Q 549.03 769.27 551.92 759.75
  Q 555.24 748.85 566.86 750.35
  C 573.48 751.20 576.55 755.56 577.86 761.61
  Q 578.00 762.23 578.63 762.22
  L 581.19 762.14
  Q 582.01 762.12 582.01 761.31
  L 582.01 747.95
  Q 582.02 747.14 581.20 747.16
  L 578.88 747.22
  Q 578.24 747.24 578.06 747.86
  L 577.26 750.75
  Q 577.06 751.49 576.53 750.93
  Q 572.08 746.24 564.21 746.49
  Q 553.24 746.84 547.88 754.53
  Q 545.65 757.73 544.64 761.16
  Q 542.44 768.62 543.66 777.48
  Q 543.94 779.49 544.16 781.23
  Q 544.40 783.10 546.29 786.48
  Q 546.43 786.74 546.67 786.79
  A 0.36 0.35 81.6 0 1 546.93 786.99
  Z
  M 729.30 762.61
  L 736.83 762.62
  Q 737.27 762.62 737.27 762.18
  L 737.32 759.69
  Q 737.32 759.30 736.94 759.30
  L 729.25 759.28
  Q 728.72 759.28 728.72 758.75
  L 728.70 750.39
  Q 728.70 750.01 728.32 750.07
  L 723.27 750.82
  Q 722.93 750.88 722.90 751.23
  L 722.20 758.78
  Q 722.15 759.33 721.60 759.41
  L 716.45 760.13
  A 0.96 0.96 0.0 0 0 715.62 761.18
  L 715.67 761.69
  Q 715.77 762.60 716.68 762.60
  L 721.89 762.61
  A 0.42 0.42 0.0 0 1 722.31 763.04
  Q 722.14 778.45 722.32 792.01
  C 722.42 799.68 731.32 795.37 735.35 794.45
  Q 736.25 794.25 736.34 793.41
  A 1.04 1.04 0.0 0 0 735.34 792.25
  L 730.29 792.12
  A 1.60 1.60 0.0 0 1 728.73 790.52
  L 728.70 763.20
  Q 728.70 762.60 729.30 762.61
  Z
  M 898.50 763.42
  Q 898.39 777.58 898.56 791.47
  C 898.66 799.36 907.41 796.04 911.86 794.39
  A 1.12 1.12 0.0 0 0 912.43 793.91
  Q 912.85 793.19 912.39 792.50
  Q 912.15 792.13 911.70 792.15
  Q 909.55 792.26 907.22 792.21
  Q 905.07 792.18 905.06 789.97
  Q 904.95 776.85 905.00 763.37
  Q 905.00 762.67 905.70 762.67
  L 913.03 762.69
  Q 913.63 762.69 913.64 762.10
  L 913.67 759.99
  Q 913.68 759.30 912.99 759.30
  L 905.46 759.25
  Q 904.93 759.25 904.94 758.72
  L 905.02 750.55
  Q 905.02 750.06 904.54 750.12
  L 899.77 750.75
  Q 899.35 750.81 899.30 751.23
  L 898.52 758.55
  A 1.03 1.02 89.3 0 1 897.65 759.45
  L 892.46 760.21
  Q 891.86 760.30 891.86 760.91
  L 891.87 761.94
  Q 891.87 762.71 892.64 762.71
  L 897.77 762.69
  Q 898.50 762.69 898.50 763.42
  Z
  M 643.18 767.51
  Q 642.75 768.78 642.53 767.46
  L 641.24 759.95
  Q 641.12 759.28 640.44 759.28
  L 631.81 759.28
  A 0.40 0.39 89.3 0 0 631.42 759.69
  L 631.49 761.72
  Q 631.51 762.19 631.97 762.29
  L 636.21 763.22
  A 0.49 0.48 -84.2 0 1 636.59 763.70
  L 636.59 791.26
  Q 636.59 791.88 635.99 792.00
  L 631.95 792.82
  Q 631.54 792.90 631.51 793.32
  L 631.36 795.31
  Q 631.32 795.80 631.81 795.80
  L 649.75 795.80
  Q 650.56 795.80 650.50 794.99
  L 650.40 793.54
  Q 650.36 792.95 649.78 792.87
  L 643.86 791.97
  A 0.73 0.73 0.0 0 1 643.24 791.27
  Q 642.97 781.11 643.45 775.88
  Q 643.77 772.35 645.21 768.54
  Q 646.75 764.47 650.09 762.82
  A 1.05 1.04 -6.3 0 1 651.57 764.00
  C 650.78 767.25 652.90 769.57 656.15 768.99
  C 659.50 768.39 659.52 763.82 658.20 761.53
  C 655.95 757.62 650.59 758.04 647.55 760.76
  Q 644.56 763.43 643.18 767.51
  Z
  M 704.19 791.65
  Q 702.80 792.80 701.24 793.09
  C 697.85 793.72 692.64 793.51 689.69 791.16
  A 0.58 0.57 -58.5 0 1 689.53 790.46
  L 691.15 787.08
  A 2.40 2.40 0.0 0 0 690.60 784.27
  Q 688.98 782.80 686.72 783.29
  C 683.59 783.98 683.62 788.21 684.78 790.28
  Q 687.84 795.76 694.37 796.41
  Q 699.56 796.92 703.49 795.63
  Q 713.44 792.37 711.11 781.77
  C 710.80 780.39 709.68 779.12 708.46 778.45
  Q 704.03 776.05 699.36 774.31
  Q 697.83 773.74 696.21 773.51
  Q 694.19 773.23 692.39 771.57
  Q 690.34 769.69 690.63 766.95
  Q 690.99 763.68 694.40 762.12
  Q 695.83 761.48 697.61 761.55
  Q 699.24 761.61 700.79 761.67
  Q 703.01 761.77 705.25 763.99
  Q 705.65 764.39 705.20 764.73
  Q 702.24 766.99 703.72 770.08
  C 704.79 772.30 708.13 772.03 709.31 770.05
  Q 710.32 768.34 710.23 766.19
  C 709.88 757.51 694.28 756.92 689.65 761.23
  C 688.26 762.52 686.88 763.09 686.23 765.07
  Q 684.96 768.96 686.09 772.69
  Q 686.92 775.42 689.47 776.94
  Q 694.32 779.82 698.93 781.05
  Q 699.26 781.13 699.54 780.95
  Q 699.74 780.82 699.97 780.89
  C 703.22 781.95 707.83 785.41 705.98 789.36
  Q 705.36 790.69 704.19 791.65
  Z
  M 773.63 765.85
  Q 772.71 761.50 769.30 759.82
  C 763.01 756.71 756.07 759.93 752.27 765.46
  A 0.49 0.49 0.0 0 1 751.38 765.28
  L 750.36 759.89
  Q 750.25 759.29 749.63 759.29
  L 741.07 759.28
  Q 740.41 759.28 740.44 759.93
  L 740.51 761.60
  Q 740.53 762.16 741.08 762.28
  L 745.00 763.16
  Q 745.66 763.31 745.66 763.99
  L 745.66 791.09
  Q 745.66 791.85 744.91 792.01
  L 740.94 792.84
  Q 740.64 792.90 740.61 793.20
  L 740.40 795.18
  Q 740.33 795.79 740.94 795.79
  L 756.02 795.81
  Q 756.77 795.81 756.77 795.05
  Q 756.78 793.99 756.44 793.06
  Q 756.32 792.74 755.99 792.71
  Q 754.21 792.56 752.81 791.94
  Q 752.15 791.65 752.17 790.92
  Q 752.37 784.26 752.17 777.31
  Q 752.00 771.42 753.28 768.72
  C 755.47 764.09 762.95 761.00 766.65 766.03
  C 767.78 767.58 768.04 770.25 768.09 772.16
  Q 768.33 781.44 768.22 791.25
  Q 768.21 791.86 767.62 792.00
  L 764.45 792.76
  Q 763.81 792.91 763.74 793.56
  L 763.57 795.01
  Q 763.49 795.78 764.26 795.78
  L 778.75 795.81
  Q 779.31 795.81 779.29 795.25
  L 779.22 793.30
  Q 779.21 792.89 778.80 792.80
  L 775.49 792.11
  Q 774.81 791.97 774.79 791.28
  Q 774.59 781.57 774.85 773.66
  Q 775.15 764.54 783.71 763.54
  Q 786.81 763.18 788.83 765.59
  C 790.74 767.88 790.75 771.99 790.75 774.94
  Q 790.75 783.41 790.75 791.30
  Q 790.75 791.89 790.18 792.03
  L 787.12 792.73
  Q 786.45 792.89 786.36 793.58
  L 786.20 794.95
  Q 786.10 795.79 786.95 795.79
  L 802.01 795.80
  Q 802.58 795.80 802.55 795.24
  L 802.43 793.11
  Q 802.42 792.92 802.24 792.89
  L 798.09 792.08
  Q 797.32 791.93 797.34 791.16
  Q 797.54 780.83 797.12 770.87
  C 796.89 765.39 795.58 759.96 789.19 758.88
  C 783.34 757.89 777.86 760.79 774.38 765.99
  Q 773.83 766.81 773.63 765.85
  Z
  M 809.62 794.74
  C 814.22 798.52 821.95 795.95 825.84 792.36
  Q 827.15 791.16 828.25 789.68
  A 0.37 0.37 0.0 0 1 828.91 789.86
  C 829.15 792.53 828.45 797.16 832.94 796.49
  Q 836.36 795.97 839.15 794.81
  Q 840.22 794.36 839.95 793.16
  A 0.78 0.77 -5.3 0 0 839.22 792.56
  L 836.62 792.49
  A 2.08 2.07 0.1 0 1 834.59 790.46
  Q 834.42 782.47 834.41 775.25
  C 834.40 768.65 832.47 760.98 825.25 759.20
  C 819.36 757.76 808.23 759.66 808.25 767.81
  C 808.26 769.99 809.76 771.64 811.99 771.57
  C 815.98 771.44 816.85 767.49 814.57 764.74
  A 1.22 1.21 57.0 0 1 814.96 762.87
  Q 819.03 760.82 822.82 762.37
  C 826.86 764.02 827.54 770.50 827.64 774.25
  Q 827.66 774.82 827.10 774.92
  Q 820.54 776.11 814.03 778.32
  C 808.44 780.22 804.96 785.80 807.29 791.52
  Q 808.08 793.48 809.62 794.74
  Z
  M 863.33 791.53
  C 859.99 794.71 852.38 793.20 848.86 791.23
  A 0.67 0.66 -50.9 0 1 848.75 790.15
  Q 849.93 789.12 850.49 787.63
  C 852.45 782.46 843.55 780.66 843.30 786.37
  C 843.23 788.05 843.06 790.19 844.10 791.62
  C 848.36 797.45 859.46 797.66 865.63 794.40
  C 870.96 791.59 872.88 784.59 869.12 779.95
  C 866.10 776.22 858.65 774.38 854.03 772.77
  C 850.84 771.65 849.13 768.83 850.39 765.44
  Q 851.13 763.43 853.01 762.66
  Q 858.08 760.58 863.18 762.83
  Q 865.45 763.84 863.65 765.55
  C 861.81 767.28 861.93 770.38 864.46 771.42
  C 866.88 772.40 869.34 770.71 869.49 768.17
  C 870.19 756.93 853.44 756.64 847.49 762.07
  C 843.19 766.00 843.19 774.28 848.93 777.41
  Q 853.67 780.00 859.75 781.53
  Q 862.09 782.12 863.93 783.91
  C 866.06 785.99 865.28 789.67 863.33 791.53
  Z
  M 927.87 767.58
  L 926.59 760.04
  A 0.94 0.93 84.8 0 0 925.67 759.27
  L 917.32 759.29
  A 0.63 0.62 -0.9 0 0 916.69 759.93
  L 916.75 761.56
  Q 916.77 762.13 917.32 762.25
  L 921.25 763.15
  A 0.87 0.86 6.8 0 1 921.92 763.99
  L 921.93 791.22
  A 0.80 0.80 0.0 0 1 921.29 792.00
  L 917.46 792.79
  A 0.84 0.83 -3.2 0 0 916.78 793.54
  L 916.66 795.07
  A 0.67 0.67 0.0 0 0 917.33 795.79
  L 934.94 795.80
  Q 935.92 795.80 935.83 794.81
  L 935.73 793.82
  Q 935.65 792.98 934.82 792.85
  L 929.15 791.93
  Q 928.56 791.83 928.54 791.23
  Q 928.35 783.91 928.64 777.06
  C 928.81 772.93 931.02 763.30 936.07 762.83
  A 0.75 0.75 0.0 0 1 936.87 763.73
  C 935.40 770.57 944.67 771.10 944.36 764.50
  C 944.03 757.63 936.30 757.28 932.28 761.31
  Q 929.80 763.80 928.51 767.63
  Q 928.09 768.88 927.87 767.58
  Z
  M 967.40 796.09
  C 971.53 795.51 974.80 792.69 977.59 789.48
  Q 978.29 788.67 977.45 788.02
  L 977.00 787.68
  A 1.36 1.35 41.1 0 0 975.21 787.80
  C 970.40 792.66 961.96 793.96 957.37 788.20
  Q 954.14 784.14 954.98 778.56
  Q 955.08 777.94 955.70 777.94
  L 977.83 777.93
  A 0.74 0.73 -87.4 0 0 978.56 777.26
  C 979.27 769.59 976.80 760.91 968.24 759.09
  C 961.59 757.68 953.93 760.02 950.87 766.11
  Q 945.95 775.93 949.54 787.30
  Q 950.64 790.79 953.25 792.90
  Q 956.37 795.42 959.71 795.94
  Q 963.88 796.59 967.40 796.09
  Z
  M 1001.18 791.88
  C 994.25 791.34 991.11 784.83 991.63 778.25
  A 0.39 0.39 0.0 0 1 992.02 777.89
  L 1014.82 777.97
  A 0.46 0.45 2.7 0 0 1015.28 777.56
  C 1016.08 770.04 1013.76 761.47 1005.91 759.33
  Q 998.55 757.33 992.57 760.99
  Q 987.26 764.25 985.68 771.78
  Q 984.18 778.97 985.89 785.55
  Q 987.03 789.93 989.43 792.35
  Q 992.47 795.43 997.46 796.22
  Q 1007.83 797.88 1014.35 789.36
  Q 1015.16 788.31 1013.95 787.77
  L 1013.46 787.55
  A 1.36 1.36 0.0 0 0 1011.95 787.82
  Q 1007.32 792.35 1001.18 791.88
  Z
  M 679.25 793.39
  A 0.51 0.51 0.0 0 0 678.85 792.94
  L 674.43 792.00
  A 0.51 0.51 0.0 0 1 674.02 791.50
  L 674.18 759.81
  A 0.51 0.51 0.0 0 0 673.67 759.30
  L 662.81 759.28
  A 0.51 0.51 0.0 0 0 662.30 759.82
  L 662.42 761.79
  A 0.51 0.51 0.0 0 0 662.82 762.26
  L 667.12 763.20
  A 0.51 0.51 0.0 0 1 667.52 763.70
  L 667.52 791.45
  A 0.51 0.51 0.0 0 1 667.11 791.95
  L 662.84 792.81
  A 0.51 0.51 0.0 0 0 662.44 793.27
  L 662.26 795.23
  A 0.51 0.51 0.0 0 0 662.77 795.79
  L 678.92 795.80
  A 0.51 0.51 0.0 0 0 679.43 795.24
  L 679.25 793.39
  Z"
/>
<path fill="#588a3d" d="
  M 1164.38 748.21
  Q 1165.26 747.03 1165.79 745.84
  Q 1166.77 743.65 1167.23 742.95
  Q 1169.28 739.77 1171.33 736.58
  Q 1171.59 736.16 1171.65 735.67
  Q 1171.72 735.02 1172.12 734.51
  Q 1175.17 730.61 1177.28 726.18
  Q 1178.13 724.38 1179.41 722.80
  Q 1180.67 721.24 1181.54 719.39
  Q 1183.55 715.12 1186.70 711.12
  A 1.08 1.06 59.1 0 0 1186.91 710.26
  Q 1186.87 710.06 1186.90 709.86
  A 0.67 0.61 -27.2 0 1 1187.03 709.51
  Q 1190.12 705.28 1192.33 700.99
  C 1193.94 697.87 1196.14 695.23 1197.58 691.97
  C 1198.62 689.64 1200.68 687.82 1201.51 685.52
  Q 1201.95 684.28 1202.68 683.14
  Q 1204.61 680.14 1206.81 676.87
  C 1207.23 676.25 1207.30 675.27 1207.67 674.73
  Q 1211.09 669.83 1214.04 664.26
  Q 1215.07 662.32 1214.86 660.94
  Q 1214.54 658.87 1212.10 658.61
  Q 1203.32 657.66 1194.89 656.74
  Q 1193.65 656.60 1192.84 655.88
  Q 1191.58 654.77 1191.25 653.24
  Q 1190.42 649.48 1193.08 645.92
  Q 1195.30 642.94 1196.78 639.88
  Q 1198.31 636.71 1200.41 633.92
  C 1202.05 631.74 1202.46 629.25 1204.10 627.15
  Q 1206.25 624.39 1207.20 622.21
  Q 1208.67 618.82 1210.98 615.84
  C 1212.15 614.33 1212.24 612.47 1213.40 611.02
  Q 1215.60 608.27 1216.90 605.49
  Q 1218.32 602.47 1220.22 599.66
  Q 1221.50 597.76 1222.57 595.74
  Q 1223.61 593.75 1224.87 591.83
  Q 1226.22 589.77 1227.37 587.58
  Q 1228.97 584.51 1230.56 582.15
  Q 1231.75 580.37 1232.63 578.44
  Q 1233.61 576.29 1234.71 574.75
  Q 1236.32 572.48 1237.52 570.04
  Q 1238.77 567.48 1240.21 565.30
  Q 1242.32 562.11 1244.07 558.64
  C 1244.80 557.18 1245.89 556.22 1246.54 554.71
  C 1247.43 552.66 1246.61 550.91 1244.36 550.46
  Q 1240.04 549.59 1235.49 548.75
  C 1231.76 548.06 1230.26 544.60 1231.78 541.28
  Q 1233.27 538.02 1234.90 535.62
  Q 1236.53 533.21 1237.71 530.79
  Q 1239.47 527.18 1241.86 523.91
  C 1242.66 522.81 1242.58 521.76 1243.27 520.69
  Q 1245.36 517.47 1247.43 514.30
  C 1248.11 513.26 1248.12 511.88 1248.85 510.93
  Q 1251.31 507.70 1253.04 504.25
  Q 1254.51 501.31 1256.04 499.06
  Q 1257.18 497.37 1258.00 495.56
  C 1259.31 492.63 1261.27 490.15 1262.77 487.32
  Q 1264.31 484.43 1266.18 481.42
  Q 1267.97 478.56 1269.40 475.41
  C 1269.98 474.14 1271.56 473.02 1271.51 471.60
  Q 1271.45 469.92 1269.69 469.28
  Q 1267.13 468.37 1264.58 467.45
  Q 1262.71 466.79 1262.07 465.03
  Q 1260.86 461.71 1263.19 458.67
  Q 1263.35 458.46 1263.39 458.21
  Q 1263.41 458.07 1263.40 457.93
  A 0.88 0.86 62.7 0 1 1263.55 457.44
  Q 1265.76 454.25 1267.56 450.83
  Q 1269.26 447.59 1271.04 444.96
  Q 1272.41 442.94 1273.34 440.90
  Q 1274.31 438.80 1275.61 436.94
  Q 1277.60 434.10 1279.12 430.92
  C 1280.17 428.73 1281.88 426.75 1282.75 424.88
  Q 1283.99 422.19 1285.74 419.37
  Q 1287.68 416.26 1288.08 415.51
  C 1289.03 413.67 1289.76 412.01 1291.04 410.29
  Q 1292.63 408.14 1293.78 405.60
  Q 1294.76 403.42 1296.49 400.95
  Q 1298.27 398.40 1299.44 395.71
  C 1300.52 393.26 1302.65 392.19 1305.13 393.24
  Q 1306.52 393.83 1307.34 395.45
  Q 1307.98 396.72 1308.79 397.80
  Q 1309.42 398.65 1309.95 399.55
  Q 1317.68 413.02 1325.56 426.63
  Q 1326.53 428.30 1327.24 429.98
  Q 1327.76 431.20 1328.62 432.26
  Q 1329.46 433.29 1330.12 434.43
  Q 1336.94 446.33 1343.70 457.98
  Q 1344.09 458.65 1344.48 459.28
  C 1346.06 461.81 1346.24 465.86 1343.05 467.24
  Q 1340.31 468.42 1337.57 469.16
  A 2.46 2.46 0.0 0 0 1336.08 472.75
  Q 1350.05 497.15 1364.20 521.49
  Q 1369.46 530.54 1374.80 540.07
  Q 1376.26 542.67 1376.11 544.33
  C 1375.87 546.85 1374.17 548.24 1371.68 548.77
  Q 1367.01 549.75 1362.52 550.46
  C 1360.07 550.84 1360.16 553.46 1361.04 555.21
  Q 1362.27 557.67 1363.40 559.50
  Q 1368.54 567.87 1374.21 577.69
  Q 1385.46 597.16 1397.29 617.58
  Q 1398.07 618.92 1398.73 620.26
  C 1399.37 621.55 1400.35 622.65 1401.08 623.91
  Q 1407.96 635.74 1415.37 648.38
  C 1417.35 651.74 1415.92 656.44 1411.68 656.86
  Q 1402.99 657.72 1395.50 658.54
  C 1389.55 659.19 1393.08 664.37 1394.62 666.98
  Q 1426.61 720.96 1459.72 776.35
  Q 1461.23 778.87 1461.46 780.97
  C 1461.79 783.99 1459.30 786.28 1456.31 786.28
  Q 1388.92 786.26 1322.80 786.23
  A 0.57 0.57 0.0 0 0 1322.23 786.80
  L 1322.25 860.78
  A 0.28 0.28 0.0 0 1 1321.97 861.06
  L 1285.04 861.07
  A 0.29 0.29 0.0 0 1 1284.75 860.78
  L 1284.75 786.80
  Q 1284.75 786.28 1284.23 786.28
  Q 1217.72 786.20 1150.42 786.32
  C 1147.91 786.32 1145.87 784.54 1145.45 782.10
  C 1144.97 779.26 1147.12 776.63 1148.68 774.31
  Q 1149.61 772.92 1150.44 771.36
  Q 1152.32 767.85 1154.58 764.59
  Q 1155.78 762.85 1156.69 760.75
  C 1157.66 758.51 1159.43 756.90 1160.46 754.78
  Q 1162.29 751.02 1164.38 748.21
  Z"
/>
<path fill="#588a3d" d="
  M 1072.83 793.24
  C 1069.72 789.17 1069.95 785.10 1069.95 780.35
  Q 1070.04 625.88 1070.00 469.21
  C 1070.00 464.74 1071.95 460.61 1075.70 458.05
  C 1079.41 455.50 1084.03 456.40 1087.02 459.60
  Q 1090.80 463.65 1090.80 469.02
  Q 1090.83 627.37 1090.80 785.01
  C 1090.80 794.50 1080.09 802.71 1072.83 793.24
  Z"
/>
<path fill="#588a3d" d="
  M 249.11 482.78
  Q 240.76 490.72 237.13 498.62
  Q 230.33 513.37 232.59 532.17
  Q 233.01 535.66 235.10 539.20
  A 0.52 0.52 0.0 0 1 234.65 539.98
  C 225.27 539.95 215.54 537.55 212.14 527.99
  C 207.87 516.00 212.03 502.68 219.63 492.50
  Q 227.78 481.58 239.14 474.26
  Q 243.04 471.74 247.35 469.39
  Q 249.98 467.95 252.79 466.80
  C 255.76 465.59 258.08 464.18 261.52 463.09
  Q 262.28 462.85 263.05 462.89
  Q 263.61 462.92 264.05 462.57
  Q 264.49 462.23 265.04 462.10
  C 267.90 461.39 270.57 460.24 273.42 459.58
  Q 286.72 456.51 300.23 457.92
  A 1.00 0.99 -3.3 0 1 301.09 458.68
  L 309.44 494.57
  A 0.45 0.42 -77.8 0 0 309.60 494.84
  Q 309.78 494.99 309.83 495.21
  C 310.72 499.09 312.18 503.08 312.70 507.04
  Q 313.17 510.65 313.67 512.28
  Q 315.54 518.36 317.26 525.19
  Q 318.09 528.49 318.73 532.21
  Q 319.37 536.00 320.57 539.46
  Q 320.94 540.51 321.42 539.52
  Q 323.69 534.87 325.69 530.28
  C 325.98 529.61 325.75 529.06 326.07 528.43
  Q 328.71 523.20 330.08 519.43
  Q 331.56 515.38 332.94 512.52
  Q 334.55 509.17 335.69 505.84
  Q 336.72 502.81 338.50 499.21
  Q 340.12 495.93 341.46 491.92
  Q 342.32 489.38 343.75 486.53
  Q 344.80 484.45 345.83 481.47
  Q 347.12 477.67 349.14 473.81
  Q 350.32 471.54 351.04 468.90
  Q 351.83 466.04 353.32 463.40
  C 354.04 462.14 354.47 460.71 354.90 459.32
  Q 355.09 458.71 355.74 458.71
  L 369.71 458.72
  Q 370.40 458.72 370.12 459.35
  Q 366.94 466.61 363.37 473.55
  C 362.97 474.33 362.94 475.33 362.58 476.13
  Q 360.73 480.22 358.46 484.45
  C 357.71 485.85 357.77 487.72 356.98 488.99
  Q 354.69 492.69 353.44 496.15
  Q 352.08 499.90 350.73 502.53
  Q 349.34 505.26 347.99 508.22
  C 347.59 509.11 347.66 509.95 347.21 510.84
  Q 345.02 515.20 342.82 519.72
  C 342.47 520.43 342.60 521.23 342.23 522.01
  Q 340.35 525.92 338.09 530.36
  C 337.36 531.79 337.36 533.39 336.57 534.75
  Q 334.18 538.87 332.66 543.01
  Q 330.78 548.14 327.83 553.67
  Q 327.62 554.05 327.62 554.48
  L 327.62 555.02
  Q 327.62 555.10 327.58 555.18
  Q 325.55 558.95 325.19 560.77
  Q 321.75 578.40 318.11 593.37
  Q 317.76 594.81 317.62 595.94
  Q 317.43 597.46 317.11 598.94
  Q 313.74 614.73 310.40 630.22
  Q 310.29 630.74 309.76 630.74
  L 274.05 630.75
  A 0.59 0.58 -84.0 0 1 273.48 630.04
  L 288.29 560.90
  A 5.58 5.57 -46.0 0 0 288.25 558.39
  Q 285.67 548.16 283.46 539.71
  Q 283.11 538.39 282.67 536.66
  Q 280.51 528.14 278.50 520.22
  C 278.10 518.63 277.92 516.85 277.42 515.24
  Q 275.47 508.90 274.02 502.89
  C 273.78 501.90 273.98 500.96 273.68 499.95
  Q 271.71 493.25 269.87 486.80
  Q 269.53 485.60 268.58 480.11
  Q 268.06 477.09 266.59 473.51
  Q 266.35 472.92 265.77 473.17
  Q 263.57 474.12 261.27 474.96
  Q 259.03 475.76 256.93 477.19
  C 254.27 478.98 251.34 480.65 249.11 482.78
  Z"
/>
<path fill="#588a3d" d="
  M 618.88 620.94
  Q 618.92 621.30 618.79 621.65
  A 0.43 0.43 0.0 0 0 619.35 622.19
  Q 621.22 621.46 623.23 620.92
  Q 625.30 620.37 627.07 619.03
  C 629.29 617.36 631.78 616.25 633.76 614.24
  Q 639.27 608.65 640.47 606.46
  Q 642.78 602.25 645.32 597.21
  Q 646.00 595.88 646.43 593.99
  Q 646.80 592.34 647.40 590.53
  Q 648.82 586.31 649.76 580.95
  Q 650.64 575.99 651.64 571.37
  Q 655.78 552.20 660.14 531.03
  Q 661.88 522.60 663.47 515.72
  Q 663.57 515.25 664.06 515.25
  L 696.28 515.25
  A 0.43 0.43 0.0 0 1 696.70 515.77
  L 694.54 525.95
  Q 694.24 527.35 695.23 526.31
  Q 709.91 510.82 730.05 515.43
  C 742.60 518.31 747.49 530.02 746.76 541.82
  Q 746.48 546.34 745.96 550.67
  Q 745.47 554.79 744.49 559.12
  Q 741.31 573.20 737.72 587.50
  Q 735.87 594.86 735.89 600.99
  C 735.90 605.82 738.71 609.33 743.63 609.66
  Q 752.23 610.22 756.84 603.71
  Q 760.09 599.10 762.59 593.73
  Q 764.67 589.28 765.92 583.33
  Q 777.42 528.74 789.10 474.27
  A 0.88 0.88 0.0 0 1 789.85 473.58
  L 822.71 469.18
  Q 823.52 469.07 823.34 469.87
  Q 820.66 481.38 818.22 493.41
  Q 815.23 508.10 811.85 521.20
  C 811.52 522.50 811.82 523.80 811.55 525.00
  Q 809.80 532.87 808.07 540.19
  C 807.53 542.49 807.45 545.69 806.42 548.47
  Q 805.60 550.68 807.50 549.30
  Q 812.10 545.94 816.87 542.14
  Q 820.66 539.12 824.31 536.44
  Q 828.12 533.65 831.47 530.50
  Q 832.24 529.77 833.15 529.21
  Q 833.99 528.68 834.81 528.00
  Q 841.79 522.22 848.43 517.42
  C 849.28 516.80 849.31 516.31 849.96 515.69
  Q 850.40 515.27 851.00 515.27
  L 872.54 515.24
  Q 873.68 515.24 872.73 515.87
  Q 862.74 522.55 852.15 530.02
  Q 851.08 530.78 849.90 531.43
  C 847.76 532.60 846.15 534.37 844.06 535.60
  Q 841.93 536.86 840.51 537.97
  Q 836.48 541.11 832.10 543.45
  Q 831.89 543.56 831.88 543.80
  Q 831.88 543.95 831.84 544.10
  Q 831.80 544.29 831.63 544.41
  Q 829.98 545.52 828.43 546.68
  Q 827.30 547.53 828.69 547.27
  Q 834.98 546.08 841.32 547.19
  Q 847.13 548.20 851.42 551.88
  Q 856.67 556.39 858.62 562.32
  Q 861.72 571.74 859.17 582.61
  Q 856.51 593.96 855.98 600.07
  Q 855.05 610.83 865.98 610.01
  Q 871.74 609.58 875.36 605.47
  Q 877.63 602.90 880.92 597.32
  Q 881.17 596.88 881.17 596.38
  Q 881.15 584.25 883.99 572.53
  Q 885.17 567.68 886.57 563.17
  Q 887.93 558.78 890.19 554.39
  Q 890.86 553.09 891.25 551.67
  Q 891.68 550.10 892.48 548.83
  Q 894.12 546.23 895.55 543.51
  Q 897.01 540.73 898.82 538.29
  Q 903.45 532.08 909.56 526.31
  Q 911.56 524.42 913.86 522.99
  C 916.05 521.62 917.77 520.06 920.23 519.03
  Q 922.60 518.03 924.98 517.06
  C 931.70 514.31 938.59 513.65 946.36 514.52
  C 951.46 515.09 958.41 518.25 959.11 523.98
  Q 959.48 527.03 960.15 524.04
  Q 961.14 519.62 961.64 515.82
  Q 961.71 515.26 962.27 515.26
  L 994.54 515.25
  A 0.45 0.45 0.0 0 1 994.98 515.80
  Q 991.55 531.99 988.16 547.99
  C 987.67 550.28 986.33 555.28 985.75 558.98
  Q 985.24 562.29 984.86 563.98
  Q 983.35 570.73 981.90 576.89
  Q 980.64 582.23 979.65 587.67
  Q 978.65 593.13 977.67 598.47
  C 976.99 602.17 977.91 610.11 982.90 610.77
  Q 987.83 611.42 991.37 610.48
  Q 993.33 609.97 995.47 608.17
  Q 997.33 606.61 998.57 604.79
  C 1000.06 602.59 1002.06 600.41 1002.87 597.91
  Q 1004.24 593.69 1005.74 589.63
  Q 1005.81 589.42 1006.04 589.42
  L 1015.18 589.48
  A 0.18 0.18 0.0 0 1 1015.34 589.72
  Q 1013.53 594.80 1010.88 599.59
  C 1010.38 600.49 1010.46 601.47 1009.97 602.42
  Q 1004.99 611.99 998.85 618.70
  Q 994.91 623.01 988.72 626.89
  Q 987.14 627.89 985.36 628.47
  Q 983.78 628.99 982.22 629.63
  C 975.24 632.49 965.28 633.62 958.39 629.85
  Q 956.51 628.82 954.55 627.69
  C 952.45 626.48 951.68 624.56 950.18 622.79
  C 947.94 620.12 946.89 615.69 946.44 612.32
  Q 946.25 610.85 945.42 612.08
  Q 940.11 619.96 931.77 625.92
  Q 929.63 627.45 927.06 628.53
  Q 924.39 629.67 921.83 630.56
  C 914.96 632.95 905.92 632.97 899.21 629.37
  Q 898.78 629.14 898.28 629.11
  Q 897.42 629.07 896.69 628.61
  Q 888.32 623.33 884.68 614.77
  Q 884.29 613.84 884.10 612.81
  A 0.51 0.51 0.0 0 0 883.19 612.60
  Q 879.84 617.13 876.68 620.67
  Q 874.73 622.84 871.14 625.61
  Q 868.26 627.83 864.83 629.27
  Q 852.36 634.50 839.17 630.43
  Q 832.32 628.32 828.34 623.91
  C 817.93 612.40 823.57 595.17 825.93 582.05
  Q 826.74 577.49 826.14 572.93
  C 824.76 562.49 814.29 564.40 808.11 568.43
  Q 804.91 570.52 801.59 573.23
  A 2.30 2.26 76.9 0 0 800.81 574.51
  L 789.13 630.23
  Q 789.02 630.74 788.50 630.74
  L 756.33 630.75
  A 0.46 0.46 0.0 0 1 755.88 630.19
  L 757.83 620.93
  Q 758.12 619.57 757.18 620.59
  C 747.84 630.72 733.65 634.85 720.67 630.55
  Q 715.43 628.81 712.10 625.93
  Q 708.39 622.71 706.30 617.49
  Q 703.08 609.46 704.50 600.25
  Q 707.13 583.15 711.12 568.61
  Q 711.90 565.75 712.30 563.07
  C 713.18 557.01 714.49 551.46 714.27 545.30
  C 714.04 538.92 710.51 534.02 703.46 535.76
  C 694.95 537.86 689.60 550.20 687.81 557.96
  Q 686.36 564.22 684.78 570.62
  Q 684.62 571.27 684.60 571.91
  Q 684.57 572.76 684.41 573.58
  Q 680.09 594.77 675.31 615.84
  Q 675.10 616.75 674.82 617.65
  C 674.47 618.75 674.75 619.72 674.50 620.82
  Q 673.37 625.76 672.38 630.45
  A 0.39 0.38 -83.3 0 1 672.01 630.75
  L 640.01 630.73
  A 0.71 0.71 0.0 0 1 639.34 629.81
  Q 640.94 624.85 641.25 619.44
  Q 641.29 618.64 640.73 619.21
  C 639.47 620.47 638.14 622.13 636.51 622.84
  Q 635.49 623.29 634.69 623.95
  Q 631.15 626.90 626.74 628.77
  Q 621.97 630.80 617.17 632.52
  Q 616.68 632.70 616.55 633.20
  Q 615.39 637.53 614.60 641.66
  Q 614.35 643.03 613.92 644.26
  C 613.49 645.50 613.67 646.70 613.40 648.02
  Q 611.51 657.63 606.88 667.12
  Q 601.36 678.47 590.16 684.62
  C 589.22 685.14 588.41 684.96 587.51 685.40
  Q 584.20 687.01 579.85 687.81
  Q 566.55 690.24 556.43 685.00
  Q 552.80 683.11 550.25 679.86
  Q 547.89 676.85 546.75 672.96
  Q 543.59 662.21 550.15 652.26
  Q 553.18 647.65 559.36 642.96
  Q 560.97 641.73 562.76 640.89
  C 565.69 639.51 568.23 637.34 571.35 636.35
  Q 574.46 635.36 576.21 634.54
  Q 579.42 633.05 582.49 632.01
  A 2.33 2.32 -4.7 0 0 584.03 630.20
  L 585.70 620.42
  Q 585.89 619.34 585.14 620.14
  Q 582.35 623.14 578.40 626.01
  Q 576.18 627.62 573.25 628.82
  Q 569.90 630.18 566.60 631.10
  Q 555.55 634.17 545.69 628.98
  Q 536.62 624.20 534.46 612.53
  Q 534.22 611.28 533.48 612.31
  Q 532.56 613.56 531.59 614.78
  Q 518.88 630.76 498.52 632.17
  Q 489.60 632.79 482.11 627.84
  Q 479.75 626.28 478.11 624.00
  Q 476.25 621.42 474.78 618.83
  Q 473.22 616.09 473.11 613.07
  A 0.65 0.65 0.0 0 0 472.09 612.56
  Q 470.25 613.82 469.49 615.85
  Q 469.31 616.34 468.91 616.68
  Q 467.15 618.22 465.58 620.05
  Q 464.00 621.90 461.78 623.36
  C 459.86 624.63 458.41 626.24 456.31 627.22
  Q 450.34 630.01 445.12 631.27
  Q 431.89 634.45 422.19 627.28
  Q 420.15 625.77 418.24 622.87
  Q 416.99 620.97 416.31 618.39
  Q 415.40 614.98 414.54 611.79
  Q 414.35 611.09 413.92 611.67
  Q 410.98 615.70 407.60 619.34
  Q 399.26 628.36 387.60 631.27
  Q 380.43 633.07 372.90 631.44
  Q 364.77 629.69 359.64 624.71
  C 351.80 617.11 349.30 606.20 349.36 595.17
  Q 349.45 579.27 354.18 565.66
  Q 354.79 563.91 355.11 562.28
  Q 355.48 560.42 356.25 558.74
  Q 358.60 553.65 361.08 548.34
  Q 362.22 545.91 363.79 543.48
  Q 365.28 541.19 366.69 538.85
  Q 367.69 537.19 368.90 535.91
  Q 370.22 534.53 371.38 532.90
  Q 372.99 530.65 375.00 529.06
  Q 376.51 527.87 377.81 526.39
  Q 378.88 525.18 380.32 524.21
  Q 382.76 522.55 384.98 520.99
  Q 386.86 519.66 390.08 518.40
  Q 391.73 517.75 393.43 516.97
  C 399.80 514.05 408.02 513.66 414.84 514.56
  Q 419.01 515.11 423.18 517.75
  C 426.03 519.54 427.11 522.29 427.39 525.56
  Q 427.51 527.04 427.83 525.58
  L 429.91 515.87
  Q 430.04 515.26 430.66 515.26
  L 462.45 515.24
  Q 463.33 515.24 463.14 516.11
  Q 457.01 543.88 450.86 574.32
  Q 450.49 576.15 450.07 577.99
  Q 448.00 587.05 445.87 596.12
  C 445.17 599.12 445.14 602.39 445.94 605.36
  Q 446.55 607.63 448.80 609.77
  Q 450.06 610.97 451.90 611.00
  Q 455.55 611.07 458.56 610.87
  A 6.17 6.13 22.2 0 0 462.23 609.34
  Q 464.75 607.13 467.23 604.42
  C 468.18 603.38 468.41 602.04 469.17 600.91
  Q 471.06 598.07 472.57 594.75
  C 473.04 593.73 472.79 592.86 473.10 591.77
  Q 475.03 585.15 476.41 578.20
  Q 478.06 569.88 478.07 569.82
  Q 488.29 521.91 498.47 474.21
  A 0.79 0.78 -87.3 0 1 499.13 473.60
  L 532.20 469.17
  A 0.42 0.42 0.0 0 1 532.67 469.67
  Q 527.62 493.57 522.37 517.65
  Q 522.35 517.73 521.95 518.79
  C 521.72 519.41 521.90 520.45 521.73 521.20
  Q 518.60 534.86 516.70 544.52
  Q 514.80 554.19 513.09 561.80
  Q 512.45 564.64 511.88 567.23
  Q 508.55 582.24 505.50 597.75
  C 504.45 603.10 505.50 608.91 512.11 609.59
  Q 519.48 610.34 524.62 606.22
  C 531.68 600.54 534.79 593.40 536.77 583.90
  Q 543.91 549.65 551.18 515.56
  A 0.39 0.38 -83.3 0 1 551.55 515.26
  L 583.70 515.25
  A 0.66 0.66 0.0 0 1 584.35 516.05
  Q 576.64 552.29 567.83 594.08
  C 566.78 599.07 566.43 606.70 571.52 609.30
  Q 573.88 610.50 576.70 609.72
  Q 581.53 608.37 584.74 604.64
  Q 588.27 600.53 590.52 595.26
  Q 591.96 591.87 593.51 584.53
  Q 598.58 560.52 603.81 536.49
  Q 604.32 534.14 604.83 531.80
  Q 606.52 524.08 608.13 515.93
  A 0.85 0.84 5.9 0 1 608.96 515.26
  L 640.97 515.25
  Q 641.55 515.25 641.43 515.81
  Q 635.73 543.04 629.78 570.26
  Q 629.43 571.88 629.09 573.46
  Q 626.45 585.84 623.96 597.77
  Q 621.95 607.42 619.94 616.27
  Q 619.49 618.22 619.19 620.89
  A 0.04 0.04 0.0 0 1 619.12 620.92
  Q 619.05 620.85 618.95 620.86
  Q 618.87 620.86 618.88 620.94
  Z
  M 383.30 587.83
  Q 383.29 592.84 383.47 597.17
  Q 383.58 599.81 384.50 603.03
  Q 384.88 604.34 385.64 605.11
  Q 386.64 606.13 387.63 607.30
  Q 388.83 608.73 390.51 609.32
  Q 396.02 611.27 400.90 608.56
  Q 405.87 605.79 409.86 600.44
  Q 411.40 598.37 412.44 595.59
  Q 413.64 592.41 414.14 590.00
  Q 419.23 565.75 424.50 541.43
  C 424.97 539.27 426.27 537.10 425.30 534.90
  Q 422.00 527.47 414.14 528.43
  C 411.10 528.81 407.25 530.56 404.99 532.59
  Q 402.56 534.76 399.87 537.92
  Q 399.60 538.23 399.60 538.65
  Q 399.60 539.00 399.38 539.26
  Q 397.03 542.06 393.94 548.67
  Q 390.09 556.91 388.89 560.45
  Q 386.21 568.36 384.21 578.66
  Q 383.31 583.28 383.30 587.83
  Z
  M 922.50 555.94
  Q 921.06 559.26 919.84 562.81
  C 919.51 563.78 919.67 564.61 919.36 565.61
  C 916.56 574.48 910.74 603.86 921.67 608.90
  C 926.38 611.07 931.06 610.06 935.28 607.05
  C 936.30 606.32 936.84 605.38 937.90 604.68
  Q 938.92 604.02 939.64 603.05
  C 940.56 601.81 941.70 600.98 942.34 599.51
  Q 943.36 597.18 944.53 594.98
  C 945.13 593.83 945.15 592.79 945.50 591.60
  Q 945.86 590.34 946.13 589.07
  Q 951.14 565.67 956.24 542.29
  C 956.90 539.27 958.69 536.41 956.71 533.42
  C 953.15 528.02 947.42 527.21 941.78 529.62
  Q 938.49 531.03 936.86 532.56
  Q 929.82 539.17 925.43 549.21
  Q 923.93 552.63 922.50 555.94
  Z
  M 570.43 647.87
  Q 568.44 648.59 567.71 649.20
  Q 565.97 650.68 564.23 651.97
  Q 559.99 655.15 558.57 660.18
  C 557.30 664.68 559.21 667.89 562.93 670.13
  C 565.32 671.57 568.56 671.02 570.50 669.07
  Q 572.04 667.51 573.64 665.90
  C 575.04 664.48 575.37 662.44 576.11 660.98
  Q 580.19 652.93 580.93 644.38
  Q 581.01 643.40 580.06 643.61
  Q 576.27 644.47 573.14 646.52
  Q 571.88 647.35 570.43 647.87
  Z"
/>
<path fill="#ffffff" d="
  M 384.21 578.66
  Q 386.21 568.36 388.89 560.45
  Q 390.09 556.91 393.94 548.67
  Q 397.03 542.06 399.38 539.26
  Q 399.60 539.00 399.60 538.65
  Q 399.60 538.23 399.87 537.92
  Q 402.56 534.76 404.99 532.59
  C 407.25 530.56 411.10 528.81 414.14 528.43
  Q 422.00 527.47 425.30 534.90
  C 426.27 537.10 424.97 539.27 424.50 541.43
  Q 419.23 565.75 414.14 590.00
  Q 413.64 592.41 412.44 595.59
  Q 411.40 598.37 409.86 600.44
  Q 405.87 605.79 400.90 608.56
  Q 396.02 611.27 390.51 609.32
  Q 388.83 608.73 387.63 607.30
  Q 386.64 606.13 385.64 605.11
  Q 384.88 604.34 384.50 603.03
  Q 383.58 599.81 383.47 597.17
  Q 383.29 592.84 383.30 587.83
  Q 383.31 583.28 384.21 578.66
  Z"
/>
<path fill="#ffffff" d="
  M 925.43 549.21
  Q 929.82 539.17 936.86 532.56
  Q 938.49 531.03 941.78 529.62
  C 947.42 527.21 953.15 528.02 956.71 533.42
  C 958.69 536.41 956.90 539.27 956.24 542.29
  Q 951.14 565.67 946.13 589.07
  Q 945.86 590.34 945.50 591.60
  C 945.15 592.79 945.13 593.83 944.53 594.98
  Q 943.36 597.18 942.34 599.51
  C 941.70 600.98 940.56 601.81 939.64 603.05
  Q 938.92 604.02 937.90 604.68
  C 936.84 605.38 936.30 606.32 935.28 607.05
  C 931.06 610.06 926.38 611.07 921.67 608.90
  C 910.74 603.86 916.56 574.48 919.36 565.61
  C 919.67 564.61 919.51 563.78 919.84 562.81
  Q 921.06 559.26 922.50 555.94
  Q 923.93 552.63 925.43 549.21
  Z"
/>
<path fill="#ffffff" d="
  M 573.14 646.52
  Q 576.27 644.47 580.06 643.61
  Q 581.01 643.40 580.93 644.38
  Q 580.19 652.93 576.11 660.98
  C 575.37 662.44 575.04 664.48 573.64 665.90
  Q 572.04 667.51 570.50 669.07
  C 568.56 671.02 565.32 671.57 562.93 670.13
  C 559.21 667.89 557.30 664.68 558.57 660.18
  Q 559.99 655.15 564.23 651.97
  Q 565.97 650.68 567.71 649.20
  Q 568.44 648.59 570.43 647.87
  Q 571.88 647.35 573.14 646.52
  Z"
/>
<path fill="#588a3d" d="
  M 598.87 764.32
  Q 598.87 765.34 599.54 764.57
  Q 606.21 756.97 615.07 759.18
  C 620.46 760.52 621.96 766.18 622.11 771.21
  Q 622.41 781.25 622.26 791.36
  A 0.69 0.69 0.0 0 0 622.82 792.05
  L 626.91 792.80
  A 0.63 0.62 3.6 0 1 627.42 793.37
  L 627.53 795.24
  Q 627.57 795.80 627.00 795.80
  L 611.72 795.79
  Q 611.14 795.79 611.18 795.21
  L 611.32 793.17
  A 0.46 0.45 -3.5 0 1 611.68 792.77
  L 614.98 792.10
  Q 615.64 791.97 615.66 791.30
  Q 615.94 779.88 615.45 770.12
  C 615.14 763.99 609.87 762.16 604.86 764.25
  C 598.48 766.90 598.95 771.99 598.90 778.83
  Q 598.85 784.68 598.84 790.96
  Q 598.84 791.66 599.49 791.94
  Q 601.01 792.59 602.81 792.72
  Q 603.37 792.76 603.41 793.32
  L 603.53 795.24
  Q 603.56 795.80 603.00 795.80
  L 587.77 795.79
  Q 587.00 795.79 587.09 795.02
  L 587.26 793.70
  Q 587.35 792.96 588.07 792.81
  L 591.67 792.02
  Q 592.42 791.86 592.42 791.10
  L 592.37 747.76
  A 0.92 0.92 0.0 0 0 591.63 746.86
  L 588.26 746.22
  A 1.39 1.38 -11.2 0 1 587.37 745.63
  Q 586.81 744.79 587.10 743.77
  A 0.94 0.92 7.8 0 1 588.00 743.10
  L 598.26 743.13
  Q 598.88 743.13 598.88 743.76
  L 598.87 764.32
  Z"
/>
<ellipse fill="#588a3d" cx="0.00" cy="0.00" transform="translate(670.65,748.32) rotate(-50.7)" rx="4.31" ry="4.07"/>
<path fill="#588a3d" d="
  M 546.67 786.79
  Q 546.43 786.74 546.29 786.48
  Q 544.40 783.10 544.16 781.23
  Q 543.94 779.49 543.66 777.48
  Q 542.44 768.62 544.64 761.16
  Q 545.65 757.73 547.88 754.53
  Q 553.24 746.84 564.21 746.49
  Q 572.08 746.24 576.53 750.93
  Q 577.06 751.49 577.26 750.75
  L 578.06 747.86
  Q 578.24 747.24 578.88 747.22
  L 581.20 747.16
  Q 582.02 747.14 582.01 747.95
  L 582.01 761.31
  Q 582.01 762.12 581.19 762.14
  L 578.63 762.22
  Q 578.00 762.23 577.86 761.61
  C 576.55 755.56 573.48 751.20 566.86 750.35
  Q 555.24 748.85 551.92 759.75
  Q 549.03 769.27 551.67 780.37
  Q 551.90 781.33 552.03 782.27
  Q 552.30 784.14 553.54 785.89
  Q 557.12 791.00 561.37 791.88
  C 564.35 792.50 568.83 792.34 571.69 791.13
  Q 577.87 788.51 579.15 781.14
  Q 579.18 780.92 579.40 780.89
  Q 581.24 780.57 582.98 780.93
  A 0.07 0.07 0.0 0 1 583.04 781.01
  Q 580.34 793.93 569.03 796.06
  Q 561.10 797.56 554.55 794.29
  Q 549.33 791.68 546.93 786.99
  A 0.36 0.35 81.6 0 0 546.67 786.79
  Z"
/>
<path fill="#588a3d" d="
  M 728.70 763.20
  L 728.73 790.52
  A 1.60 1.60 0.0 0 0 730.29 792.12
  L 735.34 792.25
  A 1.04 1.04 0.0 0 1 736.34 793.41
  Q 736.25 794.25 735.35 794.45
  C 731.32 795.37 722.42 799.68 722.32 792.01
  Q 722.14 778.45 722.31 763.04
  A 0.42 0.42 0.0 0 0 721.89 762.61
  L 716.68 762.60
  Q 715.77 762.60 715.67 761.69
  L 715.62 761.18
  A 0.96 0.96 0.0 0 1 716.45 760.13
  L 721.60 759.41
  Q 722.15 759.33 722.20 758.78
  L 722.90 751.23
  Q 722.93 750.88 723.27 750.82
  L 728.32 750.07
  Q 728.70 750.01 728.70 750.39
  L 728.72 758.75
  Q 728.72 759.28 729.25 759.28
  L 736.94 759.30
  Q 737.32 759.30 737.32 759.69
  L 737.27 762.18
  Q 737.27 762.62 736.83 762.62
  L 729.30 762.61
  Q 728.70 762.60 728.70 763.20
  Z"
/>
<path fill="#588a3d" d="
  M 897.77 762.69
  L 892.64 762.71
  Q 891.87 762.71 891.87 761.94
  L 891.86 760.91
  Q 891.86 760.30 892.46 760.21
  L 897.65 759.45
  A 1.03 1.02 89.3 0 0 898.52 758.55
  L 899.30 751.23
  Q 899.35 750.81 899.77 750.75
  L 904.54 750.12
  Q 905.02 750.06 905.02 750.55
  L 904.94 758.72
  Q 904.93 759.25 905.46 759.25
  L 912.99 759.30
  Q 913.68 759.30 913.67 759.99
  L 913.64 762.10
  Q 913.63 762.69 913.03 762.69
  L 905.70 762.67
  Q 905.00 762.67 905.00 763.37
  Q 904.95 776.85 905.06 789.97
  Q 905.07 792.18 907.22 792.21
  Q 909.55 792.26 911.70 792.15
  Q 912.15 792.13 912.39 792.50
  Q 912.85 793.19 912.43 793.91
  A 1.12 1.12 0.0 0 1 911.86 794.39
  C 907.41 796.04 898.66 799.36 898.56 791.47
  Q 898.39 777.58 898.50 763.42
  Q 898.50 762.69 897.77 762.69
  Z"
/>
<path fill="#588a3d" d="
  M 643.18 767.51
  Q 644.56 763.43 647.55 760.76
  C 650.59 758.04 655.95 757.62 658.20 761.53
  C 659.52 763.82 659.50 768.39 656.15 768.99
  C 652.90 769.57 650.78 767.25 651.57 764.00
  A 1.05 1.04 -6.3 0 0 650.09 762.82
  Q 646.75 764.47 645.21 768.54
  Q 643.77 772.35 643.45 775.88
  Q 642.97 781.11 643.24 791.27
  A 0.73 0.73 0.0 0 0 643.86 791.97
  L 649.78 792.87
  Q 650.36 792.95 650.40 793.54
  L 650.50 794.99
  Q 650.56 795.80 649.75 795.80
  L 631.81 795.80
  Q 631.32 795.80 631.36 795.31
  L 631.51 793.32
  Q 631.54 792.90 631.95 792.82
  L 635.99 792.00
  Q 636.59 791.88 636.59 791.26
  L 636.59 763.70
  A 0.49 0.48 -84.2 0 0 636.21 763.22
  L 631.97 762.29
  Q 631.51 762.19 631.49 761.72
  L 631.42 759.69
  A 0.40 0.39 89.3 0 1 631.81 759.28
  L 640.44 759.28
  Q 641.12 759.28 641.24 759.95
  L 642.53 767.46
  Q 642.75 768.78 643.18 767.51
  Z"
/>
<path fill="#588a3d" d="
  M 705.98 789.36
  C 707.83 785.41 703.22 781.95 699.97 780.89
  Q 699.74 780.82 699.54 780.95
  Q 699.26 781.13 698.93 781.05
  Q 694.32 779.82 689.47 776.94
  Q 686.92 775.42 686.09 772.69
  Q 684.96 768.96 686.23 765.07
  C 686.88 763.09 688.26 762.52 689.65 761.23
  C 694.28 756.92 709.88 757.51 710.23 766.19
  Q 710.32 768.34 709.31 770.05
  C 708.13 772.03 704.79 772.30 703.72 770.08
  Q 702.24 766.99 705.20 764.73
  Q 705.65 764.39 705.25 763.99
  Q 703.01 761.77 700.79 761.67
  Q 699.24 761.61 697.61 761.55
  Q 695.83 761.48 694.40 762.12
  Q 690.99 763.68 690.63 766.95
  Q 690.34 769.69 692.39 771.57
  Q 694.19 773.23 696.21 773.51
  Q 697.83 773.74 699.36 774.31
  Q 704.03 776.05 708.46 778.45
  C 709.68 779.12 710.80 780.39 711.11 781.77
  Q 713.44 792.37 703.49 795.63
  Q 699.56 796.92 694.37 796.41
  Q 687.84 795.76 684.78 790.28
  C 683.62 788.21 683.59 783.98 686.72 783.29
  Q 688.98 782.80 690.60 784.27
  A 2.40 2.40 0.0 0 1 691.15 787.08
  L 689.53 790.46
  A 0.58 0.57 -58.5 0 0 689.69 791.16
  C 692.64 793.51 697.85 793.72 701.24 793.09
  Q 702.80 792.80 704.19 791.65
  Q 705.36 790.69 705.98 789.36
  Z"
/>
<path fill="#588a3d" d="
  M 774.38 765.99
  C 777.86 760.79 783.34 757.89 789.19 758.88
  C 795.58 759.96 796.89 765.39 797.12 770.87
  Q 797.54 780.83 797.34 791.16
  Q 797.32 791.93 798.09 792.08
  L 802.24 792.89
  Q 802.42 792.92 802.43 793.11
  L 802.55 795.24
  Q 802.58 795.80 802.01 795.80
  L 786.95 795.79
  Q 786.10 795.79 786.20 794.95
  L 786.36 793.58
  Q 786.45 792.89 787.12 792.73
  L 790.18 792.03
  Q 790.75 791.89 790.75 791.30
  Q 790.75 783.41 790.75 774.94
  C 790.75 771.99 790.74 767.88 788.83 765.59
  Q 786.81 763.18 783.71 763.54
  Q 775.15 764.54 774.85 773.66
  Q 774.59 781.57 774.79 791.28
  Q 774.81 791.97 775.49 792.11
  L 778.80 792.80
  Q 779.21 792.89 779.22 793.30
  L 779.29 795.25
  Q 779.31 795.81 778.75 795.81
  L 764.26 795.78
  Q 763.49 795.78 763.57 795.01
  L 763.74 793.56
  Q 763.81 792.91 764.45 792.76
  L 767.62 792.00
  Q 768.21 791.86 768.22 791.25
  Q 768.33 781.44 768.09 772.16
  C 768.04 770.25 767.78 767.58 766.65 766.03
  C 762.95 761.00 755.47 764.09 753.28 768.72
  Q 752.00 771.42 752.17 777.31
  Q 752.37 784.26 752.17 790.92
  Q 752.15 791.65 752.81 791.94
  Q 754.21 792.56 755.99 792.71
  Q 756.32 792.74 756.44 793.06
  Q 756.78 793.99 756.77 795.05
  Q 756.77 795.81 756.02 795.81
  L 740.94 795.79
  Q 740.33 795.79 740.40 795.18
  L 740.61 793.20
  Q 740.64 792.90 740.94 792.84
  L 744.91 792.01
  Q 745.66 791.85 745.66 791.09
  L 745.66 763.99
  Q 745.66 763.31 745.00 763.16
  L 741.08 762.28
  Q 740.53 762.16 740.51 761.60
  L 740.44 759.93
  Q 740.41 759.28 741.07 759.28
  L 749.63 759.29
  Q 750.25 759.29 750.36 759.89
  L 751.38 765.28
  A 0.49 0.49 0.0 0 0 752.27 765.46
  C 756.07 759.93 763.01 756.71 769.30 759.82
  Q 772.71 761.50 773.63 765.85
  Q 773.83 766.81 774.38 765.99
  Z"
/>
<path fill="#588a3d" d="
  M 807.29 791.52
  C 804.96 785.80 808.44 780.22 814.03 778.32
  Q 820.54 776.11 827.10 774.92
  Q 827.66 774.82 827.64 774.25
  C 827.54 770.50 826.86 764.02 822.82 762.37
  Q 819.03 760.82 814.96 762.87
  A 1.22 1.21 57.0 0 0 814.57 764.74
  C 816.85 767.49 815.98 771.44 811.99 771.57
  C 809.76 771.64 808.26 769.99 808.25 767.81
  C 808.23 759.66 819.36 757.76 825.25 759.20
  C 832.47 760.98 834.40 768.65 834.41 775.25
  Q 834.42 782.47 834.59 790.46
  A 2.08 2.07 0.1 0 0 836.62 792.49
  L 839.22 792.56
  A 0.78 0.77 -5.3 0 1 839.95 793.16
  Q 840.22 794.36 839.15 794.81
  Q 836.36 795.97 832.94 796.49
  C 828.45 797.16 829.15 792.53 828.91 789.86
  A 0.37 0.37 0.0 0 0 828.25 789.68
  Q 827.15 791.16 825.84 792.36
  C 821.95 795.95 814.22 798.52 809.62 794.74
  Q 808.08 793.48 807.29 791.52
  Z
  M 823.00 777.87
  C 817.39 779.54 811.86 781.60 813.73 789.01
  C 815.04 794.22 821.31 792.88 824.35 790.26
  C 828.33 786.84 828.02 782.48 827.78 777.77
  Q 827.74 777.11 827.08 777.19
  Q 823.96 777.59 823.00 777.87
  Z"
/>
<path fill="#588a3d" d="
  M 863.33 791.53
  C 865.28 789.67 866.06 785.99 863.93 783.91
  Q 862.09 782.12 859.75 781.53
  Q 853.67 780.00 848.93 777.41
  C 843.19 774.28 843.19 766.00 847.49 762.07
  C 853.44 756.64 870.19 756.93 869.49 768.17
  C 869.34 770.71 866.88 772.40 864.46 771.42
  C 861.93 770.38 861.81 767.28 863.65 765.55
  Q 865.45 763.84 863.18 762.83
  Q 858.08 760.58 853.01 762.66
  Q 851.13 763.43 850.39 765.44
  C 849.13 768.83 850.84 771.65 854.03 772.77
  C 858.65 774.38 866.10 776.22 869.12 779.95
  C 872.88 784.59 870.96 791.59 865.63 794.40
  C 859.46 797.66 848.36 797.45 844.10 791.62
  C 843.06 790.19 843.23 788.05 843.30 786.37
  C 843.55 780.66 852.45 782.46 850.49 787.63
  Q 849.93 789.12 848.75 790.15
  A 0.67 0.66 -50.9 0 0 848.86 791.23
  C 852.38 793.20 859.99 794.71 863.33 791.53
  Z"
/>
<path fill="#588a3d" d="
  M 927.87 767.58
  Q 928.09 768.88 928.51 767.63
  Q 929.80 763.80 932.28 761.31
  C 936.30 757.28 944.03 757.63 944.36 764.50
  C 944.67 771.10 935.40 770.57 936.87 763.73
  A 0.75 0.75 0.0 0 0 936.07 762.83
  C 931.02 763.30 928.81 772.93 928.64 777.06
  Q 928.35 783.91 928.54 791.23
  Q 928.56 791.83 929.15 791.93
  L 934.82 792.85
  Q 935.65 792.98 935.73 793.82
  L 935.83 794.81
  Q 935.92 795.80 934.94 795.80
  L 917.33 795.79
  A 0.67 0.67 0.0 0 1 916.66 795.07
  L 916.78 793.54
  A 0.84 0.83 -3.2 0 1 917.46 792.79
  L 921.29 792.00
  A 0.80 0.80 0.0 0 0 921.93 791.22
  L 921.92 763.99
  A 0.87 0.86 6.8 0 0 921.25 763.15
  L 917.32 762.25
  Q 916.77 762.13 916.75 761.56
  L 916.69 759.93
  A 0.63 0.62 -0.9 0 1 917.32 759.29
  L 925.67 759.27
  A 0.94 0.93 84.8 0 1 926.59 760.04
  L 927.87 767.58
  Z"
/>
<path fill="#588a3d" d="
  M 959.71 795.94
  Q 956.37 795.42 953.25 792.90
  Q 950.64 790.79 949.54 787.30
  Q 945.95 775.93 950.87 766.11
  C 953.93 760.02 961.59 757.68 968.24 759.09
  C 976.80 760.91 979.27 769.59 978.56 777.26
  A 0.74 0.73 -87.4 0 1 977.83 777.93
  L 955.70 777.94
  Q 955.08 777.94 954.98 778.56
  Q 954.14 784.14 957.37 788.20
  C 961.96 793.96 970.40 792.66 975.21 787.80
  A 1.36 1.35 41.1 0 1 977.00 787.68
  L 977.45 788.02
  Q 978.29 788.67 977.59 789.48
  C 974.80 792.69 971.53 795.51 967.40 796.09
  Q 963.88 796.59 959.71 795.94
  Z
  M 955.78 774.72
  L 971.46 774.72
  A 0.46 0.46 0.0 0 0 971.92 774.26
  L 971.92 772.06
  A 9.72 7.55 -90.0 0 0 964.37 762.34
  L 962.87 762.34
  A 9.72 7.55 90.0 0 0 955.32 772.06
  L 955.32 774.26
  A 0.46 0.46 0.0 0 0 955.78 774.72
  Z"
/>
<path fill="#588a3d" d="
  M 991.63 778.25
  C 991.11 784.83 994.25 791.34 1001.18 791.88
  Q 1007.32 792.35 1011.95 787.82
  A 1.36 1.36 0.0 0 1 1013.46 787.55
  L 1013.95 787.77
  Q 1015.16 788.31 1014.35 789.36
  Q 1007.83 797.88 997.46 796.22
  Q 992.47 795.43 989.43 792.35
  Q 987.03 789.93 985.89 785.55
  Q 984.18 778.97 985.68 771.78
  Q 987.26 764.25 992.57 760.99
  Q 998.55 757.33 1005.91 759.33
  C 1013.76 761.47 1016.08 770.04 1015.28 777.56
  A 0.46 0.45 2.7 0 1 1014.82 777.97
  L 992.02 777.89
  A 0.39 0.39 0.0 0 0 991.63 778.25
  Z
  M 992.53 774.71
  L 1008.17 774.73
  A 0.57 0.57 0.0 0 0 1008.74 774.16
  L 1008.74 772.62
  A 10.27 7.61 -89.9 0 0 1001.15 762.34
  L 999.59 762.34
  A 10.27 7.61 -89.9 0 0 991.96 772.60
  L 991.96 774.14
  A 0.57 0.57 0.0 0 0 992.53 774.71
  Z"
/>
<path fill="#588a3d" d="
  M 679.25 793.39
  L 679.43 795.24
  A 0.51 0.51 0.0 0 1 678.92 795.80
  L 662.77 795.79
  A 0.51 0.51 0.0 0 1 662.26 795.23
  L 662.44 793.27
  A 0.51 0.51 0.0 0 1 662.84 792.81
  L 667.11 791.95
  A 0.51 0.51 0.0 0 0 667.52 791.45
  L 667.52 763.70
  A 0.51 0.51 0.0 0 0 667.12 763.20
  L 662.82 762.26
  A 0.51 0.51 0.0 0 1 662.42 761.79
  L 662.30 759.82
  A 0.51 0.51 0.0 0 1 662.81 759.28
  L 673.67 759.30
  A 0.51 0.51 0.0 0 1 674.18 759.81
  L 674.02 791.50
  A 0.51 0.51 0.0 0 0 674.43 792.00
  L 678.85 792.94
  A 0.51 0.51 0.0 0 1 679.25 793.39
  Z"
/>
<path fill="#ffffff" d="
  M 955.78 774.72
  A 0.46 0.46 0.0 0 1 955.32 774.26
  L 955.32 772.06
  A 9.72 7.55 90.0 0 1 962.87 762.34
  L 964.37 762.34
  A 9.72 7.55 -90.0 0 1 971.92 772.06
  L 971.92 774.26
  A 0.46 0.46 0.0 0 1 971.46 774.72
  L 955.78 774.72
  Z"
/>
<path fill="#ffffff" d="
  M 992.53 774.71
  A 0.57 0.57 0.0 0 1 991.96 774.14
  L 991.96 772.60
  A 10.27 7.61 -89.9 0 1 999.59 762.34
  L 1001.15 762.34
  A 10.27 7.61 -89.9 0 1 1008.74 772.62
  L 1008.74 774.16
  A 0.57 0.57 0.0 0 1 1008.17 774.73
  L 992.53 774.71
  Z"
/>
<path fill="#ffffff" d="
  M 823.00 777.87
  Q 823.96 777.59 827.08 777.19
  Q 827.74 777.11 827.78 777.77
  C 828.02 782.48 828.33 786.84 824.35 790.26
  C 821.31 792.88 815.04 794.22 813.73 789.01
  C 811.86 781.60 817.39 779.54 823.00 777.87
  Z"
/>
</svg>
