<svg width="24" height="28" viewBox="0 0 24 28" fill="none" xmlns="http://www.w3.org/2000/svg">
<path d="M22.0742 17.7443C20.6048 17.7443 19.1621 17.4855 17.7949 16.9766C17.1133 16.7148 16.3372 16.9179 15.8925 17.4283L13.194 19.7229C10.0644 17.8412 8.13667 15.6705 6.48892 12.1719L8.4661 9.21143C8.97979 8.63359 9.16404 7.7895 8.94329 6.9975C8.48954 5.44942 8.25904 3.82509 8.25904 2.16929C8.2591 0.973133 7.39517 0 6.3333 0H1.92575C0.863935 0 0 0.973133 0 2.16915C0 15.8795 9.90235 27.0334 22.0742 27.0334C23.1361 27.0334 24 26.0603 24 24.8642V19.9135C23.9999 18.7175 23.136 17.7443 22.0742 17.7443ZM22.6666 24.8643C22.6666 25.2324 22.401 25.5316 22.0742 25.5316C10.6373 25.5316 1.33337 15.0516 1.33337 2.16922C1.33337 1.8011 1.599 1.5019 1.92581 1.5019H6.33336C6.66017 1.5019 6.92579 1.8011 6.92579 2.16922C6.92579 3.98567 7.17904 5.7684 7.67448 7.45728C7.74348 7.70664 7.68748 7.96472 7.46354 8.22731L5.17186 11.646C5.01824 11.8755 4.99411 12.1828 5.10936 12.4387C6.97979 16.5798 9.2526 19.1399 12.955 21.2768C13.1803 21.4095 13.4563 21.3817 13.6608 21.2079L16.7656 18.5584C16.9225 18.3817 17.1575 18.3186 17.3698 18.4C18.8795 18.9617 20.4622 19.2462 22.0742 19.2462C22.401 19.2462 22.6666 19.5454 22.6666 19.9136V24.8643Z" fill="#333333"/>
</svg>
