<svg width="12" height="12" viewBox="0 0 12 12" fill="none" xmlns="http://www.w3.org/2000/svg">
<path d="M11.0371 7.8766C10.3024 7.8766 9.58104 7.7617 8.89745 7.53579C8.55663 7.41957 8.1686 7.50976 7.94626 7.73632L6.59698 8.75488C5.03221 7.9196 4.06833 6.95604 3.24446 5.40302L4.23305 4.0889C4.48989 3.8324 4.58202 3.45771 4.47164 3.10615C4.24477 2.41896 4.12952 1.69793 4.12952 0.962935C4.12955 0.431968 3.69758 0 3.16665 0H0.962873C0.431968 0 0 0.431968 0 0.962873C0 7.04883 4.95117 12 11.0371 12C11.568 12 12 11.568 12 11.0371V8.83948C12 8.30857 11.568 7.8766 11.0371 7.8766ZM11.3333 11.0371C11.3333 11.2005 11.2005 11.3333 11.0371 11.3333C5.31867 11.3333 0.666686 6.68129 0.666686 0.962904C0.666686 0.799498 0.799498 0.666686 0.962904 0.666686H3.16668C3.33009 0.666686 3.4629 0.799498 3.4629 0.962904C3.4629 1.76921 3.58952 2.56056 3.83724 3.31024C3.87174 3.42093 3.84374 3.53549 3.73177 3.65205L2.58593 5.16958C2.50912 5.27145 2.49706 5.40786 2.55468 5.52145C3.4899 7.35967 4.6263 8.49607 6.47751 9.44463C6.59014 9.50354 6.72817 9.49119 6.83039 9.41404L8.38279 8.23795C8.46123 8.15951 8.57876 8.13151 8.68488 8.16763C9.43976 8.41698 10.2311 8.54329 11.0371 8.54329C11.2005 8.54329 11.3333 8.6761 11.3333 8.83951V11.0371Z" fill="white"/>
</svg>
