<svg width="16" height="17" viewBox="0 0 16 17" fill="none" xmlns="http://www.w3.org/2000/svg">
<path d="M13.7274 2.6026C12.2618 1.10313 10.3137 0.277466 8.24097 0.277466C8.24085 0.277466 8.24036 0.277466 8.24024 0.277466C7.21509 0.277591 6.21607 0.480667 5.27112 0.881198C4.32605 1.28173 3.47937 1.86086 2.7544 2.6026C1.28894 4.10194 0.481935 6.09548 0.481935 8.21591C0.481935 9.48045 0.780153 10.7371 1.34522 11.8568L0.0410175 15.6688C-0.0509015 15.9377 0.014162 16.2299 0.211183 16.4314C0.349001 16.5725 0.530397 16.6474 0.716921 16.6474C0.796877 16.6474 0.877687 16.6337 0.956545 16.6055L4.68237 15.2712C5.77673 15.8494 7.00501 16.1545 8.24097 16.1545C10.3135 16.1545 12.2618 15.3287 13.7274 13.8293C15.1929 12.33 16 10.3365 16 8.21603C16 6.09548 15.193 4.10194 13.7274 2.6026ZM13.0638 13.1504C11.7756 14.4685 10.0627 15.1943 8.24097 15.1943C7.12647 15.1943 6.01929 14.9123 5.03906 14.3785C4.86133 14.2818 4.65125 14.2652 4.46265 14.3328L1.07764 15.5449L2.26245 12.0816C2.32849 11.8884 2.31214 11.6734 2.21765 11.4917C1.69605 10.4891 1.42029 9.3563 1.42029 8.21591C1.42029 6.35201 2.12976 4.59951 3.41797 3.28151C4.70606 1.96364 6.4187 1.23777 8.24036 1.23752H8.24097C10.0629 1.23752 11.7756 1.96339 13.0638 3.28151C14.3522 4.59951 15.0616 6.35188 15.0616 8.21591C15.0616 10.0799 14.3522 11.8324 13.0638 13.1504Z" fill="#333333"/>
<path d="M11.1245 8.92511C10.7676 8.55992 10.1868 8.55992 9.82983 8.92511L9.43945 9.32451C8.47009 8.7841 7.68567 7.98154 7.15735 6.98977L7.54773 6.59036C7.90479 6.22517 7.90479 5.63093 7.54773 5.26574L6.49573 4.18942C6.1388 3.82423 5.55799 3.82423 5.20105 4.18942L4.3595 5.05043C3.87745 5.54363 3.8534 6.39153 4.29175 7.43801C4.67237 8.3466 5.3689 9.34525 6.25305 10.2498C7.13721 11.1544 8.11328 11.8671 9.00134 12.2565C9.48731 12.4696 9.92932 12.5759 10.3113 12.5759C10.7333 12.5759 11.0819 12.4461 11.335 12.1872L12.1765 11.326V11.3262C12.3495 11.1492 12.4447 10.914 12.4447 10.6639C12.4447 10.4136 12.3495 10.1784 12.1765 10.0016L11.1245 8.92511ZM10.6714 11.5083C10.5338 11.649 10.1107 11.6984 9.3711 11.3741C8.59009 11.0317 7.71839 10.3912 6.91663 9.57093C6.11487 8.75063 5.48902 7.8589 5.1543 7.05983C4.83728 6.30311 4.8855 5.8701 5.02307 5.72935L5.84851 4.88482L6.86804 5.92805L6.3794 6.42812C6.15845 6.65418 6.10511 6.99701 6.24683 7.28127C6.88928 8.57016 7.89478 9.5989 9.15454 10.2562C9.4325 10.4012 9.76758 10.3468 9.98853 10.1206L10.4772 9.62064L11.4968 10.6639L10.6714 11.5083Z" fill="#333333"/>
</svg>
