<svg width="24" height="24" viewBox="0 0 24 24" fill="none" xmlns="http://www.w3.org/2000/svg">
<g clip-path="url(#clip0_2912_519)">
<path d="M15.6941 10.9214L10.3919 8.02027C10.087 7.85346 9.72668 7.85968 9.42785 8.03675C9.12884 8.21399 8.9505 8.5271 8.9505 8.87463V14.6271C8.9505 14.9729 9.12775 15.2855 9.42474 15.4629C9.57983 15.5556 9.75177 15.6021 9.92407 15.6021C10.0819 15.6021 10.2401 15.5631 10.3857 15.4847L15.688 12.6336C16.0028 12.4642 16.1992 12.137 16.2007 11.7794C16.202 11.4218 16.0079 11.0931 15.6941 10.9214ZM10.3569 13.9034V9.60412L14.3197 11.7724L10.3569 13.9034Z" fill="white"/>
<path d="M23.8234 7.19658L23.8223 7.18559C23.802 6.99242 23.5996 5.27416 22.7643 4.4002C21.7988 3.37225 20.7042 3.24737 20.1778 3.1875C20.1342 3.18256 20.0943 3.17798 20.0586 3.17322L20.0166 3.16882C16.8438 2.93811 12.0521 2.90662 12.0042 2.90643L12 2.90625L11.9957 2.90643C11.9478 2.90662 7.1561 2.93811 3.9547 3.16882L3.9124 3.17322C3.87834 3.17779 3.84081 3.18201 3.79997 3.18677C3.27959 3.24682 2.19671 3.37189 1.22845 4.43701C0.43286 5.30163 0.20288 6.98308 0.17926 7.17204L0.176513 7.19658C0.169372 7.27696 0 9.19059 0 11.1117V12.9076C0 14.8287 0.169372 16.7424 0.176513 16.8229L0.177795 16.835C0.198119 17.0251 0.400267 18.7119 1.23175 19.5862C2.13958 20.5797 3.28746 20.7112 3.90489 20.7819C4.00249 20.793 4.08653 20.8025 4.14384 20.8126L4.19932 20.8203C6.03129 20.9946 11.7751 21.0805 12.0186 21.084L12.026 21.0842L12.0333 21.084C12.0813 21.0838 16.8727 21.0523 20.0456 20.8216L20.0875 20.8172C20.1276 20.8119 20.1726 20.8071 20.2221 20.802C20.7395 20.7471 21.8166 20.633 22.7715 19.5823C23.567 18.7175 23.7972 17.0361 23.8206 16.8473L23.8234 16.8228C23.8305 16.7422 24.0001 14.8287 24.0001 12.9076V11.1117C23.9999 9.19059 23.8305 7.27714 23.8234 7.19658ZM22.5935 12.9076C22.5935 14.6857 22.4382 16.517 22.4236 16.6851C22.3639 17.1481 22.1213 18.212 21.7336 18.6333C21.136 19.2908 20.522 19.356 20.0738 19.4034C20.0196 19.4091 19.9694 19.4146 19.924 19.4203C16.8552 19.6422 12.2444 19.6763 12.032 19.6775C11.7938 19.6741 6.13401 19.5875 4.35789 19.4225C4.26689 19.4076 4.16856 19.3963 4.06493 19.3846C3.53923 19.3243 2.81963 19.2419 2.26629 18.6333L2.25329 18.6194C1.87243 18.2226 1.63677 17.2278 1.5769 16.6906C1.56573 16.5635 1.40643 14.7106 1.40643 12.9076V11.1117C1.40643 9.33561 1.56133 7.50639 1.57635 7.33482C1.64758 6.78935 1.89477 5.78997 2.26629 5.38604C2.88225 4.70855 3.53172 4.63348 3.96129 4.58386C4.0023 4.5791 4.04057 4.5747 4.07591 4.57012C7.18942 4.3471 11.8333 4.31396 12 4.31268C12.1666 4.31378 16.8088 4.3471 19.8947 4.57012C19.9326 4.57488 19.974 4.57964 20.0185 4.58477C20.4603 4.63513 21.1281 4.7113 21.7409 5.36498L21.7466 5.37102C22.1275 5.76781 22.3631 6.78001 22.423 7.32805C22.4336 7.44798 22.5935 9.30485 22.5935 11.1117V12.9076Z" fill="white"/>
</g>
<defs>
<clipPath id="clip0_2912_519">
<rect width="24" height="23.9999" fill="white"/>
</clipPath>
</defs>
</svg>
