<svg width="26" height="24" fill="none" xmlns="http://www.w3.org/2000/svg"><path d="M20.586 17.46c-1.787 0-3.241 1.467-3.241 3.27S18.799 24 20.585 24c1.788 0 3.242-1.467 3.242-3.27s-1.454-3.27-3.242-3.27zm0 4.578a1.304 1.304 0 01-1.296-1.308c0-.721.581-1.308 1.296-1.308.716 0 1.297.587 1.297 1.308 0 .721-.581 1.308-1.297 1.308zm5.207-17.215a.968.968 0 00-.765-.376H6.003L5.128.753A.975.975 0 004.182 0H.972A.977.977 0 000 .98c0 .543.435.982.973.982h2.441l3.161 13.34a.974.974 0 00.946.752h15.14a.974.974 0 00.944-.745l2.367-9.646a.989.989 0 00-.179-.84zm-3.893 9.27H8.29L6.47 6.409h17.316L21.9 14.092zM8.818 17.46c-1.788 0-3.242 1.467-3.242 3.27S7.031 24 8.818 24c1.788 0 3.242-1.467 3.242-3.27s-1.454-3.27-3.242-3.27zm0 4.578a1.304 1.304 0 01-1.297-1.308c0-.721.582-1.308 1.297-1.308s1.297.587 1.297 1.308c0 .721-.582 1.308-1.297 1.308z" fill="#333"/></svg>