<svg width="35" height="32" fill="none" xmlns="http://www.w3.org/2000/svg"><path d="M27.712 23.28a4.367 4.367 0 00-4.364 4.36A4.367 4.367 0 0027.712 32a4.367 4.367 0 004.364-4.36 4.367 4.367 0 00-4.364-4.36zm0 6.104a1.747 1.747 0 01-1.745-1.744 1.747 1.747 0 013.491 0c0 .962-.783 1.744-1.746 1.744zm7.01-22.954a1.308 1.308 0 00-1.031-.5H8.081L6.903 1.003A1.31 1.31 0 005.63 0H1.31a1.308 1.308 0 100 2.616h3.286l4.255 17.786a1.309 1.309 0 001.274 1.004h20.38c.602 0 1.127-.41 1.271-.994l3.186-12.86a1.311 1.311 0 00-.24-1.121zM29.48 18.79H11.158L8.708 8.545h23.31L29.481 18.79zm-17.61 4.49a4.367 4.367 0 00-4.364 4.36A4.367 4.367 0 0011.871 32a4.367 4.367 0 004.364-4.36 4.367 4.367 0 00-4.364-4.36zm0 6.104a1.747 1.747 0 01-1.745-1.744 1.747 1.747 0 013.491 0c0 .962-.783 1.744-1.745 1.744z" fill="#fff"/></svg>