<svg width="24" height="24" fill="none" xmlns="http://www.w3.org/2000/svg"><path d="M22.71 0H1.313C.935 0 .589.21.417.546c-.175.34-.144.75.079 1.06l7.84 11.043.007.012c.285.384.439.85.44 1.329v9.003a1 1 0 001.396.928l4.405-1.68c.394-.12.656-.493.656-.941v-7.31c.001-.479.155-.945.44-1.33l.008-.01 7.839-11.044c.223-.31.254-.72.079-1.06A1.005 1.005 0 0022.71 0zm-8.012 11.939a3.468 3.468 0 00-.676 2.05v7.163l-4.02 1.533V13.99a3.467 3.467 0 00-.677-2.051l-7.61-10.72h20.593l-7.61 10.72z" fill="#333"/></svg>