<svg width="36" height="35" fill="none" xmlns="http://www.w3.org/2000/svg"><path d="M18 34.705a2.05 2.05 0 01-1.392-.55 413.083 413.083 0 00-4.093-3.712l-.007-.006c-3.626-3.258-6.758-6.072-8.937-8.844C1.135 18.495 0 15.557 0 12.347c0-3.118 1.014-5.995 2.856-8.1 1.863-2.131 4.42-3.305 7.2-3.305 2.079 0 3.982.693 5.657 2.059A11.92 11.92 0 0118 5.518 11.946 11.946 0 0120.287 3C21.962 1.635 23.865.942 25.943.942c2.78 0 5.338 1.174 7.201 3.304C34.986 6.352 36 9.23 36 12.347c0 3.21-1.134 6.148-3.57 9.246-2.18 2.772-5.311 5.585-8.937 8.843a421.188 421.188 0 00-4.102 3.719c-.384.355-.879.55-1.391.55zm-7.943-31.54c-2.184 0-4.191.92-5.65 2.588-1.482 1.694-2.298 4.036-2.298 6.594 0 2.7.951 5.114 3.085 7.828 2.062 2.623 5.13 5.38 8.682 8.57l.007.006c1.241 1.115 2.649 2.38 4.114 3.73a499.814 499.814 0 014.128-3.737c3.551-3.19 6.619-5.946 8.681-8.57 2.134-2.713 3.085-5.127 3.085-7.827 0-2.558-.816-4.9-2.297-6.594-1.46-1.669-3.466-2.588-5.65-2.588-1.6 0-3.07.537-4.367 1.594-1.156.943-1.962 2.134-2.434 2.968-.242.429-.67.685-1.143.685s-.9-.256-1.143-.685c-.472-.834-1.278-2.025-2.434-2.968-1.297-1.057-2.766-1.594-4.366-1.594z" fill="#333"/></svg>