<svg width="36" height="33" fill="none" xmlns="http://www.w3.org/2000/svg"><path d="M18 33a2.075 2.075 0 01-1.392-.539 420.704 420.704 0 00-4.093-3.627l-.007-.006c-3.626-3.185-6.758-5.935-8.937-8.644C1.135 17.156 0 14.284 0 11.147 0 8.1 1.014 5.287 2.856 3.23 4.719 1.147 7.276 0 10.056 0c2.079 0 3.982.677 5.657 2.012A11.776 11.776 0 0118 4.472a11.777 11.777 0 012.287-2.46C21.962.677 23.865 0 25.943 0c2.78 0 5.338 1.147 7.201 3.23C34.986 5.287 36 8.1 36 11.146c0 3.137-1.134 6.009-3.57 9.037-2.18 2.71-5.31 5.459-8.937 8.643a416.51 416.51 0 00-4.102 3.635 2.074 2.074 0 01-1.391.538zM10.057 2.173a7.493 7.493 0 00-5.65 2.53c-1.482 1.655-2.298 3.944-2.298 6.444 0 2.639.951 4.998 3.085 7.65 2.062 2.564 5.129 5.258 8.68 8.375l.002.002.007.006c1.241 1.09 2.649 2.326 4.114 3.646a495.59 495.59 0 014.128-3.652l.01-.009c3.547-3.115 6.61-5.805 8.671-8.367 2.134-2.653 3.085-5.012 3.085-7.65 0-2.501-.816-4.79-2.297-6.446a7.492 7.492 0 00-5.65-2.53c-1.6 0-3.07.525-4.367 1.558-1.156.922-1.962 2.087-2.434 2.902-.242.419-.67.669-1.143.669s-.9-.25-1.143-.67c-.472-.814-1.278-1.98-2.434-2.9-1.297-1.034-2.766-1.558-4.366-1.558z" fill="#DC0000"/></svg>