<svg xmlns="http://www.w3.org/2000/svg" width="36" height="33" fill="none"><path d="M18 33a2.075 2.075 0 01-1.392-.539 420.704 420.704 0 00-4.093-3.627l-.007-.006c-3.626-3.185-6.758-5.935-8.937-8.644C1.135 17.156 0 14.284 0 11.147 0 8.1 1.014 5.287 2.856 3.23 4.719 1.147 7.276 0 10.056 0c2.079 0 3.982.677 5.657 2.012A11.776 11.776 0 0118 4.472a11.777 11.777 0 012.287-2.46C21.962.677 23.865 0 25.943 0c2.78 0 5.338 1.147 7.201 3.23C34.986 5.287 36 8.1 36 11.146c0 3.137-1.134 6.009-3.57 9.037-2.18 2.71-5.31 5.459-8.937 8.643a416.51 416.51 0 00-4.102 3.635 2.074 2.074 0 01-1.391.538z" fill="#DC0000"/></svg>