<svg width="24" height="24" fill="none" xmlns="http://www.w3.org/2000/svg"><g clip-path="url(#clip0_2888_405)" fill="#333"><path d="M12 0C7.065 0 3.05 4.016 3.05 8.953c0 7.356 8.06 14.538 8.402 14.84a.827.827 0 001.096 0c.343-.302 8.402-7.484 8.402-14.84C20.95 4.016 16.935 0 12 0zm0 22.035c-1.782-1.726-7.292-7.517-7.292-13.082 0-4.023 3.271-7.296 7.292-7.296s7.292 3.273 7.292 7.296c0 5.565-5.51 11.356-7.292 13.082z"/><path d="M12 4.782c-2.285 0-4.143 1.872-4.143 4.171 0 2.3 1.858 4.171 4.143 4.171 2.285 0 4.143-1.87 4.143-4.17S14.285 4.781 12 4.781zm0 6.685c-1.37 0-2.486-1.128-2.486-2.514S10.629 6.44 12 6.44c1.37 0 2.486 1.127 2.486 2.513S13.371 11.467 12 11.467z"/></g><defs><clipPath id="clip0_2888_405"><path fill="#fff" d="M0 0h24v24H0z"/></clipPath></defs></svg>