<svg xmlns="http://www.w3.org/2000/svg" viewBox="0 0 1672 1254"><g stroke-width="2" fill="none" stroke="#acc59e"><path vector-effect="non-scaling-stroke" d="M1164.38 748.21q-2.09 2.81-3.92 6.57c-1.03 2.12-2.8 3.73-3.77 5.97q-.91 2.1-2.11 3.84-2.26 3.26-4.14 6.77-.83 1.56-1.76 2.95c-1.56 2.32-3.71 4.95-3.23 7.79.42 2.44 2.46 4.22 4.97 4.22q67.3-.12 133.81-.04.52 0 .52.52v73.98a.29.29 0 00.29.29l36.93-.01a.28.28 0 00.28-.28l-.02-73.98a.57.57 0 01.57-.57q66.12.03 133.51.05c2.99 0 5.48-2.29 5.15-5.31q-.23-2.1-1.74-4.62-33.11-55.39-65.1-109.37c-1.54-2.61-5.07-7.79.88-8.44q7.49-.82 16.18-1.68c4.24-.42 5.67-5.12 3.69-8.48q-7.41-12.64-14.29-24.47c-.73-1.26-1.71-2.36-2.35-3.65q-.66-1.34-1.44-2.68-11.83-20.42-23.08-39.89-5.67-9.82-10.81-18.19-1.13-1.83-2.36-4.29c-.88-1.75-.97-4.37 1.48-4.75q4.49-.71 9.16-1.69c2.49-.53 4.19-1.92 4.43-4.44q.15-1.66-1.31-4.26-5.34-9.53-10.6-18.58-14.15-24.34-28.12-48.74a2.46 2.46 0 011.49-3.59q2.74-.74 5.48-1.92c3.19-1.38 3.01-5.43 1.43-7.96q-.39-.63-.78-1.3-6.76-11.65-13.58-23.55-.66-1.14-1.5-2.17-.86-1.06-1.38-2.28-.71-1.68-1.68-3.35-7.88-13.61-15.61-27.08-.53-.9-1.16-1.75-.81-1.08-1.45-2.35-.82-1.62-2.21-2.21c-2.48-1.05-4.61.02-5.69 2.47q-1.17 2.69-2.95 5.24-1.73 2.47-2.71 4.65-1.15 2.54-2.74 4.69c-1.28 1.72-2.01 3.38-2.96 5.22q-.4.75-2.34 3.86-1.75 2.82-2.99 5.51c-.87 1.87-2.58 3.85-3.63 6.04q-1.52 3.18-3.51 6.02-1.3 1.86-2.27 3.96-.93 2.04-2.3 4.06-1.78 2.63-3.48 5.87-1.8 3.42-4.01 6.61a.88.86 62.7 00-.15.49q.01.14-.01.28-.04.25-.2.46-2.33 3.04-1.12 6.36.64 1.76 2.51 2.42 2.55.92 5.11 1.83 1.76.64 1.82 2.32c.05 1.42-1.53 2.54-2.11 3.81q-1.43 3.15-3.22 6.01-1.87 3.01-3.41 5.9c-1.5 2.83-3.46 5.31-4.77 8.24q-.82 1.81-1.96 3.5-1.53 2.25-3 5.19-1.73 3.45-4.19 6.68c-.73.95-.74 2.33-1.42 3.37q-2.07 3.17-4.16 6.39c-.69 1.07-.61 2.12-1.41 3.22q-2.39 3.27-4.15 6.88-1.18 2.42-2.81 4.83-1.63 2.4-3.12 5.66c-1.52 3.32-.02 6.78 3.71 7.47q4.55.84 8.87 1.71c2.25.45 3.07 2.2 2.18 4.25-.65 1.51-1.74 2.47-2.47 3.93q-1.75 3.47-3.86 6.66-1.44 2.18-2.69 4.74-1.2 2.44-2.81 4.71-1.1 1.54-2.08 3.69-.88 1.93-2.07 3.71-1.59 2.36-3.19 5.43-1.15 2.19-2.5 4.25-1.26 1.92-2.3 3.91-1.07 2.02-2.35 3.92-1.9 2.81-3.32 5.83-1.3 2.78-3.5 5.53c-1.16 1.45-1.25 3.31-2.42 4.82q-2.31 2.98-3.78 6.37-.95 2.18-3.1 4.94c-1.64 2.1-2.05 4.59-3.69 6.77q-2.1 2.79-3.63 5.96-1.48 3.06-3.7 6.04-2.66 3.56-1.83 7.32.33 1.53 1.59 2.64.81.72 2.05.86 8.43.92 17.21 1.87 2.44.26 2.76 2.33.21 1.38-.82 3.32-2.95 5.57-6.37 10.47c-.37.54-.44 1.52-.86 2.14q-2.2 3.27-4.13 6.27-.73 1.14-1.17 2.38c-.83 2.3-2.89 4.12-3.93 6.45-1.44 3.26-3.64 5.9-5.25 9.02q-2.21 4.29-5.3 8.52a.67.61-27.2 00-.13.35q-.03.2.01.4a1.08 1.06 59.1 01-.21.86q-3.15 4-5.16 8.27-.87 1.85-2.13 3.41-1.28 1.58-2.13 3.38-2.11 4.43-5.16 8.33-.4.51-.47 1.16-.06.49-.32.91-2.05 3.19-4.1 6.37-.46.7-1.44 2.89-.53 1.19-1.41 2.37m-91.55 45.03c7.26 9.47 17.97 1.26 17.97-8.23q.03-157.64 0-315.99 0-5.37-3.78-9.42c-2.99-3.2-7.61-4.1-11.32-1.55-3.75 2.56-5.7 6.69-5.7 11.16q.04 156.67-.05 311.14c0 4.75-.23 8.82 2.88 12.89M249.11 482.78c2.23-2.13 5.16-3.8 7.82-5.59q2.1-1.43 4.34-2.23 2.3-.84 4.5-1.79.58-.25.82.34 1.47 3.58 1.99 6.6.95 5.49 1.29 6.69 1.84 6.45 3.81 13.15c.3 1.01.1 1.95.34 2.94q1.45 6.01 3.4 12.35c.5 1.61.68 3.39 1.08 4.98q2.01 7.92 4.17 16.44.44 1.73.79 3.05 2.21 8.45 4.79 18.68a5.58 5.57-46 01.04 2.51l-14.81 69.14a.59.58-84 00.57.71l35.71-.01q.53 0 .64-.52 3.34-15.49 6.71-31.28.32-1.48.51-3 .14-1.13.49-2.57 3.64-14.97 7.08-32.6.36-1.82 2.39-5.59.04-.08.04-.16v-.54q0-.43.21-.81 2.95-5.53 4.83-10.66 1.52-4.14 3.91-8.26c.79-1.36.79-2.96 1.52-4.39q2.26-4.44 4.14-8.35c.37-.78.24-1.58.59-2.29q2.2-4.52 4.39-8.88c.45-.89.38-1.73.78-2.62q1.35-2.96 2.74-5.69 1.35-2.63 2.71-6.38 1.25-3.46 3.54-7.16c.79-1.27.73-3.14 1.48-4.54q2.27-4.23 4.12-8.32c.36-.8.39-1.8.79-2.58q3.57-6.94 6.75-14.2.28-.63-.41-.63l-13.97-.01q-.65 0-.84.61c-.43 1.39-.86 2.82-1.58 4.08q-1.49 2.64-2.28 5.5-.72 2.64-1.9 4.91-2.02 3.86-3.31 7.66-1.03 2.98-2.08 5.06-1.43 2.85-2.29 5.39-1.34 4.01-2.96 7.29-1.78 3.6-2.81 6.63-1.14 3.33-2.75 6.68-1.38 2.86-2.86 6.91-1.37 3.77-4.01 9c-.32.63-.09 1.18-.38 1.85q-2 4.59-4.27 9.24-.48.99-.85-.06-1.2-3.46-1.84-7.25-.64-3.72-1.47-7.02-1.72-6.83-3.59-12.91-.5-1.63-.97-5.24c-.52-3.96-1.98-7.95-2.87-11.83q-.05-.22-.23-.37a.45.42-77.8 01-.16-.27l-8.35-35.89a1 .99-3.3 00-.86-.76q-13.51-1.41-26.81 1.66c-2.85.66-5.52 1.81-8.38 2.52q-.55.13-.99.47-.44.35-1 .32-.77-.04-1.53.2c-3.44 1.09-5.76 2.5-8.73 3.71q-2.81 1.15-5.44 2.59-4.31 2.35-8.21 4.87-11.36 7.32-19.51 18.24c-7.6 10.18-11.76 23.5-7.49 35.49 3.4 9.56 13.13 11.96 22.51 11.99a.52.52 0 00.45-.78q-2.09-3.54-2.51-7.03-2.26-18.8 4.54-33.55 3.63-7.9 11.98-15.84m369.84 138.08q.1-.01.17.06a.04.04 0 00.07-.03q.3-2.67.75-4.62 2.01-8.85 4.02-18.5 2.49-11.93 5.13-24.31l.69-3.2q5.95-27.22 11.65-54.45.12-.56-.46-.56l-32.01.01a.85.84 5.9 00-.83.67q-1.61 8.15-3.3 15.87-.51 2.34-1.02 4.69-5.23 24.03-10.3 48.04-1.55 7.34-2.99 10.73-2.25 5.27-5.78 9.38-3.21 3.73-8.04 5.08-2.82.78-5.18-.42c-5.09-2.6-4.74-10.23-3.69-15.22q8.81-41.79 16.52-78.03a.66.66 0 00-.65-.8l-32.15.01a.39.38-83.3 00-.37.3q-7.27 34.09-14.41 68.34c-1.98 9.5-5.09 16.64-12.15 22.32q-5.14 4.12-12.51 3.37c-6.61-.68-7.66-6.49-6.61-11.84q3.05-15.51 6.38-30.52.57-2.59 1.21-5.43 1.71-7.61 3.61-17.28 1.9-9.66 5.03-23.32c.17-.75-.01-1.79.22-2.41q.4-1.06.42-1.14 5.25-24.08 10.3-47.98a.42.42 0 00-.47-.5l-33.07 4.43a.79.78-87.3 00-.66.61q-10.18 47.7-20.4 95.61-.01.06-1.66 8.38-1.38 6.95-3.31 13.57c-.31 1.09-.06 1.96-.53 2.98q-1.51 3.32-3.4 6.16c-.76 1.13-.99 2.47-1.94 3.51q-2.48 2.71-5 4.92a6.17 6.13 22.2 01-3.67 1.53q-3.01.2-6.66.13-1.84-.03-3.1-1.23-2.25-2.14-2.86-4.41c-.8-2.97-.77-6.24-.07-9.24q2.13-9.07 4.2-18.13.42-1.84.79-3.67 6.15-30.44 12.28-58.21.19-.87-.69-.87l-31.79.02q-.62 0-.75.61l-2.08 9.71q-.32 1.46-.44-.02c-.28-3.27-1.36-6.02-4.21-7.81q-4.17-2.64-8.34-3.19c-6.82-.9-15.04-.51-21.41 2.41q-1.7.78-3.35 1.43-3.22 1.26-5.1 2.59-2.22 1.56-4.66 3.22-1.44.97-2.51 2.18-1.3 1.48-2.81 2.67-2.01 1.59-3.62 3.84-1.16 1.63-2.48 3.01-1.21 1.28-2.21 2.94-1.41 2.34-2.9 4.63-1.57 2.43-2.71 4.86-2.48 5.31-4.83 10.4-.77 1.68-1.14 3.54-.32 1.63-.93 3.38-4.73 13.61-4.82 29.51c-.06 11.03 2.44 21.94 10.28 29.54q5.13 4.98 13.26 6.73 7.53 1.63 14.7-.17 11.66-2.91 20-11.93 3.38-3.64 6.32-7.67.43-.58.62.12.86 3.19 1.77 6.6.68 2.58 1.93 4.48 1.91 2.9 3.95 4.41 9.7 7.17 22.93 3.99 5.22-1.26 11.19-4.05c2.1-.98 3.55-2.59 5.47-3.86q2.22-1.46 3.8-3.31 1.57-1.83 3.33-3.37.4-.34.58-.83.76-2.03 2.6-3.29a.65.65 0 011.02.51q.11 3.02 1.67 5.76 1.47 2.59 3.33 5.17 1.64 2.28 4 3.84 7.49 4.95 16.41 4.33 20.36-1.41 33.07-17.39.97-1.22 1.89-2.47.74-1.03.98.22 2.16 11.67 11.23 16.45 9.86 5.19 20.91 2.12 3.3-.92 6.65-2.28 2.93-1.2 5.15-2.81 3.95-2.87 6.74-5.87.75-.8.56.28l-1.67 9.78a2.33 2.32-4.7 01-1.54 1.81q-3.07 1.04-6.28 2.53-1.75.82-4.86 1.81c-3.12.99-5.66 3.16-8.59 4.54q-1.79.84-3.4 2.07-6.18 4.69-9.21 9.3-6.56 9.95-3.4 20.7 1.14 3.89 3.5 6.9 2.55 3.25 6.18 5.14 10.12 5.24 23.42 2.81 4.35-.8 7.66-2.41c.9-.44 1.71-.26 2.65-.78q11.2-6.15 16.72-17.5 4.63-9.49 6.52-19.1c.27-1.32.09-2.52.52-3.76q.43-1.23.68-2.6.79-4.13 1.95-8.46.13-.5.62-.68 4.8-1.72 9.57-3.75 4.41-1.87 7.95-4.82.8-.66 1.82-1.11c1.63-.71 2.96-2.37 4.22-3.63q.56-.57.52.23-.31 5.41-1.91 10.37a.71.71 0 00.67.92l32 .02a.39.38-83.3 00.37-.3q.99-4.69 2.12-9.63c.25-1.1-.03-2.07.32-3.17q.28-.9.49-1.81 4.78-21.07 9.1-42.26.16-.82.19-1.67.02-.64.18-1.29 1.58-6.4 3.03-12.66c1.79-7.76 7.14-20.1 15.65-22.2 7.05-1.74 10.58 3.16 10.81 9.54.22 6.16-1.09 11.71-1.97 17.77q-.4 2.68-1.18 5.54-3.99 14.54-6.62 31.64-1.42 9.21 1.8 17.24 2.09 5.22 5.8 8.44 3.33 2.88 8.57 4.62c12.98 4.3 27.17.17 36.51-9.96q.94-1.02.65.34l-1.95 9.26a.46.46 0 00.45.56l32.17-.01q.52 0 .63-.51l11.68-55.72a2.3 2.26 76.9 01.78-1.28q3.32-2.71 6.52-4.8c6.18-4.03 16.65-5.94 18.03 4.5q.6 4.56-.21 9.12c-2.36 13.12-8 30.35 2.41 41.86q3.98 4.41 10.83 6.52 13.19 4.07 25.66-1.16 3.43-1.44 6.31-3.66 3.59-2.77 5.54-4.94 3.16-3.54 6.51-8.07a.51.51 0 01.91.21q.19 1.03.58 1.96 3.64 8.56 12.01 13.84.73.46 1.59.5.5.03.93.26c6.71 3.6 15.75 3.58 22.62 1.19q2.56-.89 5.23-2.03 2.57-1.08 4.71-2.61 8.34-5.96 13.65-13.84.83-1.23 1.02.24c.45 3.37 1.5 7.8 3.74 10.47 1.5 1.77 2.27 3.69 4.37 4.9q1.96 1.13 3.84 2.16c6.89 3.77 16.85 2.64 23.83-.22q1.56-.64 3.14-1.16 1.78-.58 3.36-1.58 6.19-3.88 10.13-8.19 6.14-6.71 11.12-16.28c.49-.95.41-1.93.91-2.83q2.65-4.79 4.46-9.87a.18.18 0 00-.16-.24l-9.14-.06q-.23 0-.3.21-1.5 4.06-2.87 8.28c-.81 2.5-2.81 4.68-4.3 6.88q-1.24 1.82-3.1 3.38-2.14 1.8-4.1 2.31-3.54.94-8.47.29c-4.99-.66-5.91-8.6-5.23-12.3l1.98-10.8q.99-5.44 2.25-10.78 1.45-6.16 2.96-12.91.38-1.69.89-5c.58-3.7 1.92-8.7 2.41-10.99l6.82-32.19a.45.45 0 00-.44-.55l-32.27.01q-.56 0-.63.56-.5 3.8-1.49 8.22-.67 2.99-1.04-.06c-.7-5.73-7.65-8.89-12.75-9.46-7.77-.87-14.66-.21-21.38 2.54q-2.38.97-4.75 1.97c-2.46 1.03-4.18 2.59-6.37 3.96q-2.3 1.43-4.3 3.32-6.11 5.77-10.74 11.98-1.81 2.44-3.27 5.22-1.43 2.72-3.07 5.32-.8 1.27-1.23 2.84-.39 1.42-1.06 2.72-2.26 4.39-3.62 8.78-1.4 4.51-2.58 9.36-2.84 11.72-2.82 23.85 0 .5-.25.94-3.29 5.58-5.56 8.15-3.62 4.11-9.38 4.54-10.93.82-10-9.94.53-6.11 3.19-17.46 2.55-10.87-.55-20.29-1.95-5.93-7.2-10.44-4.29-3.68-10.1-4.69-6.34-1.11-12.63.08-1.39.26-.26-.59 1.55-1.16 3.2-2.27.17-.12.21-.31.04-.15.04-.3.01-.24.22-.35 4.38-2.34 8.41-5.48 1.42-1.11 3.55-2.37c2.09-1.23 3.7-3 5.84-4.17q1.18-.65 2.25-1.41 10.59-7.47 20.58-14.15.95-.63-.19-.63l-21.54.03q-.6 0-1.04.42c-.65.62-.68 1.11-1.53 1.73q-6.64 4.8-13.62 10.58-.82.68-1.66 1.21-.91.56-1.68 1.29-3.35 3.15-7.16 5.94-3.65 2.68-7.44 5.7-4.77 3.8-9.37 7.16-1.9 1.38-1.08-.83c1.03-2.78 1.11-5.98 1.65-8.28q1.73-7.32 3.48-15.19c.27-1.2-.03-2.5.3-3.8q3.38-13.1 6.37-27.79 2.44-12.03 5.12-23.54.18-.8-.63-.69l-32.86 4.4a.88.88 0 00-.75.69q-11.68 54.47-23.18 109.06-1.25 5.95-3.33 10.4-2.5 5.37-5.75 9.98-4.61 6.51-13.21 5.95c-4.92-.33-7.73-3.84-7.74-8.67q-.02-6.13 1.83-13.49 3.59-14.3 6.77-28.38.98-4.33 1.47-8.45.52-4.33.8-8.85c.73-11.8-4.16-23.51-16.71-26.39q-20.14-4.61-34.82 10.88-.99 1.04-.69-.36l2.16-10.18a.43.43 0 00-.42-.52h-32.22q-.49 0-.59.47-1.59 6.88-3.33 15.31-4.36 21.17-8.5 40.34-1 4.62-1.88 9.58-.94 5.36-2.36 9.58-.6 1.81-.97 3.46-.43 1.89-1.11 3.22-2.54 5.04-4.85 9.25-1.2 2.19-6.71 7.78c-1.98 2.01-4.47 3.12-6.69 4.79q-1.77 1.34-3.84 1.89-2.01.54-3.88 1.27a.43.43 0 01-.56-.54q.13-.35.09-.71-.01-.08.07-.08m-20.08 143.46l.01-20.56q0-.63-.62-.63L588 743.1a.94.92 7.8 00-.9.67q-.29 1.02.27 1.86a1.39 1.38-11.2 00.89.59l3.37.64a.92.92 0 01.74.9l.05 43.34q0 .76-.75.92l-3.6.79q-.72.15-.81.89l-.17 1.32q-.09.77.68.77l15.23.01q.56 0 .53-.56l-.12-1.92q-.04-.56-.6-.6-1.8-.13-3.32-.78-.65-.28-.65-.98.01-6.28.06-12.13c.05-6.84-.42-11.93 5.96-14.58 5.01-2.09 10.28-.26 10.59 5.87q.49 9.76.21 21.18-.02.67-.68.8l-3.3.67a.46.45-3.5 00-.36.4l-.14 2.04q-.04.58.54.58l15.28.01q.57 0 .53-.56l-.11-1.87a.63.62 3.6 00-.51-.57l-4.09-.75a.69.69 0 01-.56-.69q.15-10.11-.15-20.15c-.15-5.03-1.65-10.69-7.04-12.03q-8.86-2.21-15.53 5.39-.67.77-.67-.25m74.51-19.335a4.31 4.07-50.7 00-5.88.757 4.31 4.07-50.7 00.42 5.913 4.31 4.07-50.7 005.88-.757 4.31 4.07-50.7 00-.42-5.913M546.93 786.99q2.4 4.69 7.62 7.3 6.55 3.27 14.48 1.77 11.31-2.13 14.01-15.05a.07.07 0 00-.06-.08q-1.74-.36-3.58-.04-.22.03-.25.25-1.28 7.37-7.46 9.99c-2.86 1.21-7.34 1.37-10.32.75q-4.25-.88-7.83-5.99-1.24-1.75-1.51-3.62-.13-.94-.36-1.9-2.64-11.1.25-20.62 3.32-10.9 14.94-9.4c6.62.85 9.69 5.21 11 11.26q.14.62.77.61l2.56-.08q.82-.02.82-.83v-13.36q.01-.81-.81-.79l-2.32.06q-.64.02-.82.64l-.8 2.89q-.2.74-.73.18-4.45-4.69-12.32-4.44-10.97.35-16.33 8.04-2.23 3.2-3.24 6.63-2.2 7.46-.98 16.32.28 2.01.5 3.75.24 1.87 2.13 5.25.14.26.38.31a.36.35 81.6 01.26.2m182.37-24.38l7.53.01q.44 0 .44-.44l.05-2.49q0-.39-.38-.39l-7.69-.02q-.53 0-.53-.53l-.02-8.36q0-.38-.38-.32l-5.05.75q-.34.06-.37.41l-.7 7.55q-.05.55-.6.63l-5.15.72a.96.96 0 00-.83 1.05l.05.51q.1.91 1.01.91l5.21.01a.42.42 0 01.42.43q-.17 15.41.01 28.97c.1 7.67 9 3.36 13.03 2.44q.9-.2.99-1.04a1.04 1.04 0 00-1-1.16l-5.05-.13a1.6 1.6 0 01-1.56-1.6l-.03-27.32q0-.6.6-.59m169.2.81q-.11 14.16.06 28.05c.1 7.89 8.85 4.57 13.3 2.92a1.12 1.12 0 00.57-.48q.42-.72-.04-1.41-.24-.37-.69-.35-2.15.11-4.48.06-2.15-.03-2.16-2.24-.11-13.12-.06-26.6 0-.7.7-.7l7.33.02q.6 0 .61-.59l.03-2.11q.01-.69-.68-.69l-7.53-.05q-.53 0-.52-.53l.08-8.17q0-.49-.48-.43l-4.77.63q-.42.06-.47.48l-.78 7.32a1.03 1.02 89.3 01-.87.9l-5.19.76q-.6.09-.6.7l.01 1.03q0 .77.77.77l5.13-.02q.73 0 .73.73m-255.32 4.09q-.43 1.27-.65-.05l-1.29-7.51q-.12-.67-.8-.67h-8.63a.4.39 89.3 00-.39.41l.07 2.03q.02.47.48.57l4.24.93a.49.48-84.2 01.38.48v27.56q0 .62-.6.74l-4.04.82q-.41.08-.44.5l-.15 1.99q-.04.49.45.49h17.94q.81 0 .75-.81l-.1-1.45q-.04-.59-.62-.67l-5.92-.9a.73.73 0 01-.62-.7q-.27-10.16.21-15.39.32-3.53 1.76-7.34 1.54-4.07 4.88-5.72a1.05 1.04-6.3 011.48 1.18c-.79 3.25 1.33 5.57 4.58 4.99 3.35-.6 3.37-5.17 2.05-7.46-2.25-3.91-7.61-3.49-10.65-.77q-2.99 2.67-4.37 6.75m61.01 24.14q-1.39 1.15-2.95 1.44c-3.39.63-8.6.42-11.55-1.93a.58.57-58.5 01-.16-.7l1.62-3.38a2.4 2.4 0 00-.55-2.81q-1.62-1.47-3.88-.98c-3.13.69-3.1 4.92-1.94 6.99q3.06 5.48 9.59 6.13 5.19.51 9.12-.78 9.95-3.26 7.62-13.86c-.31-1.38-1.43-2.65-2.65-3.32q-4.43-2.4-9.1-4.14-1.53-.57-3.15-.8-2.02-.28-3.82-1.94-2.05-1.88-1.76-4.62.36-3.27 3.77-4.83 1.43-.64 3.21-.57 1.63.06 3.18.12 2.22.1 4.46 2.32.4.4-.05.74-2.96 2.26-1.48 5.35c1.07 2.22 4.41 1.95 5.59-.03q1.01-1.71.92-3.86c-.35-8.68-15.95-9.27-20.58-4.96-1.39 1.29-2.77 1.86-3.42 3.84q-1.27 3.89-.14 7.62.83 2.73 3.38 4.25 4.85 2.88 9.46 4.11.33.08.61-.1.2-.13.43-.06c3.25 1.06 7.86 4.52 6.01 8.47q-.62 1.33-1.79 2.29m69.44-25.8q-.92-4.35-4.33-6.03c-6.29-3.11-13.23.11-17.03 5.64a.49.49 0 01-.89-.18l-1.02-5.39q-.11-.6-.73-.6l-8.56-.01q-.66 0-.63.65l.07 1.67q.02.56.57.68l3.92.88q.66.15.66.83v27.1q0 .76-.75.92l-3.97.83q-.3.06-.33.36l-.21 1.98q-.07.61.54.61l15.08.02q.75 0 .75-.76.01-1.06-.33-1.99-.12-.32-.45-.35-1.78-.15-3.18-.77-.66-.29-.64-1.02.2-6.66 0-13.61-.17-5.89 1.11-8.59c2.19-4.63 9.67-7.72 13.37-2.69 1.13 1.55 1.39 4.22 1.44 6.13q.24 9.28.13 19.09-.01.61-.6.75l-3.17.76q-.64.15-.71.8l-.17 1.45q-.08.77.69.77l14.49.03q.56 0 .54-.56l-.07-1.95q-.01-.41-.42-.5l-3.31-.69q-.68-.14-.7-.83-.2-9.71.06-17.62.3-9.12 8.86-10.12 3.1-.36 5.12 2.05c1.91 2.29 1.92 6.4 1.92 9.35v16.36q0 .59-.57.73l-3.06.7q-.67.16-.76.85l-.16 1.37q-.1.84.75.84l15.06.01q.57 0 .54-.56l-.12-2.13q-.01-.19-.19-.22l-4.15-.81q-.77-.15-.75-.92.2-10.33-.22-20.29c-.23-5.48-1.54-10.91-7.93-11.99-5.85-.99-11.33 1.91-14.81 7.11q-.55.82-.75-.14m35.99 28.89c4.6 3.78 12.33 1.21 16.22-2.38q1.31-1.2 2.41-2.68a.37.37 0 01.66.18c.24 2.67-.46 7.3 4.03 6.63q3.42-.52 6.21-1.68 1.07-.45.8-1.65a.78.77-5.3 00-.73-.6l-2.6-.07a2.08 2.07.1 01-2.03-2.03q-.17-7.99-.18-15.21c-.01-6.6-1.94-14.27-9.16-16.05-5.89-1.44-17.02.46-17 8.61.01 2.18 1.51 3.83 3.74 3.76 3.99-.13 4.86-4.08 2.58-6.83a1.22 1.21 57 01.39-1.87q4.07-2.05 7.86-.5c4.04 1.65 4.72 8.13 4.82 11.88q.02.57-.54.67-6.56 1.19-13.07 3.4c-5.59 1.9-9.07 7.48-6.74 13.2q.79 1.96 2.33 3.22m53.71-3.21c-3.34 3.18-10.95 1.67-14.47-.3a.67.66-50.9 01-.11-1.08q1.18-1.03 1.74-2.52c1.96-5.17-6.94-6.97-7.19-1.26-.07 1.68-.24 3.82.8 5.25 4.26 5.83 15.36 6.04 21.53 2.78 5.33-2.81 7.25-9.81 3.49-14.45-3.02-3.73-10.47-5.57-15.09-7.18-3.19-1.12-4.9-3.94-3.64-7.33q.74-2.01 2.62-2.78 5.07-2.08 10.17.17 2.27 1.01.47 2.72c-1.84 1.73-1.72 4.83.81 5.87 2.42.98 4.88-.71 5.03-3.25.7-11.24-16.05-11.53-22-6.1-4.3 3.93-4.3 12.21 1.44 15.34q4.74 2.59 10.82 4.12 2.34.59 4.18 2.38c2.13 2.08 1.35 5.76-.6 7.62m64.54-23.95l-1.28-7.54a.94.93 84.8 00-.92-.77l-8.35.02a.63.62-.9 00-.63.64l.06 1.63q.02.57.57.69l3.93.9a.87.86 6.8 01.67.84l.01 27.23a.8.8 0 01-.64.78l-3.83.79a.84.83-3.2 00-.68.75l-.12 1.53a.67.67 0 00.67.72l17.61.01q.98 0 .89-.99l-.1-.99q-.08-.84-.91-.97l-5.67-.92q-.59-.1-.61-.7-.19-7.32.1-14.17c.17-4.13 2.38-13.76 7.43-14.23a.75.75 0 01.8.9c-1.47 6.84 7.8 7.37 7.49.77-.33-6.87-8.06-7.22-12.08-3.19q-2.48 2.49-3.77 6.32-.42 1.25-.64-.05m39.53 28.51c4.13-.58 7.4-3.4 10.19-6.61q.7-.81-.14-1.46l-.45-.34a1.36 1.35 41.1 00-1.79.12c-4.81 4.86-13.25 6.16-17.84.4q-3.23-4.06-2.39-9.64.1-.62.72-.62l22.13-.01a.74.73-87.4 00.73-.67c.71-7.67-1.76-16.35-10.32-18.17-6.65-1.41-14.31.93-17.37 7.02q-4.92 9.82-1.33 21.19 1.1 3.49 3.71 5.6 3.12 2.52 6.46 3.04 4.17.65 7.69.15m33.78-4.21c-6.93-.54-10.07-7.05-9.55-13.63a.39.39 0 01.39-.36l22.8.08a.46.45 2.7 00.46-.41c.8-7.52-1.52-16.09-9.37-18.23q-7.36-2-13.34 1.66-5.31 3.26-6.89 10.79-1.5 7.19.21 13.77 1.14 4.38 3.54 6.8 3.04 3.08 8.03 3.87 10.37 1.66 16.89-6.86.81-1.05-.4-1.59l-.49-.22a1.36 1.36 0 00-1.51.27q-4.63 4.53-10.77 4.06m-321.93 1.51a.51.51 0 00-.4-.45l-4.42-.94a.51.51 0 01-.41-.5l.16-31.69a.51.51 0 00-.51-.51l-10.86-.02a.51.51 0 00-.51.54l.12 1.97a.51.51 0 00.4.47l4.3.94a.51.51 0 01.4.5v27.75a.51.51 0 01-.41.5l-4.27.86a.51.51 0 00-.4.46l-.18 1.96a.51.51 0 00.51.56l16.15.01a.51.51 0 00.51-.56l-.18-1.85"/><path vector-effect="non-scaling-stroke" d="M383.3 587.83q-.01 5.01.17 9.34.11 2.64 1.03 5.86.38 1.31 1.14 2.08 1 1.02 1.99 2.19 1.2 1.43 2.88 2.02 5.51 1.95 10.39-.76 4.97-2.77 8.96-8.12 1.54-2.07 2.58-4.85 1.2-3.18 1.7-5.59 5.09-24.25 10.36-48.57c.47-2.16 1.77-4.33.8-6.53q-3.3-7.43-11.16-6.47c-3.04.38-6.89 2.13-9.15 4.16q-2.43 2.17-5.12 5.33-.27.31-.27.73 0 .35-.22.61-2.35 2.8-5.44 9.41-3.85 8.24-5.05 11.78-2.68 7.91-4.68 18.21-.9 4.62-.91 9.17m539.2-31.89q-1.44 3.32-2.66 6.87c-.33.97-.17 1.8-.48 2.8-2.8 8.87-8.62 38.25 2.31 43.29 4.71 2.17 9.39 1.16 13.61-1.85 1.02-.73 1.56-1.67 2.62-2.37q1.02-.66 1.74-1.63c.92-1.24 2.06-2.07 2.7-3.54q1.02-2.33 2.19-4.53c.6-1.15.62-2.19.97-3.38q.36-1.26.63-2.53 5.01-23.4 10.11-46.78c.66-3.02 2.45-5.88.47-8.87-3.56-5.4-9.29-6.21-14.93-3.8q-3.29 1.41-4.92 2.94-7.04 6.61-11.43 16.65-1.5 3.42-2.93 6.73m-352.07 91.93q-1.99.72-2.72 1.33-1.74 1.48-3.48 2.77-4.24 3.18-5.66 8.21c-1.27 4.5.64 7.71 4.36 9.95 2.39 1.44 5.63.89 7.57-1.06q1.54-1.56 3.14-3.17c1.4-1.42 1.73-3.46 2.47-4.92q4.08-8.05 4.82-16.6.08-.98-.87-.77-3.79.86-6.92 2.91-1.26.83-2.71 1.35m252.57 130c-5.61 1.67-11.14 3.73-9.27 11.14 1.31 5.21 7.58 3.87 10.62 1.25 3.98-3.42 3.67-7.78 3.43-12.49q-.04-.66-.7-.58-3.12.4-4.08.68m132.78-3.15h15.68a.46.46 0 00.46-.46v-2.2a9.72 7.55-90 00-7.55-9.72h-1.5a9.72 7.55 90 00-7.55 9.72v2.2a.46.46 0 00.46.46m36.75-.01l15.64.02a.57.57 0 00.57-.57v-1.54a10.27 7.61-89.9 00-7.59-10.28h-1.56a10.27 7.61-89.9 00-7.63 10.26v1.54a.57.57 0 00.57.57"/></g><path fill="#fff" d="M0 0h1672v1254H0V0zm1164.38 748.21q-2.09 2.81-3.92 6.57c-1.03 2.12-2.8 3.73-3.77 5.97q-.91 2.1-2.11 3.84-2.26 3.26-4.14 6.77-.83 1.56-1.76 2.95c-1.56 2.32-3.71 4.95-3.23 7.79.42 2.44 2.46 4.22 4.97 4.22q67.3-.12 133.81-.04.52 0 .52.52v73.98a.29.29 0 00.29.29l36.93-.01a.28.28 0 00.28-.28l-.02-73.98a.57.57 0 01.57-.57q66.12.03 133.51.05c2.99 0 5.48-2.29 5.15-5.31q-.23-2.1-1.74-4.62-33.11-55.39-65.1-109.37c-1.54-2.61-5.07-7.79.88-8.44q7.49-.82 16.18-1.68c4.24-.42 5.67-5.12 3.69-8.48q-7.41-12.64-14.29-24.47c-.73-1.26-1.71-2.36-2.35-3.65q-.66-1.34-1.44-2.68-11.83-20.42-23.08-39.89-5.67-9.82-10.81-18.19-1.13-1.83-2.36-4.29c-.88-1.75-.97-4.37 1.48-4.75q4.49-.71 9.16-1.69c2.49-.53 4.19-1.92 4.43-4.44q.15-1.66-1.31-4.26-5.34-9.53-10.6-18.58-14.15-24.34-28.12-48.74a2.46 2.46 0 011.49-3.59q2.74-.74 5.48-1.92c3.19-1.38 3.01-5.43 1.43-7.96q-.39-.63-.78-1.3-6.76-11.65-13.58-23.55-.66-1.14-1.5-2.17-.86-1.06-1.38-2.28-.71-1.68-1.68-3.35-7.88-13.61-15.61-27.08-.53-.9-1.16-1.75-.81-1.08-1.45-2.35-.82-1.62-2.21-2.21c-2.48-1.05-4.61.02-5.69 2.47q-1.17 2.69-2.95 5.24-1.73 2.47-2.71 4.65-1.15 2.54-2.74 4.69c-1.28 1.72-2.01 3.38-2.96 5.22q-.4.75-2.34 3.86-1.75 2.82-2.99 5.51c-.87 1.87-2.58 3.85-3.63 6.04q-1.52 3.18-3.51 6.02-1.3 1.86-2.27 3.96-.93 2.04-2.3 4.06-1.78 2.63-3.48 5.87-1.8 3.42-4.01 6.61a.88.86 62.7 00-.15.49q.01.14-.01.28-.04.25-.2.46-2.33 3.04-1.12 6.36.64 1.76 2.51 2.42 2.55.92 5.11 1.83 1.76.64 1.82 2.32c.05 1.42-1.53 2.54-2.11 3.81q-1.43 3.15-3.22 6.01-1.87 3.01-3.41 5.9c-1.5 2.83-3.46 5.31-4.77 8.24q-.82 1.81-1.96 3.5-1.53 2.25-3 5.19-1.73 3.45-4.19 6.68c-.73.95-.74 2.33-1.42 3.37q-2.07 3.17-4.16 6.39c-.69 1.07-.61 2.12-1.41 3.22q-2.39 3.27-4.15 6.88-1.18 2.42-2.81 4.83-1.63 2.4-3.12 5.66c-1.52 3.32-.02 6.78 3.71 7.47q4.55.84 8.87 1.71c2.25.45 3.07 2.2 2.18 4.25-.65 1.51-1.74 2.47-2.47 3.93q-1.75 3.47-3.86 6.66-1.44 2.18-2.69 4.74-1.2 2.44-2.81 4.71-1.1 1.54-2.08 3.69-.88 1.93-2.07 3.71-1.59 2.36-3.19 5.43-1.15 2.19-2.5 4.25-1.26 1.92-2.3 3.91-1.07 2.02-2.35 3.92-1.9 2.81-3.32 5.83-1.3 2.78-3.5 5.53c-1.16 1.45-1.25 3.31-2.42 4.82q-2.31 2.98-3.78 6.37-.95 2.18-3.1 4.94c-1.64 2.1-2.05 4.59-3.69 6.77q-2.1 2.79-3.63 5.96-1.48 3.06-3.7 6.04-2.66 3.56-1.83 7.32.33 1.53 1.59 2.64.81.72 2.05.86 8.43.92 17.21 1.87 2.44.26 2.76 2.33.21 1.38-.82 3.32-2.95 5.57-6.37 10.47c-.37.54-.44 1.52-.86 2.14q-2.2 3.27-4.13 6.27-.73 1.14-1.17 2.38c-.83 2.3-2.89 4.12-3.93 6.45-1.44 3.26-3.64 5.9-5.25 9.02q-2.21 4.29-5.3 8.52a.67.61-27.2 00-.13.35q-.03.2.01.4a1.08 1.06 59.1 01-.21.86q-3.15 4-5.16 8.27-.87 1.85-2.13 3.41-1.28 1.58-2.13 3.38-2.11 4.43-5.16 8.33-.4.51-.47 1.16-.06.49-.32.91-2.05 3.19-4.1 6.37-.46.7-1.44 2.89-.53 1.19-1.41 2.37zm-91.55 45.03c7.26 9.47 17.97 1.26 17.97-8.23q.03-157.64 0-315.99 0-5.37-3.78-9.42c-2.99-3.2-7.61-4.1-11.32-1.55-3.75 2.56-5.7 6.69-5.7 11.16q.04 156.67-.05 311.14c0 4.75-.23 8.82 2.88 12.89zM249.11 482.78c2.23-2.13 5.16-3.8 7.82-5.59q2.1-1.43 4.34-2.23 2.3-.84 4.5-1.79.58-.25.82.34 1.47 3.58 1.99 6.6.95 5.49 1.29 6.69 1.84 6.45 3.81 13.15c.3 1.01.1 1.95.34 2.94q1.45 6.01 3.4 12.35c.5 1.61.68 3.39 1.08 4.98q2.01 7.92 4.17 16.44.44 1.73.79 3.05 2.21 8.45 4.79 18.68a5.58 5.57-46 01.04 2.51l-14.81 69.14a.59.58-84 00.57.71l35.71-.01q.53 0 .64-.52 3.34-15.49 6.71-31.28.32-1.48.51-3 .14-1.13.49-2.57 3.64-14.97 7.08-32.6.36-1.82 2.39-5.59.04-.08.04-.16v-.54q0-.43.21-.81 2.95-5.53 4.83-10.66 1.52-4.14 3.91-8.26c.79-1.36.79-2.96 1.52-4.39q2.26-4.44 4.14-8.35c.37-.78.24-1.58.59-2.29q2.2-4.52 4.39-8.88c.45-.89.38-1.73.78-2.62q1.35-2.96 2.74-5.69 1.35-2.63 2.71-6.38 1.25-3.46 3.54-7.16c.79-1.27.73-3.14 1.48-4.54q2.27-4.23 4.12-8.32c.36-.8.39-1.8.79-2.58q3.57-6.94 6.75-14.2.28-.63-.41-.63l-13.97-.01q-.65 0-.84.61c-.43 1.39-.86 2.82-1.58 4.08q-1.49 2.64-2.28 5.5-.72 2.64-1.9 4.91-2.02 3.86-3.31 7.66-1.03 2.98-2.08 5.06-1.43 2.85-2.29 5.39-1.34 4.01-2.96 7.29-1.78 3.6-2.81 6.63-1.14 3.33-2.75 6.68-1.38 2.86-2.86 6.91-1.37 3.77-4.01 9c-.32.63-.09 1.18-.38 1.85q-2 4.59-4.27 9.24-.48.99-.85-.06-1.2-3.46-1.84-7.25-.64-3.72-1.47-7.02-1.72-6.83-3.59-12.91-.5-1.63-.97-5.24c-.52-3.96-1.98-7.95-2.87-11.83q-.05-.22-.23-.37a.45.42-77.8 01-.16-.27l-8.35-35.89a1 .99-3.3 00-.86-.76q-13.51-1.41-26.81 1.66c-2.85.66-5.52 1.81-8.38 2.52q-.55.13-.99.47-.44.35-1 .32-.77-.04-1.53.2c-3.44 1.09-5.76 2.5-8.73 3.71q-2.81 1.15-5.44 2.59-4.31 2.35-8.21 4.87-11.36 7.32-19.51 18.24c-7.6 10.18-11.76 23.5-7.49 35.49 3.4 9.56 13.13 11.96 22.51 11.99a.52.52 0 00.45-.78q-2.09-3.54-2.51-7.03-2.26-18.8 4.54-33.55 3.63-7.9 11.98-15.84zm369.84 138.08q.1-.01.17.06a.04.04 0 00.07-.03q.3-2.67.75-4.62 2.01-8.85 4.02-18.5 2.49-11.93 5.13-24.31l.69-3.2q5.95-27.22 11.65-54.45.12-.56-.46-.56l-32.01.01a.85.84 5.9 00-.83.67q-1.61 8.15-3.3 15.87-.51 2.34-1.02 4.69-5.23 24.03-10.3 48.04-1.55 7.34-2.99 10.73-2.25 5.27-5.78 9.38-3.21 3.73-8.04 5.08-2.82.78-5.18-.42c-5.09-2.6-4.74-10.23-3.69-15.22q8.81-41.79 16.52-78.03a.66.66 0 00-.65-.8l-32.15.01a.39.38-83.3 00-.37.3q-7.27 34.09-14.41 68.34c-1.98 9.5-5.09 16.64-12.15 22.32q-5.14 4.12-12.51 3.37c-6.61-.68-7.66-6.49-6.61-11.84q3.05-15.51 6.38-30.52.57-2.59 1.21-5.43 1.71-7.61 3.61-17.28 1.9-9.66 5.03-23.32c.17-.75-.01-1.79.22-2.41q.4-1.06.42-1.14 5.25-24.08 10.3-47.98a.42.42 0 00-.47-.5l-33.07 4.43a.79.78-87.3 00-.66.61q-10.18 47.7-20.4 95.61-.01.06-1.66 8.38-1.38 6.95-3.31 13.57c-.31 1.09-.06 1.96-.53 2.98q-1.51 3.32-3.4 6.16c-.76 1.13-.99 2.47-1.94 3.51q-2.48 2.71-5 4.92a6.17 6.13 22.2 01-3.67 1.53q-3.01.2-6.66.13-1.84-.03-3.1-1.23-2.25-2.14-2.86-4.41c-.8-2.97-.77-6.24-.07-9.24q2.13-9.07 4.2-18.13.42-1.84.79-3.67 6.15-30.44 12.28-58.21.19-.87-.69-.87l-31.79.02q-.62 0-.75.61l-2.08 9.71q-.32 1.46-.44-.02c-.28-3.27-1.36-6.02-4.21-7.81q-4.17-2.64-8.34-3.19c-6.82-.9-15.04-.51-21.41 2.41q-1.7.78-3.35 1.43-3.22 1.26-5.1 2.59-2.22 1.56-4.66 3.22-1.44.97-2.51 2.18-1.3 1.48-2.81 2.67-2.01 1.59-3.62 3.84-1.16 1.63-2.48 3.01-1.21 1.28-2.21 2.94-1.41 2.34-2.9 4.63-1.57 2.43-2.71 4.86-2.48 5.31-4.83 10.4-.77 1.68-1.14 3.54-.32 1.63-.93 3.38-4.73 13.61-4.82 29.51c-.06 11.03 2.44 21.94 10.28 29.54q5.13 4.98 13.26 6.73 7.53 1.63 14.7-.17 11.66-2.91 20-11.93 3.38-3.64 6.32-7.67.43-.58.62.12.86 3.19 1.77 6.6.68 2.58 1.93 4.48 1.91 2.9 3.95 4.41 9.7 7.17 22.93 3.99 5.22-1.26 11.19-4.05c2.1-.98 3.55-2.59 5.47-3.86q2.22-1.46 3.8-3.31 1.57-1.83 3.33-3.37.4-.34.58-.83.76-2.03 2.6-3.29a.65.65 0 011.02.51q.11 3.02 1.67 5.76 1.47 2.59 3.33 5.17 1.64 2.28 4 3.84 7.49 4.95 16.41 4.33 20.36-1.41 33.07-17.39.97-1.22 1.89-2.47.74-1.03.98.22 2.16 11.67 11.23 16.45 9.86 5.19 20.91 2.12 3.3-.92 6.65-2.28 2.93-1.2 5.15-2.81 3.95-2.87 6.74-5.87.75-.8.56.28l-1.67 9.78a2.33 2.32-4.7 01-1.54 1.81q-3.07 1.04-6.28 2.53-1.75.82-4.86 1.81c-3.12.99-5.66 3.16-8.59 4.54q-1.79.84-3.4 2.07-6.18 4.69-9.21 9.3-6.56 9.95-3.4 20.7 1.14 3.89 3.5 6.9 2.55 3.25 6.18 5.14 10.12 5.24 23.42 2.81 4.35-.8 7.66-2.41c.9-.44 1.71-.26 2.65-.78q11.2-6.15 16.72-17.5 4.63-9.49 6.52-19.1c.27-1.32.09-2.52.52-3.76q.43-1.23.68-2.6.79-4.13 1.95-8.46.13-.5.62-.68 4.8-1.72 9.57-3.75 4.41-1.87 7.95-4.82.8-.66 1.82-1.11c1.63-.71 2.96-2.37 4.22-3.63q.56-.57.52.23-.31 5.41-1.91 10.37a.71.71 0 00.67.92l32 .02a.39.38-83.3 00.37-.3q.99-4.69 2.12-9.63c.25-1.1-.03-2.07.32-3.17q.28-.9.49-1.81 4.78-21.07 9.1-42.26.16-.82.19-1.67.02-.64.18-1.29 1.58-6.4 3.03-12.66c1.79-7.76 7.14-20.1 15.65-22.2 7.05-1.74 10.58 3.16 10.81 9.54.22 6.16-1.09 11.71-1.97 17.77q-.4 2.68-1.18 5.54-3.99 14.54-6.62 31.64-1.42 9.21 1.8 17.24 2.09 5.22 5.8 8.44 3.33 2.88 8.57 4.62c12.98 4.3 27.17.17 36.51-9.96q.94-1.02.65.34l-1.95 9.26a.46.46 0 00.45.56l32.17-.01q.52 0 .63-.51l11.68-55.72a2.3 2.26 76.9 01.78-1.28q3.32-2.71 6.52-4.8c6.18-4.03 16.65-5.94 18.03 4.5q.6 4.56-.21 9.12c-2.36 13.12-8 30.35 2.41 41.86q3.98 4.41 10.83 6.52 13.19 4.07 25.66-1.16 3.43-1.44 6.31-3.66 3.59-2.77 5.54-4.94 3.16-3.54 6.51-8.07a.51.51 0 01.91.21q.19 1.03.58 1.96 3.64 8.56 12.01 13.84.73.46 1.59.5.5.03.93.26c6.71 3.6 15.75 3.58 22.62 1.19q2.56-.89 5.23-2.03 2.57-1.08 4.71-2.61 8.34-5.96 13.65-13.84.83-1.23 1.02.24c.45 3.37 1.5 7.8 3.74 10.47 1.5 1.77 2.27 3.69 4.37 4.9q1.96 1.13 3.84 2.16c6.89 3.77 16.85 2.64 23.83-.22q1.56-.64 3.14-1.16 1.78-.58 3.36-1.58 6.19-3.88 10.13-8.19 6.14-6.71 11.12-16.28c.49-.95.41-1.93.91-2.83q2.65-4.79 4.46-9.87a.18.18 0 00-.16-.24l-9.14-.06q-.23 0-.3.21-1.5 4.06-2.87 8.28c-.81 2.5-2.81 4.68-4.3 6.88q-1.24 1.82-3.1 3.38-2.14 1.8-4.1 2.31-3.54.94-8.47.29c-4.99-.66-5.91-8.6-5.23-12.3l1.98-10.8q.99-5.44 2.25-10.78 1.45-6.16 2.96-12.91.38-1.69.89-5c.58-3.7 1.92-8.7 2.41-10.99l6.82-32.19a.45.45 0 00-.44-.55l-32.27.01q-.56 0-.63.56-.5 3.8-1.49 8.22-.67 2.99-1.04-.06c-.7-5.73-7.65-8.89-12.75-9.46-7.77-.87-14.66-.21-21.38 2.54q-2.38.97-4.75 1.97c-2.46 1.03-4.18 2.59-6.37 3.96q-2.3 1.43-4.3 3.32-6.11 5.77-10.74 11.98-1.81 2.44-3.27 5.22-1.43 2.72-3.07 5.32-.8 1.27-1.23 2.84-.39 1.42-1.06 2.72-2.26 4.39-3.62 8.78-1.4 4.51-2.58 9.36-2.84 11.72-2.82 23.85 0 .5-.25.94-3.29 5.58-5.56 8.15-3.62 4.11-9.38 4.54-10.93.82-10-9.94.53-6.11 3.19-17.46 2.55-10.87-.55-20.29-1.95-5.93-7.2-10.44-4.29-3.68-10.1-4.69-6.34-1.11-12.63.08-1.39.26-.26-.59 1.55-1.16 3.2-2.27.17-.12.21-.31.04-.15.04-.3.01-.24.22-.35 4.38-2.34 8.41-5.48 1.42-1.11 3.55-2.37c2.09-1.23 3.7-3 5.84-4.17q1.18-.65 2.25-1.41 10.59-7.47 20.58-14.15.95-.63-.19-.63l-21.54.03q-.6 0-1.04.42c-.65.62-.68 1.11-1.53 1.73q-6.64 4.8-13.62 10.58-.82.68-1.66 1.21-.91.56-1.68 1.29-3.35 3.15-7.16 5.94-3.65 2.68-7.44 5.7-4.77 3.8-9.37 7.16-1.9 1.38-1.08-.83c1.03-2.78 1.11-5.98 1.65-8.28q1.73-7.32 3.48-15.19c.27-1.2-.03-2.5.3-3.8q3.38-13.1 6.37-27.79 2.44-12.03 5.12-23.54.18-.8-.63-.69l-32.86 4.4a.88.88 0 00-.75.69q-11.68 54.47-23.18 109.06-1.25 5.95-3.33 10.4-2.5 5.37-5.75 9.98-4.61 6.51-13.21 5.95c-4.92-.33-7.73-3.84-7.74-8.67q-.02-6.13 1.83-13.49 3.59-14.3 6.77-28.38.98-4.33 1.47-8.45.52-4.33.8-8.85c.73-11.8-4.16-23.51-16.71-26.39q-20.14-4.61-34.82 10.88-.99 1.04-.69-.36l2.16-10.18a.43.43 0 00-.42-.52h-32.22q-.49 0-.59.47-1.59 6.88-3.33 15.31-4.36 21.17-8.5 40.34-1 4.62-1.88 9.58-.94 5.36-2.36 9.58-.6 1.81-.97 3.46-.43 1.89-1.11 3.22-2.54 5.04-4.85 9.25-1.2 2.19-6.71 7.78c-1.98 2.01-4.47 3.12-6.69 4.79q-1.77 1.34-3.84 1.89-2.01.54-3.88 1.27a.43.43 0 01-.56-.54q.13-.35.09-.71-.01-.08.07-.08zm-20.08 143.46l.01-20.56q0-.63-.62-.63L588 743.1a.94.92 7.8 00-.9.67q-.29 1.02.27 1.86a1.39 1.38-11.2 00.89.59l3.37.64a.92.92 0 01.74.9l.05 43.34q0 .76-.75.92l-3.6.79q-.72.15-.81.89l-.17 1.32q-.09.77.68.77l15.23.01q.56 0 .53-.56l-.12-1.92q-.04-.56-.6-.6-1.8-.13-3.32-.78-.65-.28-.65-.98.01-6.28.06-12.13c.05-6.84-.42-11.93 5.96-14.58 5.01-2.09 10.28-.26 10.59 5.87q.49 9.76.21 21.18-.02.67-.68.8l-3.3.67a.46.45-3.5 00-.36.4l-.14 2.04q-.04.58.54.58l15.28.01q.57 0 .53-.56l-.11-1.87a.63.62 3.6 00-.51-.57l-4.09-.75a.69.69 0 01-.56-.69q.15-10.11-.15-20.15c-.15-5.03-1.65-10.69-7.04-12.03q-8.86-2.21-15.53 5.39-.67.77-.67-.25zm74.51-19.335a4.31 4.07-50.7 00-5.88.757 4.31 4.07-50.7 00.42 5.913 4.31 4.07-50.7 005.88-.757 4.31 4.07-50.7 00-.42-5.913zM546.93 786.99q2.4 4.69 7.62 7.3 6.55 3.27 14.48 1.77 11.31-2.13 14.01-15.05a.07.07 0 00-.06-.08q-1.74-.36-3.58-.04-.22.03-.25.25-1.28 7.37-7.46 9.99c-2.86 1.21-7.34 1.37-10.32.75q-4.25-.88-7.83-5.99-1.24-1.75-1.51-3.62-.13-.94-.36-1.9-2.64-11.1.25-20.62 3.32-10.9 14.94-9.4c6.62.85 9.69 5.21 11 11.26q.14.62.77.61l2.56-.08q.82-.02.82-.83v-13.36q.01-.81-.81-.79l-2.32.06q-.64.02-.82.64l-.8 2.89q-.2.74-.73.18-4.45-4.69-12.32-4.44-10.97.35-16.33 8.04-2.23 3.2-3.24 6.63-2.2 7.46-.98 16.32.28 2.01.5 3.75.24 1.87 2.13 5.25.14.26.38.31a.36.35 81.6 01.26.2zm182.37-24.38l7.53.01q.44 0 .44-.44l.05-2.49q0-.39-.38-.39l-7.69-.02q-.53 0-.53-.53l-.02-8.36q0-.38-.38-.32l-5.05.75q-.34.06-.37.41l-.7 7.55q-.05.55-.6.63l-5.15.72a.96.96 0 00-.83 1.05l.05.51q.1.91 1.01.91l5.21.01a.42.42 0 01.42.43q-.17 15.41.01 28.97c.1 7.67 9 3.36 13.03 2.44q.9-.2.99-1.04a1.04 1.04 0 00-1-1.16l-5.05-.13a1.6 1.6 0 01-1.56-1.6l-.03-27.32q0-.6.6-.59zm169.2.81q-.11 14.16.06 28.05c.1 7.89 8.85 4.57 13.3 2.92a1.12 1.12 0 00.57-.48q.42-.72-.04-1.41-.24-.37-.69-.35-2.15.11-4.48.06-2.15-.03-2.16-2.24-.11-13.12-.06-26.6 0-.7.7-.7l7.33.02q.6 0 .61-.59l.03-2.11q.01-.69-.68-.69l-7.53-.05q-.53 0-.52-.53l.08-8.17q0-.49-.48-.43l-4.77.63q-.42.06-.47.48l-.78 7.32a1.03 1.02 89.3 01-.87.9l-5.19.76q-.6.09-.6.7l.01 1.03q0 .77.77.77l5.13-.02q.73 0 .73.73zm-255.32 4.09q-.43 1.27-.65-.05l-1.29-7.51q-.12-.67-.8-.67h-8.63a.4.39 89.3 00-.39.41l.07 2.03q.02.47.48.57l4.24.93a.49.48-84.2 01.38.48v27.56q0 .62-.6.74l-4.04.82q-.41.08-.44.5l-.15 1.99q-.04.49.45.49h17.94q.81 0 .75-.81l-.1-1.45q-.04-.59-.62-.67l-5.92-.9a.73.73 0 01-.62-.7q-.27-10.16.21-15.39.32-3.53 1.76-7.34 1.54-4.07 4.88-5.72a1.05 1.04-6.3 011.48 1.18c-.79 3.25 1.33 5.57 4.58 4.99 3.35-.6 3.37-5.17 2.05-7.46-2.25-3.91-7.61-3.49-10.65-.77q-2.99 2.67-4.37 6.75zm61.01 24.14q-1.39 1.15-2.95 1.44c-3.39.63-8.6.42-11.55-1.93a.58.57-58.5 01-.16-.7l1.62-3.38a2.4 2.4 0 00-.55-2.81q-1.62-1.47-3.88-.98c-3.13.69-3.1 4.92-1.94 6.99q3.06 5.48 9.59 6.13 5.19.51 9.12-.78 9.95-3.26 7.62-13.86c-.31-1.38-1.43-2.65-2.65-3.32q-4.43-2.4-9.1-4.14-1.53-.57-3.15-.8-2.02-.28-3.82-1.94-2.05-1.88-1.76-4.62.36-3.27 3.77-4.83 1.43-.64 3.21-.57 1.63.06 3.18.12 2.22.1 4.46 2.32.4.4-.05.74-2.96 2.26-1.48 5.35c1.07 2.22 4.41 1.95 5.59-.03q1.01-1.71.92-3.86c-.35-8.68-15.95-9.27-20.58-4.96-1.39 1.29-2.77 1.86-3.42 3.84q-1.27 3.89-.14 7.62.83 2.73 3.38 4.25 4.85 2.88 9.46 4.11.33.08.61-.1.2-.13.43-.06c3.25 1.06 7.86 4.52 6.01 8.47q-.62 1.33-1.79 2.29zm69.44-25.8q-.92-4.35-4.33-6.03c-6.29-3.11-13.23.11-17.03 5.64a.49.49 0 01-.89-.18l-1.02-5.39q-.11-.6-.73-.6l-8.56-.01q-.66 0-.63.65l.07 1.67q.02.56.57.68l3.92.88q.66.15.66.83v27.1q0 .76-.75.92l-3.97.83q-.3.06-.33.36l-.21 1.98q-.07.61.54.61l15.08.02q.75 0 .75-.76.01-1.06-.33-1.99-.12-.32-.45-.35-1.78-.15-3.18-.77-.66-.29-.64-1.02.2-6.66 0-13.61-.17-5.89 1.11-8.59c2.19-4.63 9.67-7.72 13.37-2.69 1.13 1.55 1.39 4.22 1.44 6.13q.24 9.28.13 19.09-.01.61-.6.75l-3.17.76q-.64.15-.71.8l-.17 1.45q-.08.77.69.77l14.49.03q.56 0 .54-.56l-.07-1.95q-.01-.41-.42-.5l-3.31-.69q-.68-.14-.7-.83-.2-9.71.06-17.62.3-9.12 8.86-10.12 3.1-.36 5.12 2.05c1.91 2.29 1.92 6.4 1.92 9.35v16.36q0 .59-.57.73l-3.06.7q-.67.16-.76.85l-.16 1.37q-.1.84.75.84l15.06.01q.57 0 .54-.56l-.12-2.13q-.01-.19-.19-.22l-4.15-.81q-.77-.15-.75-.92.2-10.33-.22-20.29c-.23-5.48-1.54-10.91-7.93-11.99-5.85-.99-11.33 1.91-14.81 7.11q-.55.82-.75-.14zm35.99 28.89c4.6 3.78 12.33 1.21 16.22-2.38q1.31-1.2 2.41-2.68a.37.37 0 01.66.18c.24 2.67-.46 7.3 4.03 6.63q3.42-.52 6.21-1.68 1.07-.45.8-1.65a.78.77-5.3 00-.73-.6l-2.6-.07a2.08 2.07.1 01-2.03-2.03q-.17-7.99-.18-15.21c-.01-6.6-1.94-14.27-9.16-16.05-5.89-1.44-17.02.46-17 8.61.01 2.18 1.51 3.83 3.74 3.76 3.99-.13 4.86-4.08 2.58-6.83a1.22 1.21 57 01.39-1.87q4.07-2.05 7.86-.5c4.04 1.65 4.72 8.13 4.82 11.88q.02.57-.54.67-6.56 1.19-13.07 3.4c-5.59 1.9-9.07 7.48-6.74 13.2q.79 1.96 2.33 3.22zm53.71-3.21c-3.34 3.18-10.95 1.67-14.47-.3a.67.66-50.9 01-.11-1.08q1.18-1.03 1.74-2.52c1.96-5.17-6.94-6.97-7.19-1.26-.07 1.68-.24 3.82.8 5.25 4.26 5.83 15.36 6.04 21.53 2.78 5.33-2.81 7.25-9.81 3.49-14.45-3.02-3.73-10.47-5.57-15.09-7.18-3.19-1.12-4.9-3.94-3.64-7.33q.74-2.01 2.62-2.78 5.07-2.08 10.17.17 2.27 1.01.47 2.72c-1.84 1.73-1.72 4.83.81 5.87 2.42.98 4.88-.71 5.03-3.25.7-11.24-16.05-11.53-22-6.1-4.3 3.93-4.3 12.21 1.44 15.34q4.74 2.59 10.82 4.12 2.34.59 4.18 2.38c2.13 2.08 1.35 5.76-.6 7.62zm64.54-23.95l-1.28-7.54a.94.93 84.8 00-.92-.77l-8.35.02a.63.62-.9 00-.63.64l.06 1.63q.02.57.57.69l3.93.9a.87.86 6.8 01.67.84l.01 27.23a.8.8 0 01-.64.78l-3.83.79a.84.83-3.2 00-.68.75l-.12 1.53a.67.67 0 00.67.72l17.61.01q.98 0 .89-.99l-.1-.99q-.08-.84-.91-.97l-5.67-.92q-.59-.1-.61-.7-.19-7.32.1-14.17c.17-4.13 2.38-13.76 7.43-14.23a.75.75 0 01.8.9c-1.47 6.84 7.8 7.37 7.49.77-.33-6.87-8.06-7.22-12.08-3.19q-2.48 2.49-3.77 6.32-.42 1.25-.64-.05zm39.53 28.51c4.13-.58 7.4-3.4 10.19-6.61q.7-.81-.14-1.46l-.45-.34a1.36 1.35 41.1 00-1.79.12c-4.81 4.86-13.25 6.16-17.84.4q-3.23-4.06-2.39-9.64.1-.62.72-.62l22.13-.01a.74.73-87.4 00.73-.67c.71-7.67-1.76-16.35-10.32-18.17-6.65-1.41-14.31.93-17.37 7.02q-4.92 9.82-1.33 21.19 1.1 3.49 3.71 5.6 3.12 2.52 6.46 3.04 4.17.65 7.69.15zm33.78-4.21c-6.93-.54-10.07-7.05-9.55-13.63a.39.39 0 01.39-.36l22.8.08a.46.45 2.7 00.46-.41c.8-7.52-1.52-16.09-9.37-18.23q-7.36-2-13.34 1.66-5.31 3.26-6.89 10.79-1.5 7.19.21 13.77 1.14 4.38 3.54 6.8 3.04 3.08 8.03 3.87 10.37 1.66 16.89-6.86.81-1.05-.4-1.59l-.49-.22a1.36 1.36 0 00-1.51.27q-4.63 4.53-10.77 4.06zm-321.93 1.51a.51.51 0 00-.4-.45l-4.42-.94a.51.51 0 01-.41-.5l.16-31.69a.51.51 0 00-.51-.51l-10.86-.02a.51.51 0 00-.51.54l.12 1.97a.51.51 0 00.4.47l4.3.94a.51.51 0 01.4.5v27.75a.51.51 0 01-.41.5l-4.27.86a.51.51 0 00-.4.46l-.18 1.96a.51.51 0 00.51.56l16.15.01a.51.51 0 00.51-.56l-.18-1.85z"/><path fill="#588a3d" d="M1164.38 748.21q.88-1.18 1.41-2.37.98-2.19 1.44-2.89 2.05-3.18 4.1-6.37.26-.42.32-.91.07-.65.47-1.16 3.05-3.9 5.16-8.33.85-1.8 2.13-3.38 1.26-1.56 2.13-3.41 2.01-4.27 5.16-8.27a1.08 1.06 59.1 00.21-.86q-.04-.2-.01-.4a.67.61-27.2 01.13-.35q3.09-4.23 5.3-8.52c1.61-3.12 3.81-5.76 5.25-9.02 1.04-2.33 3.1-4.15 3.93-6.45q.44-1.24 1.17-2.38 1.93-3 4.13-6.27c.42-.62.49-1.6.86-2.14q3.42-4.9 6.37-10.47 1.03-1.94.82-3.32-.32-2.07-2.76-2.33-8.78-.95-17.21-1.87-1.24-.14-2.05-.86-1.26-1.11-1.59-2.64-.83-3.76 1.83-7.32 2.22-2.98 3.7-6.04 1.53-3.17 3.63-5.96c1.64-2.18 2.05-4.67 3.69-6.77q2.15-2.76 3.1-4.94 1.47-3.39 3.78-6.37c1.17-1.51 1.26-3.37 2.42-4.82q2.2-2.75 3.5-5.53 1.42-3.02 3.32-5.83 1.28-1.9 2.35-3.92 1.04-1.99 2.3-3.91 1.35-2.06 2.5-4.25 1.6-3.07 3.19-5.43 1.19-1.78 2.07-3.71.98-2.15 2.08-3.69 1.61-2.27 2.81-4.71 1.25-2.56 2.69-4.74 2.11-3.19 3.86-6.66c.73-1.46 1.82-2.42 2.47-3.93.89-2.05.07-3.8-2.18-4.25q-4.32-.87-8.87-1.71c-3.73-.69-5.23-4.15-3.71-7.47q1.49-3.26 3.12-5.66 1.63-2.41 2.81-4.83 1.76-3.61 4.15-6.88c.8-1.1.72-2.15 1.41-3.22q2.09-3.22 4.16-6.39c.68-1.04.69-2.42 1.42-3.37q2.46-3.23 4.19-6.68 1.47-2.94 3-5.19 1.14-1.69 1.96-3.5c1.31-2.93 3.27-5.41 4.77-8.24q1.54-2.89 3.41-5.9 1.79-2.86 3.22-6.01c.58-1.27 2.16-2.39 2.11-3.81q-.06-1.68-1.82-2.32-2.56-.91-5.11-1.83-1.87-.66-2.51-2.42-1.21-3.32 1.12-6.36.16-.21.2-.46.02-.14.01-.28a.88.86 62.7 01.15-.49q2.21-3.19 4.01-6.61 1.7-3.24 3.48-5.87 1.37-2.02 2.3-4.06.97-2.1 2.27-3.96 1.99-2.84 3.51-6.02c1.05-2.19 2.76-4.17 3.63-6.04q1.24-2.69 2.99-5.51 1.94-3.11 2.34-3.86c.95-1.84 1.68-3.5 2.96-5.22q1.59-2.15 2.74-4.69.98-2.18 2.71-4.65 1.78-2.55 2.95-5.24c1.08-2.45 3.21-3.52 5.69-2.47q1.39.59 2.21 2.21.64 1.27 1.45 2.35.63.85 1.16 1.75 7.73 13.47 15.61 27.08.97 1.67 1.68 3.35.52 1.22 1.38 2.28.84 1.03 1.5 2.17 6.82 11.9 13.58 23.55.39.67.78 1.3c1.58 2.53 1.76 6.58-1.43 7.96q-2.74 1.18-5.48 1.92a2.46 2.46 0 00-1.49 3.59q13.97 24.4 28.12 48.74 5.26 9.05 10.6 18.58 1.46 2.6 1.31 4.26c-.24 2.52-1.94 3.91-4.43 4.44q-4.67.98-9.16 1.69c-2.45.38-2.36 3-1.48 4.75q1.23 2.46 2.36 4.29 5.14 8.37 10.81 18.19 11.25 19.47 23.08 39.89.78 1.34 1.44 2.68c.64 1.29 1.62 2.39 2.35 3.65q6.88 11.83 14.29 24.47c1.98 3.36.55 8.06-3.69 8.48q-8.69.86-16.18 1.68c-5.95.65-2.42 5.83-.88 8.44q31.99 53.98 65.1 109.37 1.51 2.52 1.74 4.62c.33 3.02-2.16 5.31-5.15 5.31q-67.39-.02-133.51-.05a.57.57 0 00-.57.57l.02 73.98a.28.28 0 01-.28.28l-36.93.01a.29.29 0 01-.29-.29V786.8q0-.52-.52-.52-66.51-.08-133.81.04c-2.51 0-4.55-1.78-4.97-4.22-.48-2.84 1.67-5.47 3.23-7.79q.93-1.39 1.76-2.95 1.88-3.51 4.14-6.77 1.2-1.74 2.11-3.84c.97-2.24 2.74-3.85 3.77-5.97q1.83-3.76 3.92-6.57zm-91.55 45.03c-3.11-4.07-2.88-8.14-2.88-12.89q.09-154.47.05-311.14c0-4.47 1.95-8.6 5.7-11.16 3.71-2.55 8.33-1.65 11.32 1.55q3.78 4.05 3.78 9.42.03 158.35 0 315.99c0 9.49-10.71 17.7-17.97 8.23zM249.11 482.78q-8.35 7.94-11.98 15.84-6.8 14.75-4.54 33.55.42 3.49 2.51 7.03a.52.52 0 01-.45.78c-9.38-.03-19.11-2.43-22.51-11.99-4.27-11.99-.11-25.31 7.49-35.49q8.15-10.92 19.51-18.24 3.9-2.52 8.21-4.87 2.63-1.44 5.44-2.59c2.97-1.21 5.29-2.62 8.73-3.71q.76-.24 1.53-.2.56.03 1-.32.44-.34.99-.47c2.86-.71 5.53-1.86 8.38-2.52q13.3-3.07 26.81-1.66a1 .99-3.3 01.86.76l8.35 35.89a.45.42-77.8 00.16.27q.18.15.23.37c.89 3.88 2.35 7.87 2.87 11.83q.47 3.61.97 5.24 1.87 6.08 3.59 12.91.83 3.3 1.47 7.02.64 3.79 1.84 7.25.37 1.05.85.06 2.27-4.65 4.27-9.24c.29-.67.06-1.22.38-1.85q2.64-5.23 4.01-9 1.48-4.05 2.86-6.91 1.61-3.35 2.75-6.68 1.03-3.03 2.81-6.63 1.62-3.28 2.96-7.29.86-2.54 2.29-5.39 1.05-2.08 2.08-5.06 1.29-3.8 3.31-7.66 1.18-2.27 1.9-4.91.79-2.86 2.28-5.5c.72-1.26 1.15-2.69 1.58-4.08q.19-.61.84-.61l13.97.01q.69 0 .41.63-3.18 7.26-6.75 14.2c-.4.78-.43 1.78-.79 2.58q-1.85 4.09-4.12 8.32c-.75 1.4-.69 3.27-1.48 4.54q-2.29 3.7-3.54 7.16-1.36 3.75-2.71 6.38-1.39 2.73-2.74 5.69c-.4.89-.33 1.73-.78 2.62q-2.19 4.36-4.39 8.88c-.35.71-.22 1.51-.59 2.29q-1.88 3.91-4.14 8.35c-.73 1.43-.73 3.03-1.52 4.39q-2.39 4.12-3.91 8.26-1.88 5.13-4.83 10.66-.21.38-.21.81v.54q0 .08-.04.16-2.03 3.77-2.39 5.59-3.44 17.63-7.08 32.6-.35 1.44-.49 2.57-.19 1.52-.51 3-3.37 15.79-6.71 31.28-.11.52-.64.52l-35.71.01a.59.58-84 01-.57-.71l14.81-69.14a5.58 5.57-46 00-.04-2.51q-2.58-10.23-4.79-18.68-.35-1.32-.79-3.05-2.16-8.52-4.17-16.44c-.4-1.59-.58-3.37-1.08-4.98q-1.95-6.34-3.4-12.35c-.24-.99-.04-1.93-.34-2.94q-1.97-6.7-3.81-13.15-.34-1.2-1.29-6.69-.52-3.02-1.99-6.6-.24-.59-.82-.34-2.2.95-4.5 1.79-2.24.8-4.34 2.23c-2.66 1.79-5.59 3.46-7.82 5.59zm369.77 138.16q.04.36-.09.71a.43.43 0 00.56.54q1.87-.73 3.88-1.27 2.07-.55 3.84-1.89c2.22-1.67 4.71-2.78 6.69-4.79q5.51-5.59 6.71-7.78 2.31-4.21 4.85-9.25.68-1.33 1.11-3.22.37-1.65.97-3.46 1.42-4.22 2.36-9.58.88-4.96 1.88-9.58 4.14-19.17 8.5-40.34 1.74-8.43 3.33-15.31.1-.47.59-.47h32.22a.43.43 0 01.42.52l-2.16 10.18q-.3 1.4.69.36 14.68-15.49 34.82-10.88c12.55 2.88 17.44 14.59 16.71 26.39q-.28 4.52-.8 8.85-.49 4.12-1.47 8.45-3.18 14.08-6.77 28.38-1.85 7.36-1.83 13.49c.01 4.83 2.82 8.34 7.74 8.67q8.6.56 13.21-5.95 3.25-4.61 5.75-9.98 2.08-4.45 3.33-10.4 11.5-54.59 23.18-109.06a.88.88 0 01.75-.69l32.86-4.4q.81-.11.63.69-2.68 11.51-5.12 23.54-2.99 14.69-6.37 27.79c-.33 1.3-.03 2.6-.3 3.8q-1.75 7.87-3.48 15.19c-.54 2.3-.62 5.5-1.65 8.28q-.82 2.21 1.08.83 4.6-3.36 9.37-7.16 3.79-3.02 7.44-5.7 3.81-2.79 7.16-5.94.77-.73 1.68-1.29.84-.53 1.66-1.21 6.98-5.78 13.62-10.58c.85-.62.88-1.11 1.53-1.73q.44-.42 1.04-.42l21.54-.03q1.14 0 .19.63-9.99 6.68-20.58 14.15-1.07.76-2.25 1.41c-2.14 1.17-3.75 2.94-5.84 4.17q-2.13 1.26-3.55 2.37-4.03 3.14-8.41 5.48-.21.11-.22.35 0 .15-.04.3-.04.19-.21.31-1.65 1.11-3.2 2.27-1.13.85.26.59 6.29-1.19 12.63-.08 5.81 1.01 10.1 4.69 5.25 4.51 7.2 10.44 3.1 9.42.55 20.29-2.66 11.35-3.19 17.46-.93 10.76 10 9.94 5.76-.43 9.38-4.54 2.27-2.57 5.56-8.15.25-.44.25-.94-.02-12.13 2.82-23.85 1.18-4.85 2.58-9.36 1.36-4.39 3.62-8.78.67-1.3 1.06-2.72.43-1.57 1.23-2.84 1.64-2.6 3.07-5.32 1.46-2.78 3.27-5.22 4.63-6.21 10.74-11.98 2-1.89 4.3-3.32c2.19-1.37 3.91-2.93 6.37-3.96q2.37-1 4.75-1.97c6.72-2.75 13.61-3.41 21.38-2.54 5.1.57 12.05 3.73 12.75 9.46q.37 3.05 1.04.06.99-4.42 1.49-8.22.07-.56.63-.56l32.27-.01a.45.45 0 01.44.55l-6.82 32.19c-.49 2.29-1.83 7.29-2.41 10.99q-.51 3.31-.89 5-1.51 6.75-2.96 12.91-1.26 5.34-2.25 10.78l-1.98 10.8c-.68 3.7.24 11.64 5.23 12.3q4.93.65 8.47-.29 1.96-.51 4.1-2.31 1.86-1.56 3.1-3.38c1.49-2.2 3.49-4.38 4.3-6.88q1.37-4.22 2.87-8.28.07-.21.3-.21l9.14.06a.18.18 0 01.16.24q-1.81 5.08-4.46 9.87c-.5.9-.42 1.88-.91 2.83q-4.98 9.57-11.12 16.28-3.94 4.31-10.13 8.19-1.58 1-3.36 1.58-1.58.52-3.14 1.16c-6.98 2.86-16.94 3.99-23.83.22q-1.88-1.03-3.84-2.16c-2.1-1.21-2.87-3.13-4.37-4.9-2.24-2.67-3.29-7.1-3.74-10.47q-.19-1.47-1.02-.24-5.31 7.88-13.65 13.84-2.14 1.53-4.71 2.61-2.67 1.14-5.23 2.03c-6.87 2.39-15.91 2.41-22.62-1.19q-.43-.23-.93-.26-.86-.04-1.59-.5-8.37-5.28-12.01-13.84-.39-.93-.58-1.96a.51.51 0 00-.91-.21q-3.35 4.53-6.51 8.07-1.95 2.17-5.54 4.94-2.88 2.22-6.31 3.66-12.47 5.23-25.66 1.16-6.85-2.11-10.83-6.52c-10.41-11.51-4.77-28.74-2.41-41.86q.81-4.56.21-9.12c-1.38-10.44-11.85-8.53-18.03-4.5q-3.2 2.09-6.52 4.8a2.3 2.26 76.9 00-.78 1.28l-11.68 55.72q-.11.51-.63.51l-32.17.01a.46.46 0 01-.45-.56l1.95-9.26q.29-1.36-.65-.34c-9.34 10.13-23.53 14.26-36.51 9.96q-5.24-1.74-8.57-4.62-3.71-3.22-5.8-8.44-3.22-8.03-1.8-17.24 2.63-17.1 6.62-31.64.78-2.86 1.18-5.54c.88-6.06 2.19-11.61 1.97-17.77-.23-6.38-3.76-11.28-10.81-9.54-8.51 2.1-13.86 14.44-15.65 22.2q-1.45 6.26-3.03 12.66-.16.65-.18 1.29-.03.85-.19 1.67-4.32 21.19-9.1 42.26-.21.91-.49 1.81c-.35 1.1-.07 2.07-.32 3.17q-1.13 4.94-2.12 9.63a.39.38-83.3 01-.37.3l-32-.02a.71.71 0 01-.67-.92q1.6-4.96 1.91-10.37.04-.8-.52-.23c-1.26 1.26-2.59 2.92-4.22 3.63q-1.02.45-1.82 1.11-3.54 2.95-7.95 4.82-4.77 2.03-9.57 3.75-.49.18-.62.68-1.16 4.33-1.95 8.46-.25 1.37-.68 2.6c-.43 1.24-.25 2.44-.52 3.76q-1.89 9.61-6.52 19.1-5.52 11.35-16.72 17.5c-.94.52-1.75.34-2.65.78q-3.31 1.61-7.66 2.41-13.3 2.43-23.42-2.81-3.63-1.89-6.18-5.14-2.36-3.01-3.5-6.9-3.16-10.75 3.4-20.7 3.03-4.61 9.21-9.3 1.61-1.23 3.4-2.07c2.93-1.38 5.47-3.55 8.59-4.54q3.11-.99 4.86-1.81 3.21-1.49 6.28-2.53a2.33 2.32-4.7 001.54-1.81l1.67-9.78q.19-1.08-.56-.28-2.79 3-6.74 5.87-2.22 1.61-5.15 2.81-3.35 1.36-6.65 2.28-11.05 3.07-20.91-2.12-9.07-4.78-11.23-16.45-.24-1.25-.98-.22-.92 1.25-1.89 2.47-12.71 15.98-33.07 17.39-8.92.62-16.41-4.33-2.36-1.56-4-3.84-1.86-2.58-3.33-5.17-1.56-2.74-1.67-5.76a.65.65 0 00-1.02-.51q-1.84 1.26-2.6 3.29-.18.49-.58.83-1.76 1.54-3.33 3.37-1.58 1.85-3.8 3.31c-1.92 1.27-3.37 2.88-5.47 3.86q-5.97 2.79-11.19 4.05-13.23 3.18-22.93-3.99-2.04-1.51-3.95-4.41-1.25-1.9-1.93-4.48-.91-3.41-1.77-6.6-.19-.7-.62-.12-2.94 4.03-6.32 7.67-8.34 9.02-20 11.93-7.17 1.8-14.7.17-8.13-1.75-13.26-6.73c-7.84-7.6-10.34-18.51-10.28-29.54q.09-15.9 4.82-29.51.61-1.75.93-3.38.37-1.86 1.14-3.54 2.35-5.09 4.83-10.4 1.14-2.43 2.71-4.86 1.49-2.29 2.9-4.63 1-1.66 2.21-2.94 1.32-1.38 2.48-3.01 1.61-2.25 3.62-3.84 1.51-1.19 2.81-2.67 1.07-1.21 2.51-2.18 2.44-1.66 4.66-3.22 1.88-1.33 5.1-2.59 1.65-.65 3.35-1.43c6.37-2.92 14.59-3.31 21.41-2.41q4.17.55 8.34 3.19c2.85 1.79 3.93 4.54 4.21 7.81q.12 1.48.44.02l2.08-9.71q.13-.61.75-.61l31.79-.02q.88 0 .69.87-6.13 27.77-12.28 58.21-.37 1.83-.79 3.67-2.07 9.06-4.2 18.13c-.7 3-.73 6.27.07 9.24q.61 2.27 2.86 4.41 1.26 1.2 3.1 1.23 3.65.07 6.66-.13a6.17 6.13 22.2 003.67-1.53q2.52-2.21 5-4.92c.95-1.04 1.18-2.38 1.94-3.51q1.89-2.84 3.4-6.16c.47-1.02.22-1.89.53-2.98q1.93-6.62 3.31-13.57 1.65-8.32 1.66-8.38 10.22-47.91 20.4-95.61a.79.78-87.3 01.66-.61l33.07-4.43a.42.42 0 01.47.5q-5.05 23.9-10.3 47.98-.02.08-.42 1.14c-.23.62-.05 1.66-.22 2.41q-3.13 13.66-5.03 23.32-1.9 9.67-3.61 17.28-.64 2.84-1.21 5.43-3.33 15.01-6.38 30.52c-1.05 5.35 0 11.16 6.61 11.84q7.37.75 12.51-3.37c7.06-5.68 10.17-12.82 12.15-22.32q7.14-34.25 14.41-68.34a.39.38-83.3 01.37-.3l32.15-.01a.66.66 0 01.65.8q-7.71 36.24-16.52 78.03c-1.05 4.99-1.4 12.62 3.69 15.22q2.36 1.2 5.18.42 4.83-1.35 8.04-5.08 3.53-4.11 5.78-9.38 1.44-3.39 2.99-10.73 5.07-24.01 10.3-48.04.51-2.35 1.02-4.69 1.69-7.72 3.3-15.87a.85.84 5.9 01.83-.67l32.01-.01q.58 0 .46.56-5.7 27.23-11.65 54.45l-.69 3.2q-2.64 12.38-5.13 24.31-2.01 9.65-4.02 18.5-.45 1.95-.75 4.62a.04.04 0 01-.07.03q-.07-.07-.17-.06-.08 0-.07.08zM383.3 587.83q-.01 5.01.17 9.34.11 2.64 1.03 5.86.38 1.31 1.14 2.08 1 1.02 1.99 2.19 1.2 1.43 2.88 2.02 5.51 1.95 10.39-.76 4.97-2.77 8.96-8.12 1.54-2.07 2.58-4.85 1.2-3.18 1.7-5.59 5.09-24.25 10.36-48.57c.47-2.16 1.77-4.33.8-6.53q-3.3-7.43-11.16-6.47c-3.04.38-6.89 2.13-9.15 4.16q-2.43 2.17-5.12 5.33-.27.31-.27.73 0 .35-.22.61-2.35 2.8-5.44 9.41-3.85 8.24-5.05 11.78-2.68 7.91-4.68 18.21-.9 4.62-.91 9.17zm539.2-31.89q-1.44 3.32-2.66 6.87c-.33.97-.17 1.8-.48 2.8-2.8 8.87-8.62 38.25 2.31 43.29 4.71 2.17 9.39 1.16 13.61-1.85 1.02-.73 1.56-1.67 2.62-2.37q1.02-.66 1.74-1.63c.92-1.24 2.06-2.07 2.7-3.54q1.02-2.33 2.19-4.53c.6-1.15.62-2.19.97-3.38q.36-1.26.63-2.53 5.01-23.4 10.11-46.78c.66-3.02 2.45-5.88.47-8.87-3.56-5.4-9.29-6.21-14.93-3.8q-3.29 1.41-4.92 2.94-7.04 6.61-11.43 16.65-1.5 3.42-2.93 6.73zm-352.07 91.93q-1.99.72-2.72 1.33-1.74 1.48-3.48 2.77-4.24 3.18-5.66 8.21c-1.27 4.5.64 7.71 4.36 9.95 2.39 1.44 5.63.89 7.57-1.06q1.54-1.56 3.14-3.17c1.4-1.42 1.73-3.46 2.47-4.92q4.08-8.05 4.82-16.6.08-.98-.87-.77-3.79.86-6.92 2.91-1.26.83-2.71 1.35z"/><path fill="#fff" d="M384.21 578.66q2-10.3 4.68-18.21 1.2-3.54 5.05-11.78 3.09-6.61 5.44-9.41.22-.26.22-.61 0-.42.27-.73 2.69-3.16 5.12-5.33c2.26-2.03 6.11-3.78 9.15-4.16q7.86-.96 11.16 6.47c.97 2.2-.33 4.37-.8 6.53q-5.27 24.32-10.36 48.57-.5 2.41-1.7 5.59-1.04 2.78-2.58 4.85-3.99 5.35-8.96 8.12-4.88 2.71-10.39.76-1.68-.59-2.88-2.02-.99-1.17-1.99-2.19-.76-.77-1.14-2.08-.92-3.22-1.03-5.86-.18-4.33-.17-9.34.01-4.55.91-9.17zm541.22-29.45q4.39-10.04 11.43-16.65 1.63-1.53 4.92-2.94c5.64-2.41 11.37-1.6 14.93 3.8 1.98 2.99.19 5.85-.47 8.87q-5.1 23.38-10.11 46.78-.27 1.27-.63 2.53c-.35 1.19-.37 2.23-.97 3.38q-1.17 2.2-2.19 4.53c-.64 1.47-1.78 2.3-2.7 3.54q-.72.97-1.74 1.63c-1.06.7-1.6 1.64-2.62 2.37-4.22 3.01-8.9 4.02-13.61 1.85-10.93-5.04-5.11-34.42-2.31-43.29.31-1 .15-1.83.48-2.8q1.22-3.55 2.66-6.87 1.43-3.31 2.93-6.73zm-352.29 97.31q3.13-2.05 6.92-2.91.95-.21.87.77-.74 8.55-4.82 16.6c-.74 1.46-1.07 3.5-2.47 4.92q-1.6 1.61-3.14 3.17c-1.94 1.95-5.18 2.5-7.57 1.06-3.72-2.24-5.63-5.45-4.36-9.95q1.42-5.03 5.66-8.21 1.74-1.29 3.48-2.77.73-.61 2.72-1.33 1.45-.52 2.71-1.35z"/><path fill="#588a3d" d="M598.87 764.32q0 1.02.67.25 6.67-7.6 15.53-5.39c5.39 1.34 6.89 7 7.04 12.03q.3 10.04.15 20.15a.69.69 0 00.56.69l4.09.75a.63.62 3.6 01.51.57l.11 1.87q.04.56-.53.56l-15.28-.01q-.58 0-.54-.58l.14-2.04a.46.45-3.5 01.36-.4l3.3-.67q.66-.13.68-.8.28-11.42-.21-21.18c-.31-6.13-5.58-7.96-10.59-5.87-6.38 2.65-5.91 7.74-5.96 14.58q-.05 5.85-.06 12.13 0 .7.65.98 1.52.65 3.32.78.56.04.6.6l.12 1.92q.03.56-.53.56l-15.23-.01q-.77 0-.68-.77l.17-1.32q.09-.74.81-.89l3.6-.79q.75-.16.75-.92l-.05-43.34a.92.92 0 00-.74-.9l-3.37-.64a1.39 1.38-11.2 01-.89-.59q-.56-.84-.27-1.86a.94.92 7.8 01.9-.67l10.26.03q.62 0 .62.63l-.01 20.56z"/><ellipse fill="#588a3d" transform="rotate(-50.7 1125.082 -333.626)" rx="4.31" ry="4.07"/><path fill="#588a3d" d="M546.67 786.79q-.24-.05-.38-.31-1.89-3.38-2.13-5.25-.22-1.74-.5-3.75-1.22-8.86.98-16.32 1.01-3.43 3.24-6.63 5.36-7.69 16.33-8.04 7.87-.25 12.32 4.44.53.56.73-.18l.8-2.89q.18-.62.82-.64l2.32-.06q.82-.02.81.79v13.36q0 .81-.82.83l-2.56.08q-.63.01-.77-.61c-1.31-6.05-4.38-10.41-11-11.26q-11.62-1.5-14.94 9.4-2.89 9.52-.25 20.62.23.96.36 1.9.27 1.87 1.51 3.62 3.58 5.11 7.83 5.99c2.98.62 7.46.46 10.32-.75q6.18-2.62 7.46-9.99.03-.22.25-.25 1.84-.32 3.58.04a.07.07 0 01.06.08q-2.7 12.92-14.01 15.05-7.93 1.5-14.48-1.77-5.22-2.61-7.62-7.3a.36.35 81.6 00-.26-.2zM728.7 763.2l.03 27.32a1.6 1.6 0 001.56 1.6l5.05.13a1.04 1.04 0 011 1.16q-.09.84-.99 1.04c-4.03.92-12.93 5.23-13.03-2.44q-.18-13.56-.01-28.97a.42.42 0 00-.42-.43l-5.21-.01q-.91 0-1.01-.91l-.05-.51a.96.96 0 01.83-1.05l5.15-.72q.55-.08.6-.63l.7-7.55q.03-.35.37-.41l5.05-.75q.38-.06.38.32l.02 8.36q0 .53.53.53l7.69.02q.38 0 .38.39l-.05 2.49q0 .44-.44.44l-7.53-.01q-.6-.01-.6.59zm169.07-.51l-5.13.02q-.77 0-.77-.77l-.01-1.03q0-.61.6-.7l5.19-.76a1.03 1.02 89.3 00.87-.9l.78-7.32q.05-.42.47-.48l4.77-.63q.48-.06.48.43l-.08 8.17q-.01.53.52.53l7.53.05q.69 0 .68.69l-.03 2.11q-.01.59-.61.59l-7.33-.02q-.7 0-.7.7-.05 13.48.06 26.6.01 2.21 2.16 2.24 2.33.05 4.48-.06.45-.02.69.35.46.69.04 1.41a1.12 1.12 0 01-.57.48c-4.45 1.65-13.2 4.97-13.3-2.92q-.17-13.89-.06-28.05 0-.73-.73-.73zm-254.59 4.82q1.38-4.08 4.37-6.75c3.04-2.72 8.4-3.14 10.65.77 1.32 2.29 1.3 6.86-2.05 7.46-3.25.58-5.37-1.74-4.58-4.99a1.05 1.04-6.3 00-1.48-1.18q-3.34 1.65-4.88 5.72-1.44 3.81-1.76 7.34-.48 5.23-.21 15.39a.73.73 0 00.62.7l5.92.9q.58.08.62.67l.1 1.45q.06.81-.75.81h-17.94q-.49 0-.45-.49l.15-1.99q.03-.42.44-.5l4.04-.82q.6-.12.6-.74V763.7a.49.48-84.2 00-.38-.48l-4.24-.93q-.46-.1-.48-.57l-.07-2.03a.4.39 89.3 01.39-.41h8.63q.68 0 .8.67l1.29 7.51q.22 1.32.65.05zm62.8 21.85c1.85-3.95-2.76-7.41-6.01-8.47q-.23-.07-.43.06-.28.18-.61.1-4.61-1.23-9.46-4.11-2.55-1.52-3.38-4.25-1.13-3.73.14-7.62c.65-1.98 2.03-2.55 3.42-3.84 4.63-4.31 20.23-3.72 20.58 4.96q.09 2.15-.92 3.86c-1.18 1.98-4.52 2.25-5.59.03q-1.48-3.09 1.48-5.35.45-.34.05-.74-2.24-2.22-4.46-2.32-1.55-.06-3.18-.12-1.78-.07-3.21.57-3.41 1.56-3.77 4.83-.29 2.74 1.76 4.62 1.8 1.66 3.82 1.94 1.62.23 3.15.8 4.67 1.74 9.1 4.14c1.22.67 2.34 1.94 2.65 3.32q2.33 10.6-7.62 13.86-3.93 1.29-9.12.78-6.53-.65-9.59-6.13c-1.16-2.07-1.19-6.3 1.94-6.99q2.26-.49 3.88.98a2.4 2.4 0 01.55 2.81l-1.62 3.38a.58.57-58.5 00.16.7c2.95 2.35 8.16 2.56 11.55 1.93q1.56-.29 2.95-1.44 1.17-.96 1.79-2.29zm68.4-23.37c3.48-5.2 8.96-8.1 14.81-7.11 6.39 1.08 7.7 6.51 7.93 11.99q.42 9.96.22 20.29-.02.77.75.92l4.15.81q.18.03.19.22l.12 2.13q.03.56-.54.56l-15.06-.01q-.85 0-.75-.84l.16-1.37q.09-.69.76-.85l3.06-.7q.57-.14.57-.73v-16.36c0-2.95-.01-7.06-1.92-9.35q-2.02-2.41-5.12-2.05-8.56 1-8.86 10.12-.26 7.91-.06 17.62.02.69.7.83l3.31.69q.41.09.42.5l.07 1.95q.02.56-.54.56l-14.49-.03q-.77 0-.69-.77l.17-1.45q.07-.65.71-.8l3.17-.76q.59-.14.6-.75.11-9.81-.13-19.09c-.05-1.91-.31-4.58-1.44-6.13-3.7-5.03-11.18-1.94-13.37 2.69q-1.28 2.7-1.11 8.59.2 6.95 0 13.61-.02.73.64 1.02 1.4.62 3.18.77.33.03.45.35.34.93.33 1.99 0 .76-.75.76l-15.08-.02q-.61 0-.54-.61l.21-1.98q.03-.3.33-.36l3.97-.83q.75-.16.75-.92v-27.1q0-.68-.66-.83l-3.92-.88q-.55-.12-.57-.68l-.07-1.67q-.03-.65.63-.65l8.56.01q.62 0 .73.6l1.02 5.39a.49.49 0 00.89.18c3.8-5.53 10.74-8.75 17.03-5.64q3.41 1.68 4.33 6.03.2.96.75.14zm32.91 25.53c-2.33-5.72 1.15-11.3 6.74-13.2q6.51-2.21 13.07-3.4.56-.1.54-.67c-.1-3.75-.78-10.23-4.82-11.88q-3.79-1.55-7.86.5a1.22 1.21 57 00-.39 1.87c2.28 2.75 1.41 6.7-2.58 6.83-2.23.07-3.73-1.58-3.74-3.76-.02-8.15 11.11-10.05 17-8.61 7.22 1.78 9.15 9.45 9.16 16.05q.01 7.22.18 15.21a2.08 2.07.1 002.03 2.03l2.6.07a.78.77-5.3 01.73.6q.27 1.2-.8 1.65-2.79 1.16-6.21 1.68c-4.49.67-3.79-3.96-4.03-6.63a.37.37 0 00-.66-.18q-1.1 1.48-2.41 2.68c-3.89 3.59-11.62 6.16-16.22 2.38q-1.54-1.26-2.33-3.22zM823 777.87c-5.61 1.67-11.14 3.73-9.27 11.14 1.31 5.21 7.58 3.87 10.62 1.25 3.98-3.42 3.67-7.78 3.43-12.49q-.04-.66-.7-.58-3.12.4-4.08.68zm40.33 13.66c1.95-1.86 2.73-5.54.6-7.62q-1.84-1.79-4.18-2.38-6.08-1.53-10.82-4.12c-5.74-3.13-5.74-11.41-1.44-15.34 5.95-5.43 22.7-5.14 22 6.1-.15 2.54-2.61 4.23-5.03 3.25-2.53-1.04-2.65-4.14-.81-5.87q1.8-1.71-.47-2.72-5.1-2.25-10.17-.17-1.88.77-2.62 2.78c-1.26 3.39.45 6.21 3.64 7.33 4.62 1.61 12.07 3.45 15.09 7.18 3.76 4.64 1.84 11.64-3.49 14.45-6.17 3.26-17.27 3.05-21.53-2.78-1.04-1.43-.87-3.57-.8-5.25.25-5.71 9.15-3.91 7.19 1.26q-.56 1.49-1.74 2.52a.67.66-50.9 00.11 1.08c3.52 1.97 11.13 3.48 14.47.3zm64.54-23.95q.22 1.3.64.05 1.29-3.83 3.77-6.32c4.02-4.03 11.75-3.68 12.08 3.19.31 6.6-8.96 6.07-7.49-.77a.75.75 0 00-.8-.9c-5.05.47-7.26 10.1-7.43 14.23q-.29 6.85-.1 14.17.02.6.61.7l5.67.92q.83.13.91.97l.1.99q.09.99-.89.99l-17.61-.01a.67.67 0 01-.67-.72l.12-1.53a.84.83-3.2 01.68-.75l3.83-.79a.8.8 0 00.64-.78l-.01-27.23a.87.86 6.8 00-.67-.84l-3.93-.9q-.55-.12-.57-.69l-.06-1.63a.63.62-.9 01.63-.64l8.35-.02a.94.93 84.8 01.92.77l1.28 7.54zm31.84 28.36q-3.34-.52-6.46-3.04-2.61-2.11-3.71-5.6-3.59-11.37 1.33-21.19c3.06-6.09 10.72-8.43 17.37-7.02 8.56 1.82 11.03 10.5 10.32 18.17a.74.73-87.4 01-.73.67l-22.13.01q-.62 0-.72.62-.84 5.58 2.39 9.64c4.59 5.76 13.03 4.46 17.84-.4a1.36 1.35 41.1 011.79-.12l.45.34q.84.65.14 1.46c-2.79 3.21-6.06 6.03-10.19 6.61q-3.52.5-7.69-.15zm-3.93-21.22h15.68a.46.46 0 00.46-.46v-2.2a9.72 7.55-90 00-7.55-9.72h-1.5a9.72 7.55 90 00-7.55 9.72v2.2a.46.46 0 00.46.46zm35.85 3.53c-.52 6.58 2.62 13.09 9.55 13.63q6.14.47 10.77-4.06a1.36 1.36 0 011.51-.27l.49.22q1.21.54.4 1.59-6.52 8.52-16.89 6.86-4.99-.79-8.03-3.87-2.4-2.42-3.54-6.8-1.71-6.58-.21-13.77 1.58-7.53 6.89-10.79 5.98-3.66 13.34-1.66c7.85 2.14 10.17 10.71 9.37 18.23a.46.45 2.7 01-.46.41l-22.8-.08a.39.39 0 00-.39.36zm.9-3.54l15.64.02a.57.57 0 00.57-.57v-1.54a10.27 7.61-89.9 00-7.59-10.28h-1.56a10.27 7.61-89.9 00-7.63 10.26v1.54a.57.57 0 00.57.57zm-313.28 18.68l.18 1.85a.51.51 0 01-.51.56l-16.15-.01a.51.51 0 01-.51-.56l.18-1.96a.51.51 0 01.4-.46l4.27-.86a.51.51 0 00.41-.5V763.7a.51.51 0 00-.4-.5l-4.3-.94a.51.51 0 01-.4-.47l-.12-1.97a.51.51 0 01.51-.54l10.86.02a.51.51 0 01.51.51l-.16 31.69a.51.51 0 00.41.5l4.42.94a.51.51 0 01.4.45z"/><path fill="#fff" d="M955.78 774.72a.46.46 0 01-.46-.46v-2.2a9.72 7.55 90 017.55-9.72h1.5a9.72 7.55-90 017.55 9.72v2.2a.46.46 0 01-.46.46h-15.68zm36.75-.01a.57.57 0 01-.57-.57v-1.54a10.27 7.61-89.9 017.63-10.26h1.56a10.27 7.61-89.9 017.59 10.28v1.54a.57.57 0 01-.57.57l-15.64-.02zM823 777.87q.96-.28 4.08-.68.66-.08.7.58c.24 4.71.55 9.07-3.43 12.49-3.04 2.62-9.31 3.96-10.62-1.25-1.87-7.41 3.66-9.47 9.27-11.14z"/></svg>