<svg width="12" height="12" fill="none" xmlns="http://www.w3.org/2000/svg"><path d="M11.037 7.877a6.813 6.813 0 01-2.14-.341c-.34-.116-.728-.026-.95.2l-1.35 1.019C5.032 7.92 4.068 6.956 3.244 5.403l.99-1.314a.97.97 0 00.238-.983A6.824 6.824 0 014.13.963.964.964 0 003.167 0H.963A.964.964 0 000 .963C0 7.049 4.951 12 11.037 12a.964.964 0 00.963-.963V8.84a.964.964 0 00-.963-.962zm.296 3.16a.296.296 0 01-.296.296C5.32 11.333.667 6.681.667.963c0-.164.132-.296.296-.296h2.204c.163 0 .296.132.296.296 0 .806.127 1.598.374 2.347.035.11.007.225-.105.342L2.586 5.17a.334.334 0 00-.031.351C3.49 7.36 4.626 8.496 6.478 9.445a.33.33 0 00.352-.031l1.553-1.176a.294.294 0 01.302-.07 7.494 7.494 0 002.352.375c.163 0 .296.133.296.297v2.197z" fill="#fff"/></svg>