<svg width="24" height="28" fill="none" xmlns="http://www.w3.org/2000/svg"><path d="M22.074 17.744c-1.47 0-2.912-.259-4.28-.767-.68-.262-1.457-.06-1.902.451l-2.698 2.295c-3.13-1.882-5.057-4.052-6.705-7.551l1.977-2.96c.514-.578.698-1.422.477-2.215A17.156 17.156 0 018.26 2.17C8.259.973 7.395 0 6.333 0H1.926C.864 0 0 .973 0 2.17c0 13.71 9.902 24.863 22.074 24.863 1.062 0 1.926-.973 1.926-2.169v-4.95c0-1.197-.864-2.17-1.926-2.17zm.593 7.12c0 .368-.266.668-.593.668-11.437 0-20.74-10.48-20.74-23.363 0-.368.265-.667.592-.667h4.407c.327 0 .593.3.593.667 0 1.817.253 3.6.748 5.288.07.25.013.508-.21.77l-2.292 3.419a.83.83 0 00-.063.793c1.87 4.14 4.144 6.7 7.846 8.838a.603.603 0 00.706-.07l3.105-2.649a.543.543 0 01.604-.158c1.51.562 3.092.846 4.704.846.327 0 .593.3.593.668v4.95z" fill="#333"/></svg>