<svg width="16" height="17" fill="none" xmlns="http://www.w3.org/2000/svg"><path d="M13.727 2.603A7.62 7.62 0 008.241.277a7.57 7.57 0 00-2.97.604c-.945.4-1.792.98-2.517 1.722A7.98 7.98 0 00.482 8.216c0 1.264.298 2.521.863 3.64L.041 15.67a.742.742 0 00.17.762.705.705 0 00.746.174l3.725-1.334a7.621 7.621 0 009.045-1.442A7.98 7.98 0 0016 8.216a7.98 7.98 0 00-2.273-5.613zm-.663 10.547a6.699 6.699 0 01-8.025 1.229.708.708 0 00-.576-.046l-3.385 1.212 1.184-3.463a.755.755 0 00-.044-.59 7.125 7.125 0 01-.798-3.276c0-1.864.71-3.616 1.998-4.934A6.7 6.7 0 018.24 1.238h.001c1.822 0 3.535.725 4.823 2.044a7.014 7.014 0 011.998 4.934c0 1.864-.71 3.616-1.998 4.934z" fill="#333"/><path d="M11.124 8.925a.902.902 0 00-1.294 0l-.39.4A5.75 5.75 0 017.156 6.99l.39-.4a.953.953 0 000-1.324L6.497 4.189a.902.902 0 00-1.295 0l-.841.861c-.483.494-.507 1.342-.068 2.388.38.909 1.077 1.907 1.961 2.812.884.904 1.86 1.617 2.748 2.007.486.213.928.319 1.31.319.422 0 .77-.13 1.024-.389l.841-.861a.941.941 0 00.269-.662.94.94 0 00-.268-.662l-1.053-1.077zm-.453 2.583c-.137.141-.56.19-1.3-.134-.78-.342-1.653-.983-2.454-1.803-.802-.82-1.428-1.712-1.763-2.511-.317-.757-.268-1.19-.13-1.33l.825-.845 1.019 1.043-.489.5a.745.745 0 00-.132.853 6.699 6.699 0 002.908 2.975c.277.145.613.09.834-.135l.488-.5 1.02 1.043-.826.844z" fill="#333"/></svg>