<svg width="24" height="24" fill="none" xmlns="http://www.w3.org/2000/svg"><g clip-path="url(#clip0_2912_519)" fill="#fff"><path d="M15.694 10.921l-5.302-2.9a.965.965 0 00-.964.016.965.965 0 00-.478.838v5.752c0 .346.178.659.475.836a.971.971 0 00.96.022l5.303-2.851a.974.974 0 00.006-1.713zm-5.337 2.982V9.604l3.963 2.168-3.963 2.131z"/><path d="M23.823 7.197v-.011c-.021-.194-.223-1.912-1.059-2.786-.965-1.028-2.06-1.153-2.586-1.213a6.298 6.298 0 01-.12-.014l-.041-.004c-3.173-.23-7.965-.262-8.013-.263h-.008c-.048 0-4.84.032-8.041.263l-.043.004-.112.014c-.52.06-1.603.185-2.572 1.25C.433 5.302.203 6.983.18 7.172l-.002.025A48.43 48.43 0 000 11.112v1.796c0 1.92.17 3.834.177 3.915v.012c.021.19.223 1.877 1.055 2.751.908.994 2.055 1.125 2.673 1.196.097.011.182.02.239.03l.055.008c1.832.175 7.576.26 7.82.264h.014c.048 0 4.84-.032 8.013-.262l.041-.005.135-.015c.517-.055 1.595-.169 2.55-1.22.795-.864 1.025-2.546 1.049-2.735l.002-.024c.008-.08.177-1.994.177-3.915v-1.796c0-1.921-.17-3.835-.177-3.915zm-1.23 5.71c0 1.779-.155 3.61-.17 3.778-.06.463-.302 1.527-.69 1.948-.597.658-1.211.723-1.66.77a7.664 7.664 0 00-.149.017c-3.069.222-7.68.256-7.892.257-.238-.003-5.898-.09-7.674-.255a6.063 6.063 0 00-.293-.037c-.526-.06-1.245-.143-1.799-.752l-.013-.014c-.38-.396-.616-1.391-.676-1.928-.011-.127-.17-1.98-.17-3.783v-1.796c0-1.776.154-3.606.17-3.777.07-.546.318-1.545.69-1.949.615-.677 1.265-.753 1.694-.802l.115-.014c3.113-.223 7.757-.256 7.924-.257.167 0 4.809.034 7.895.257l.123.015c.442.05 1.11.126 1.723.78l.006.006c.38.397.616 1.409.676 1.957.01.12.17 1.977.17 3.784v1.796z"/></g><defs><clipPath id="clip0_2912_519"><path fill="#fff" d="M0 0h24v24H0z"/></clipPath></defs></svg>